G04 #@! TF.FileFunction,Copper,L1,Top,Signal*
%FSLAX45Y45*%
G04 Gerber Fmt 4.5, Leading zero omitted, Abs format (unit mm)*
G04 Created by KiCad (PCBNEW 4.0.1-stable) date Wednesday, December 14, 2016 'PMt' 06:44:45 PM*
%MOMM*%
G01*
G04 APERTURE LIST*
%ADD10C,0.100000*%
%ADD11C,1.524000*%
%ADD12R,2.032000X1.727200*%
%ADD13O,2.032000X1.727200*%
%ADD14R,1.727200X2.032000*%
%ADD15O,1.727200X2.032000*%
%ADD16R,1.727200X1.727200*%
%ADD17O,1.727200X1.727200*%
%ADD18C,1.501140*%
%ADD19C,2.999740*%
%ADD20R,1.700000X0.900000*%
%ADD21R,0.900000X1.700000*%
%ADD22R,2.032000X2.032000*%
%ADD23O,2.032000X2.032000*%
%ADD24R,0.800100X0.800100*%
%ADD25C,1.727200*%
%ADD26C,2.700020*%
%ADD27C,1.600200*%
%ADD28R,1.000000X3.200000*%
%ADD29R,1.000000X2.500000*%
%ADD30C,0.600000*%
%ADD31C,0.300000*%
G04 APERTURE END LIST*
D10*
D11*
X12153900Y-11493500D03*
X12407900Y-11493500D03*
X12661900Y-11493500D03*
X12915900Y-11493500D03*
X13169900Y-11493500D03*
X13423900Y-11493500D03*
X12026900Y-11239500D03*
X12026900Y-10985500D03*
X12026900Y-10731500D03*
X12026900Y-10477500D03*
X12026900Y-10223500D03*
X12026900Y-9969500D03*
X12026900Y-9715500D03*
X12026900Y-9461500D03*
X12026900Y-9207500D03*
X12026900Y-8953500D03*
X12026900Y-8699500D03*
X12026900Y-8445500D03*
X13550900Y-11239500D03*
X13550900Y-10985500D03*
X13550900Y-10731500D03*
X13550900Y-10477500D03*
X13550900Y-10223500D03*
X13550900Y-9969500D03*
X13550900Y-9715500D03*
X13550900Y-9461500D03*
X13550900Y-9207500D03*
X13550900Y-8953500D03*
X13550900Y-8699500D03*
X13550900Y-8445500D03*
D12*
X11055604Y-11481816D03*
D13*
X11055604Y-11227816D03*
X11055604Y-10973816D03*
X11055604Y-10719816D03*
D12*
X10452100Y-10087610D03*
D13*
X10452100Y-9833610D03*
X10452100Y-9579610D03*
D14*
X18666460Y-9811004D03*
D15*
X18920460Y-9811004D03*
X19174460Y-9811004D03*
X19428460Y-9811004D03*
D14*
X9643110Y-7082790D03*
D15*
X9897110Y-7082790D03*
X10151110Y-7082790D03*
X10405110Y-7082790D03*
X10659110Y-7082790D03*
D16*
X12420600Y-7059930D03*
D17*
X12420600Y-7313930D03*
X12674600Y-7059930D03*
X12674600Y-7313930D03*
X12928600Y-7059930D03*
X12928600Y-7313930D03*
X13182600Y-7059930D03*
X13182600Y-7313930D03*
D18*
X9764988Y-12290466D03*
X9764988Y-12544466D03*
X9764988Y-12747666D03*
X9764988Y-13001666D03*
D19*
X9498288Y-11985666D03*
X9498288Y-13357266D03*
D20*
X10440924Y-8822216D03*
X10440924Y-9112216D03*
X15875000Y-7201120D03*
X15875000Y-6911120D03*
X11479530Y-8910100D03*
X11479530Y-9200100D03*
D21*
X15615700Y-8445500D03*
X15905700Y-8445500D03*
D22*
X9960356Y-9106916D03*
D23*
X9960356Y-8852916D03*
D20*
X17741900Y-9479500D03*
X17741900Y-9189500D03*
X16662400Y-10142000D03*
X16662400Y-10432000D03*
D21*
X18394900Y-10481310D03*
X18104900Y-10481310D03*
D20*
X15476220Y-10286780D03*
X15476220Y-10576780D03*
X16471900Y-9189500D03*
X16471900Y-9479500D03*
D21*
X18394900Y-9334500D03*
X18104900Y-9334500D03*
D24*
X17133824Y-9239500D03*
X17133824Y-9429500D03*
X17333722Y-9334500D03*
X17260824Y-10192000D03*
X17260824Y-10382000D03*
X17460722Y-10287000D03*
D20*
X10220960Y-6249890D03*
X10220960Y-5959890D03*
D21*
X19504880Y-7866380D03*
X19214880Y-7866380D03*
D20*
X19179540Y-11094500D03*
X19179540Y-11384500D03*
D21*
X9601420Y-9580880D03*
X9311420Y-9580880D03*
X10306270Y-10728960D03*
X10016270Y-10728960D03*
X9498110Y-8042910D03*
X9788110Y-8042910D03*
X17278570Y-7856220D03*
X16988570Y-7856220D03*
D24*
X11004804Y-8900164D03*
X11004804Y-8710164D03*
X10804906Y-8805164D03*
X15973040Y-7873746D03*
X16163040Y-7873746D03*
X16068040Y-7673848D03*
D20*
X18898362Y-10185688D03*
X18898362Y-10475688D03*
D10*
G36*
X14226579Y-6345826D02*
X14211526Y-6173764D01*
X14413953Y-6156054D01*
X14429006Y-6328116D01*
X14226579Y-6345826D01*
X14226579Y-6345826D01*
G37*
D25*
X14282946Y-5999235D02*
X14313310Y-5996578D01*
X14260809Y-5746201D02*
X14291173Y-5743545D01*
X14238671Y-5493168D02*
X14269035Y-5490511D01*
D10*
G36*
X12445320Y-13162047D02*
X12544388Y-13020563D01*
X12710840Y-13137113D01*
X12611772Y-13278597D01*
X12445320Y-13162047D01*
X12445320Y-13162047D01*
G37*
D25*
X12419908Y-13348903D02*
X12444875Y-13366386D01*
X12274219Y-13556968D02*
X12299187Y-13574450D01*
X12128531Y-13765033D02*
X12153499Y-13782515D01*
D21*
X16984760Y-8509000D03*
X17274760Y-8509000D03*
D20*
X14853920Y-12131260D03*
X14853920Y-11841260D03*
D11*
X18856960Y-6278880D03*
X18856960Y-6078982D03*
D26*
X18130012Y-5808980D03*
X19329908Y-5808980D03*
D27*
X16629634Y-6140450D03*
X15869666Y-6140450D03*
D21*
X9728420Y-11323320D03*
X9438420Y-11323320D03*
D28*
X14813400Y-8442960D03*
X14193400Y-8442960D03*
D20*
X11635740Y-7206200D03*
X11635740Y-6916200D03*
D29*
X13099940Y-8303260D03*
X12609940Y-8303260D03*
D21*
X13126500Y-7762240D03*
X13416500Y-7762240D03*
D29*
X11324700Y-7785100D03*
X11814700Y-7785100D03*
D30*
X18900140Y-6278880D02*
X19044920Y-6278880D01*
X19362334Y-6596294D02*
X19362334Y-6925224D01*
X19044920Y-6278880D02*
X19362334Y-6596294D01*
D31*
X14853920Y-11841260D02*
X14853920Y-11519408D01*
X14853920Y-11519408D02*
X14574012Y-11239500D01*
X17262060Y-8511540D02*
X18219420Y-8511540D01*
X18219420Y-8511540D02*
X18597880Y-8890000D01*
X18898362Y-10475688D02*
X18400522Y-10475688D01*
X18400522Y-10475688D02*
X18394900Y-10481310D01*
X18688050Y-11239500D02*
X18688050Y-10774460D01*
X18688050Y-10774460D02*
X18394900Y-10481310D01*
D30*
X19396075Y-8886825D02*
X19399250Y-8890000D01*
X18394900Y-9334500D02*
X18394900Y-9062500D01*
X18567400Y-8890000D02*
X18597880Y-8890000D01*
X18597880Y-8890000D02*
X19399250Y-8890000D01*
X18394900Y-9062500D02*
X18567400Y-8890000D01*
X18694400Y-11239500D02*
X18688050Y-11239500D01*
X18688050Y-11239500D02*
X14574012Y-11239500D01*
X14574012Y-11239500D02*
X13550900Y-11239500D01*
X19773814Y-9764944D02*
X19773814Y-11112586D01*
X19773814Y-11112586D02*
X19646900Y-11239500D01*
D31*
X19646900Y-11239500D02*
X18694400Y-11239500D01*
D30*
X19396075Y-8886825D02*
X19608165Y-8886825D01*
X19768820Y-9243060D02*
X19773814Y-9243060D01*
X19768820Y-9047480D02*
X19768820Y-9243060D01*
X19608165Y-8886825D02*
X19768820Y-9047480D01*
X19773814Y-9461500D02*
X19773900Y-9461500D01*
X19773900Y-9461500D02*
X19773814Y-9461500D01*
X19773814Y-9207586D02*
X19773814Y-9243060D01*
X19773814Y-9243060D02*
X19773814Y-9461500D01*
X19773814Y-9461500D02*
X19773814Y-9764944D01*
X19362334Y-8853084D02*
X19396075Y-8886825D01*
D31*
X19362334Y-6925224D02*
X19362334Y-8853084D01*
X12026900Y-9969500D02*
X12003532Y-9969500D01*
X12003532Y-9969500D02*
X11703812Y-10269220D01*
X11703812Y-10269220D02*
X11703812Y-10705084D01*
X11703812Y-10705084D02*
X11182096Y-11226800D01*
X11182096Y-11226800D02*
X11049000Y-11226800D01*
X11049000Y-10972800D02*
X11162284Y-10972800D01*
X11162284Y-10972800D02*
X11530584Y-10604500D01*
X11530584Y-10211816D02*
X12026900Y-9715500D01*
X11530584Y-10604500D02*
X11530584Y-10211816D01*
D30*
X15488920Y-11986260D02*
X18577780Y-11986260D01*
X18577780Y-11986260D02*
X19179540Y-11384500D01*
X14272260Y-11986260D02*
X12303760Y-11986260D01*
X12303760Y-11986260D02*
X12153900Y-11836400D01*
D31*
X15496540Y-11986260D02*
X15488920Y-11986260D01*
X15488920Y-11986260D02*
X14272260Y-11986260D01*
D30*
X12141015Y-13773774D02*
X11492854Y-13773774D01*
X11492854Y-13773774D02*
X11045190Y-13326110D01*
X12153900Y-11836400D02*
X12153900Y-12217400D01*
X9372600Y-10883900D02*
X9372600Y-10741660D01*
X8737600Y-11518900D02*
X9372600Y-10883900D01*
X8737600Y-13690600D02*
X8737600Y-11518900D01*
X9271000Y-14224000D02*
X8737600Y-13690600D01*
X10147300Y-14224000D02*
X9271000Y-14224000D01*
X12153900Y-12217400D02*
X11045190Y-13326110D01*
X11045190Y-13326110D02*
X10147300Y-14224000D01*
X9682480Y-11650980D02*
X9961880Y-11650980D01*
X9980254Y-12290466D02*
X9764988Y-12290466D01*
X10134600Y-12136120D02*
X9980254Y-12290466D01*
X10134600Y-11823700D02*
X10134600Y-12136120D01*
X9961880Y-11650980D02*
X10134600Y-11823700D01*
D31*
X9580880Y-10949940D02*
X9580880Y-11549380D01*
X9580880Y-11549380D02*
X9682480Y-11650980D01*
D30*
X9372600Y-10741660D02*
X9580880Y-10949940D01*
X9359900Y-10728960D02*
X9372600Y-10741660D01*
D31*
X9682480Y-11650980D02*
X9687560Y-11656060D01*
D30*
X10016270Y-10728960D02*
X9359900Y-10728960D01*
X8931910Y-9969500D02*
X8931910Y-9411970D01*
X8931910Y-10300970D02*
X8931910Y-9969500D01*
X9359900Y-10728960D02*
X8931910Y-10300970D01*
X12420600Y-7059930D02*
X11880850Y-7059930D01*
D31*
X11339830Y-7059930D02*
X11880850Y-7059930D01*
D30*
X11339830Y-7059930D02*
X10685780Y-6405880D01*
X10685780Y-5959890D02*
X10685780Y-6405880D01*
D31*
X11880850Y-7059930D02*
X11882120Y-7061200D01*
D30*
X14253853Y-5491840D02*
X12595060Y-5491840D01*
X12595060Y-5491840D02*
X12127010Y-5959890D01*
X14253853Y-5491840D02*
X17206320Y-5491840D01*
X17813020Y-6098540D02*
X17813020Y-6878320D01*
X17206320Y-5491840D02*
X17813020Y-6098540D01*
X18900140Y-6078982D02*
X18612358Y-6078982D01*
X17813020Y-6878320D02*
X17813020Y-7856220D01*
X18612358Y-6078982D02*
X17813020Y-6878320D01*
X17278570Y-7856220D02*
X17813020Y-7856220D01*
X17813020Y-7856220D02*
X19204720Y-7856220D01*
X19204720Y-7856220D02*
X19214880Y-7866380D01*
X12127010Y-5959890D02*
X10685780Y-5959890D01*
X10685780Y-5959890D02*
X10220960Y-5959890D01*
X9311420Y-9580880D02*
X9100820Y-9580880D01*
X8931910Y-8609110D02*
X9498110Y-8042910D01*
X8931910Y-9411970D02*
X8931910Y-8609110D01*
X9100820Y-9580880D02*
X8931910Y-9411970D01*
X10220960Y-5959890D02*
X9667020Y-5959890D01*
X9667020Y-5959890D02*
X9287510Y-6339400D01*
X9287510Y-6339400D02*
X9287510Y-7473950D01*
X9287510Y-7473950D02*
X9498110Y-7684550D01*
X9498110Y-7684550D02*
X9498110Y-8042910D01*
D31*
X10224770Y-5963700D02*
X10220960Y-5959890D01*
D30*
X12153900Y-11836400D02*
X12153900Y-11493500D01*
X19502334Y-7901940D02*
X19504880Y-7901940D01*
X14193400Y-8442960D02*
X13553440Y-8442960D01*
X13553440Y-8442960D02*
X13550900Y-8445500D01*
X12026900Y-9461500D02*
X11273790Y-9461500D01*
X10923270Y-9812020D02*
X10473690Y-9812020D01*
X11273790Y-9461500D02*
X10923270Y-9812020D01*
X10473690Y-9812020D02*
X10452100Y-9833610D01*
D31*
X10659110Y-7082790D02*
X11141710Y-7082790D01*
X11739880Y-8445500D02*
X12026900Y-8445500D01*
X11518900Y-8224520D02*
X11739880Y-8445500D01*
X11518900Y-7459980D02*
X11518900Y-8224520D01*
X11141710Y-7082790D02*
X11518900Y-7459980D01*
X13182600Y-7313930D02*
X13182600Y-7510780D01*
X12514580Y-10223500D02*
X12026900Y-10223500D01*
X12898120Y-9839960D02*
X12514580Y-10223500D01*
X12898120Y-8128780D02*
X12898120Y-9839960D01*
X12972560Y-8054340D02*
X12898120Y-8128780D01*
X13152120Y-8054340D02*
X12972560Y-8054340D01*
X13271500Y-7934960D02*
X13152120Y-8054340D01*
X13271500Y-7599680D02*
X13271500Y-7934960D01*
X13182600Y-7510780D02*
X13271500Y-7599680D01*
X13182600Y-7059930D02*
X13989050Y-7059930D01*
X14170660Y-8953500D02*
X13550900Y-8953500D01*
X14340840Y-8783320D02*
X14170660Y-8953500D01*
X14340840Y-7411720D02*
X14340840Y-8783320D01*
X13989050Y-7059930D02*
X14340840Y-7411720D01*
X12928600Y-7313930D02*
X12928600Y-7627620D01*
X13063220Y-7762240D02*
X13126500Y-7762240D01*
X12928600Y-7627620D02*
X13063220Y-7762240D01*
X12928600Y-7059930D02*
X12928600Y-6878320D01*
X14320520Y-9207500D02*
X13550900Y-9207500D01*
X14521180Y-9006840D02*
X14320520Y-9207500D01*
X14521180Y-7315200D02*
X14521180Y-9006840D01*
X14000480Y-6794500D02*
X14521180Y-7315200D01*
X13012420Y-6794500D02*
X14000480Y-6794500D01*
X12928600Y-6878320D02*
X13012420Y-6794500D01*
X12674600Y-7313930D02*
X12674600Y-7556500D01*
X12484100Y-8953500D02*
X12026900Y-8953500D01*
X12781280Y-8656320D02*
X12484100Y-8953500D01*
X12781280Y-7663180D02*
X12781280Y-8656320D01*
X12674600Y-7556500D02*
X12781280Y-7663180D01*
D30*
X12674600Y-7059930D02*
X12674600Y-6797040D01*
X11635740Y-6743700D02*
X11635740Y-6916200D01*
X11737340Y-6642100D02*
X11635740Y-6743700D01*
X12519660Y-6642100D02*
X11737340Y-6642100D01*
X12674600Y-6797040D02*
X12519660Y-6642100D01*
D31*
X10440924Y-9112216D02*
X9965656Y-9112216D01*
X9965656Y-9112216D02*
X9960356Y-9106916D01*
X12026900Y-9207500D02*
X11486930Y-9207500D01*
X11486930Y-9207500D02*
X11479530Y-9200100D01*
X16662400Y-10432000D02*
X14711900Y-10432000D01*
D30*
X13995400Y-9715500D02*
X13550900Y-9715500D01*
X14711900Y-10432000D02*
X13995400Y-9715500D01*
X17260824Y-10382000D02*
X16712400Y-10382000D01*
X16712400Y-10382000D02*
X16662400Y-10432000D01*
X16471900Y-9479500D02*
X17083824Y-9479500D01*
X17083824Y-9479500D02*
X17133824Y-9429500D01*
X16471900Y-9479500D02*
X13568900Y-9479500D01*
X13568900Y-9479500D02*
X13550900Y-9461500D01*
D31*
X10487660Y-11323320D02*
X10449560Y-11323320D01*
X10162540Y-10208260D02*
X10041890Y-10087610D01*
X10162540Y-11036300D02*
X10162540Y-10208260D01*
X10449560Y-11323320D02*
X10162540Y-11036300D01*
X9643110Y-8671560D02*
X9643110Y-9061450D01*
X9882090Y-10091420D02*
X9882090Y-10087610D01*
X9654540Y-10091420D02*
X9882090Y-10091420D01*
X9456420Y-9893300D02*
X9654540Y-10091420D01*
X9456420Y-9248140D02*
X9456420Y-9893300D01*
X9643110Y-9061450D02*
X9456420Y-9248140D01*
X9643110Y-7423150D02*
X9643110Y-8671560D01*
X9643110Y-8671560D02*
X9643110Y-8672830D01*
X9823196Y-8852916D02*
X9960356Y-8852916D01*
X9643110Y-8672830D02*
X9823196Y-8852916D01*
D30*
X9643110Y-7082790D02*
X9643110Y-7423150D01*
X10005060Y-7785100D02*
X11324700Y-7785100D01*
X9643110Y-7423150D02*
X10005060Y-7785100D01*
X12420600Y-7313930D02*
X12420600Y-7565280D01*
X12420600Y-7565280D02*
X12609940Y-7754620D01*
X12609940Y-7754620D02*
X11845180Y-7754620D01*
X11845180Y-7754620D02*
X11814700Y-7785100D01*
X12609940Y-7754620D02*
X12609940Y-8303260D01*
X13099940Y-8298180D02*
X13099940Y-10257680D01*
X13319760Y-10477500D02*
X13550900Y-10477500D01*
X13099940Y-10257680D02*
X13319760Y-10477500D01*
D31*
X16629634Y-6140450D02*
X16629634Y-6495034D01*
X17129760Y-6995160D02*
X17129760Y-8869680D01*
X16629634Y-6495034D02*
X17129760Y-6995160D01*
D30*
X17133824Y-9239500D02*
X17133824Y-9061196D01*
X17133824Y-9061196D02*
X17325340Y-8869680D01*
X16471900Y-9189500D02*
X16471900Y-8981440D01*
X17741900Y-8961120D02*
X17741900Y-9189500D01*
X17650460Y-8869680D02*
X17741900Y-8961120D01*
X16583660Y-8869680D02*
X17129760Y-8869680D01*
X17129760Y-8869680D02*
X17325340Y-8869680D01*
X17325340Y-8869680D02*
X17650460Y-8869680D01*
X16471900Y-8981440D02*
X16583660Y-8869680D01*
X17260824Y-10192000D02*
X17260824Y-10044176D01*
X17741900Y-9563100D02*
X17741900Y-9474500D01*
X17260824Y-10044176D02*
X17741900Y-9563100D01*
X17741900Y-9474500D02*
X17741900Y-9479500D01*
X16662400Y-10142000D02*
X17210824Y-10142000D01*
X17210824Y-10142000D02*
X17260824Y-10192000D01*
X15476220Y-10286780D02*
X16078420Y-10286780D01*
X16223200Y-10142000D02*
X16662400Y-10142000D01*
X16078420Y-10286780D02*
X16223200Y-10142000D01*
X13550900Y-10477500D02*
X13995400Y-10477500D01*
X14094680Y-10576780D02*
X15476220Y-10576780D01*
X13995400Y-10477500D02*
X14094680Y-10576780D01*
X10452100Y-10087610D02*
X10041890Y-10087610D01*
X10041890Y-10087610D02*
X9882090Y-10087610D01*
X9882090Y-10087610D02*
X9885900Y-10087610D01*
X9885900Y-10087610D02*
X9877010Y-10096500D01*
D31*
X9730960Y-11323320D02*
X10487660Y-11323320D01*
X10487660Y-11323320D02*
X10493248Y-11323320D01*
X10493248Y-11323320D02*
X10496804Y-11319764D01*
X10496804Y-11319764D02*
X10657840Y-11480800D01*
X10657840Y-11480800D02*
X11049000Y-11480800D01*
X9946640Y-8839200D02*
X9960356Y-8852916D01*
D30*
X15615700Y-8445500D02*
X14815940Y-8445500D01*
X14815940Y-8445500D02*
X14813400Y-8442960D01*
D31*
X18104900Y-9334500D02*
X18104900Y-9482870D01*
X18920460Y-9643110D02*
X18920460Y-9811004D01*
X18840450Y-9563100D02*
X18920460Y-9643110D01*
X18185130Y-9563100D02*
X18840450Y-9563100D01*
X18104900Y-9482870D02*
X18185130Y-9563100D01*
X18104900Y-9334500D02*
X17333722Y-9334500D01*
X18104900Y-10481310D02*
X18104900Y-10325066D01*
X19174460Y-10222230D02*
X19174460Y-9811004D01*
X19066002Y-10330688D02*
X19174460Y-10222230D01*
X18635726Y-10330688D02*
X19066002Y-10330688D01*
X18563082Y-10258044D02*
X18635726Y-10330688D01*
X18171922Y-10258044D02*
X18563082Y-10258044D01*
X18104900Y-10325066D02*
X18171922Y-10258044D01*
D30*
X17460722Y-10287000D02*
X17670780Y-10287000D01*
X17865090Y-10481310D02*
X18104900Y-10481310D01*
X17670780Y-10287000D02*
X17865090Y-10481310D01*
X15875000Y-6911120D02*
X15875000Y-6137910D01*
X15875000Y-6137910D02*
X15868650Y-6131560D01*
X9764988Y-12747666D02*
X11114110Y-12747666D01*
X11765280Y-11501120D02*
X12026900Y-11239500D01*
X11765280Y-12096496D02*
X11765280Y-11501120D01*
X11114110Y-12747666D02*
X11765280Y-12096496D01*
X12026900Y-11239500D02*
X12014200Y-11239500D01*
X12026900Y-10985500D02*
X11892280Y-10985500D01*
X10911164Y-12544466D02*
X9764988Y-12544466D01*
X11536680Y-11918950D02*
X10911164Y-12544466D01*
X11536680Y-11341100D02*
X11536680Y-11918950D01*
X11892280Y-10985500D02*
X11536680Y-11341100D01*
X12014200Y-10998200D02*
X12026900Y-10985500D01*
X11049000Y-10718800D02*
X10359864Y-10718800D01*
X10359864Y-10718800D02*
X10351228Y-10727436D01*
X9601420Y-9580880D02*
X10450830Y-9580880D01*
X10450830Y-9580880D02*
X10452100Y-9579610D01*
X10444480Y-9571990D02*
X10452100Y-9579610D01*
D31*
X19428460Y-9811004D02*
X19428460Y-10535412D01*
X19179540Y-10784332D02*
X19179540Y-11094500D01*
X19428460Y-10535412D02*
X19179540Y-10784332D01*
D30*
X19202400Y-11071640D02*
X19179540Y-11094500D01*
X10220960Y-6249890D02*
X10220960Y-6629400D01*
X10151110Y-6699250D02*
X10151110Y-7082790D01*
X10220960Y-6629400D02*
X10151110Y-6699250D01*
D31*
X11479530Y-8910100D02*
X11014740Y-8910100D01*
X11014740Y-8910100D02*
X11004804Y-8900164D01*
X9788110Y-8042910D02*
X10594340Y-8042910D01*
X11004804Y-8453374D02*
X11004804Y-8710164D01*
X10594340Y-8042910D02*
X11004804Y-8453374D01*
X10804906Y-8805164D02*
X10457976Y-8805164D01*
X10457976Y-8805164D02*
X10440924Y-8822216D01*
D30*
X15973040Y-7873746D02*
X15973040Y-8378160D01*
X15973040Y-8378160D02*
X15905700Y-8445500D01*
X16163040Y-7873746D02*
X16976298Y-7873746D01*
X16976298Y-7873746D02*
X16993824Y-7856220D01*
X16993824Y-7856220D02*
X16988570Y-7856220D01*
X15875000Y-7201120D02*
X15875000Y-7480808D01*
X15875000Y-7480808D02*
X16068040Y-7673848D01*
X15873476Y-7202644D02*
X15875000Y-7201120D01*
D31*
X18666460Y-9811004D02*
X18666460Y-10051288D01*
X18800860Y-10185688D02*
X18898362Y-10185688D01*
X18666460Y-10051288D02*
X18800860Y-10185688D01*
X16972060Y-8511540D02*
X16449040Y-8511540D01*
X14320266Y-6710426D02*
X14320266Y-6250940D01*
X14658340Y-7048500D02*
X14320266Y-6710426D01*
X14658340Y-8747760D02*
X14658340Y-7048500D01*
X15046960Y-9136380D02*
X14658340Y-8747760D01*
X15824200Y-9136380D02*
X15046960Y-9136380D01*
X16449040Y-8511540D02*
X15824200Y-9136380D01*
D30*
X12578080Y-13149580D02*
X13835600Y-13149580D01*
X13835600Y-13149580D02*
X14853920Y-12131260D01*
X9764988Y-13001666D02*
X10182266Y-13001666D01*
X8991600Y-11772680D02*
X9440960Y-11323320D01*
X8991600Y-13335000D02*
X8991600Y-11772680D01*
X9461500Y-13804900D02*
X8991600Y-13335000D01*
X10071100Y-13804900D02*
X9461500Y-13804900D01*
X10363200Y-13512800D02*
X10071100Y-13804900D01*
X10363200Y-13182600D02*
X10363200Y-13512800D01*
X10182266Y-13001666D02*
X10363200Y-13182600D01*
D31*
X11635740Y-7206200D02*
X11635740Y-8023860D01*
X12225020Y-8699500D02*
X12026900Y-8699500D01*
X12334240Y-8590280D02*
X12225020Y-8699500D01*
X12334240Y-8356600D02*
X12334240Y-8590280D01*
X12169140Y-8191500D02*
X12334240Y-8356600D01*
X11803380Y-8191500D02*
X12169140Y-8191500D01*
X11635740Y-8023860D02*
X11803380Y-8191500D01*
X13416500Y-7762240D02*
X13581380Y-7762240D01*
X13401040Y-8699500D02*
X13550900Y-8699500D01*
X13304520Y-8602980D02*
X13401040Y-8699500D01*
X13304520Y-8298180D02*
X13304520Y-8602980D01*
X13467080Y-8135620D02*
X13304520Y-8298180D01*
X13578840Y-8135620D02*
X13467080Y-8135620D01*
X13685520Y-8028940D02*
X13578840Y-8135620D01*
X13685520Y-7866380D02*
X13685520Y-8028940D01*
X13581380Y-7762240D02*
X13685520Y-7866380D01*
M02*
