G04 #@! TF.FileFunction,Copper,L1,Top,Signal*
%FSLAX45Y45*%
G04 Gerber Fmt 4.5, Leading zero omitted, Abs format (unit mm)*
G04 Created by KiCad (PCBNEW 4.0.1-stable) date Wednesday, December 14, 2016 'AMt' 12:06:03 AM*
%MOMM*%
G01*
G04 APERTURE LIST*
%ADD10C,0.100000*%
%ADD11C,1.524000*%
%ADD12R,2.032000X1.727200*%
%ADD13O,2.032000X1.727200*%
%ADD14R,1.727200X2.032000*%
%ADD15O,1.727200X2.032000*%
%ADD16R,1.727200X1.727200*%
%ADD17O,1.727200X1.727200*%
%ADD18C,1.501140*%
%ADD19C,2.999740*%
%ADD20R,1.700000X0.900000*%
%ADD21R,0.900000X1.700000*%
%ADD22R,2.032000X2.032000*%
%ADD23O,2.032000X2.032000*%
%ADD24R,0.800100X0.800100*%
%ADD25C,1.600200*%
%ADD26R,1.000000X2.500000*%
%ADD27C,1.727200*%
%ADD28C,2.700020*%
%ADD29C,0.300000*%
%ADD30C,0.600000*%
G04 APERTURE END LIST*
D10*
D11*
X9525000Y-12065000D03*
X9779000Y-12065000D03*
X10033000Y-12065000D03*
X10287000Y-12065000D03*
X10541000Y-12065000D03*
X10795000Y-12065000D03*
X9398000Y-11811000D03*
X9398000Y-11557000D03*
X9398000Y-11303000D03*
X9398000Y-11049000D03*
X9398000Y-10795000D03*
X9398000Y-10541000D03*
X9398000Y-10287000D03*
X9398000Y-10033000D03*
X9398000Y-9779000D03*
X9398000Y-9525000D03*
X9398000Y-9271000D03*
X9398000Y-9017000D03*
X10922000Y-11811000D03*
X10922000Y-11557000D03*
X10922000Y-11303000D03*
X10922000Y-11049000D03*
X10922000Y-10795000D03*
X10922000Y-10541000D03*
X10922000Y-10287000D03*
X10922000Y-10033000D03*
X10922000Y-9779000D03*
X10922000Y-9525000D03*
X10922000Y-9271000D03*
X10922000Y-9017000D03*
D12*
X8420100Y-12052300D03*
D13*
X8420100Y-11798300D03*
X8420100Y-11544300D03*
X8420100Y-11290300D03*
D12*
X7823200Y-10659110D03*
D13*
X7823200Y-10405110D03*
X7823200Y-10151110D03*
D14*
X16037560Y-10382504D03*
D15*
X16291560Y-10382504D03*
X16545560Y-10382504D03*
X16799560Y-10382504D03*
D14*
X7014210Y-7654290D03*
D15*
X7268210Y-7654290D03*
X7522210Y-7654290D03*
X7776210Y-7654290D03*
X8030210Y-7654290D03*
D16*
X9779000Y-7874000D03*
D17*
X9779000Y-7620000D03*
X10033000Y-7874000D03*
X10033000Y-7620000D03*
X10287000Y-7874000D03*
X10287000Y-7620000D03*
X10541000Y-7874000D03*
X10541000Y-7620000D03*
D18*
X7366212Y-13792286D03*
X7366212Y-13538286D03*
X7366212Y-13335086D03*
X7366212Y-13081086D03*
D19*
X7099512Y-14097086D03*
X7099512Y-12725486D03*
D20*
X7812024Y-9393716D03*
X7812024Y-9683716D03*
X13246100Y-7772620D03*
X13246100Y-7482620D03*
X8850630Y-9481600D03*
X8850630Y-9771600D03*
D21*
X12986800Y-9017000D03*
X13276800Y-9017000D03*
D22*
X7331456Y-9678416D03*
D23*
X7331456Y-9424416D03*
D20*
X15113000Y-10051000D03*
X15113000Y-9761000D03*
X14033500Y-10713500D03*
X14033500Y-11003500D03*
D21*
X15766000Y-11052810D03*
X15476000Y-11052810D03*
D20*
X8522970Y-13480000D03*
X8522970Y-13190000D03*
X12847320Y-10858280D03*
X12847320Y-11148280D03*
D21*
X12171900Y-9017000D03*
X11881900Y-9017000D03*
X6877270Y-9410700D03*
X6587270Y-9410700D03*
D20*
X10419080Y-6291360D03*
X10419080Y-6581360D03*
D21*
X6958110Y-10668000D03*
X7248110Y-10668000D03*
X7551200Y-12065000D03*
X7841200Y-12065000D03*
D20*
X13843000Y-9761000D03*
X13843000Y-10051000D03*
D21*
X15766000Y-9906000D03*
X15476000Y-9906000D03*
D24*
X14504924Y-9811000D03*
X14504924Y-10001000D03*
X14704822Y-9906000D03*
X14631924Y-10763500D03*
X14631924Y-10953500D03*
X14831822Y-10858500D03*
D25*
X13557250Y-6703060D03*
X13239750Y-6703060D03*
D26*
X10232500Y-8382000D03*
X10722500Y-8382000D03*
D21*
X9416000Y-7874000D03*
X9126000Y-7874000D03*
X9126000Y-7556500D03*
X9416000Y-7556500D03*
D20*
X7592060Y-6821390D03*
X7592060Y-6531390D03*
D21*
X16875980Y-7772400D03*
X16585980Y-7772400D03*
D20*
X16550640Y-11666000D03*
X16550640Y-11956000D03*
D21*
X6972520Y-10152380D03*
X6682520Y-10152380D03*
D20*
X8458200Y-6825200D03*
X8458200Y-6535200D03*
D21*
X7677370Y-11300460D03*
X7387370Y-11300460D03*
X6869210Y-8614410D03*
X7159210Y-8614410D03*
X14649670Y-8427720D03*
X14359670Y-8427720D03*
D24*
X8375904Y-9471664D03*
X8375904Y-9281664D03*
X8176006Y-9376664D03*
X13344140Y-8445246D03*
X13534140Y-8445246D03*
X13439140Y-8245348D03*
D20*
X16269462Y-10757188D03*
X16269462Y-11047188D03*
D10*
G36*
X9953719Y-7018637D02*
X10064741Y-7150948D01*
X9909081Y-7281563D01*
X9798059Y-7149252D01*
X9953719Y-7018637D01*
X9953719Y-7018637D01*
G37*
D27*
X9779806Y-6945729D02*
X9756457Y-6965321D01*
X9616538Y-6751153D02*
X9593189Y-6770745D01*
X9453270Y-6556578D02*
X9429921Y-6576170D01*
D10*
G36*
X11861388Y-14121342D02*
X11867416Y-13948727D01*
X12070492Y-13955818D01*
X12064464Y-14128433D01*
X11861388Y-14121342D01*
X11861388Y-14121342D01*
G37*
D27*
X11941845Y-14291893D02*
X11972306Y-14292957D01*
X11932980Y-14545739D02*
X11963442Y-14546802D01*
X11924116Y-14799584D02*
X11954577Y-14800648D01*
D21*
X14343160Y-9083040D03*
X14633160Y-9083040D03*
D20*
X12225020Y-12702760D03*
X12225020Y-12412760D03*
X11140440Y-6721060D03*
X11140440Y-6431060D03*
D11*
X16530320Y-6832600D03*
X16276320Y-6832600D03*
X16276320Y-6632702D03*
X16530320Y-6632702D03*
D28*
X17003268Y-6362700D03*
X15803372Y-6362700D03*
D29*
X16276320Y-6832600D02*
X16276320Y-7039610D01*
D30*
X16733434Y-9424584D02*
X16767175Y-9458325D01*
D29*
X16733434Y-7496724D02*
X16733434Y-9424584D01*
X16276320Y-7039610D02*
X16733434Y-7496724D01*
X12225020Y-12412760D02*
X12225020Y-12090908D01*
X12225020Y-12090908D02*
X11945112Y-11811000D01*
X14633160Y-9083040D02*
X15590520Y-9083040D01*
X15590520Y-9083040D02*
X15968980Y-9461500D01*
X16269462Y-11047188D02*
X15771622Y-11047188D01*
X15771622Y-11047188D02*
X15766000Y-11052810D01*
X16059150Y-11811000D02*
X16059150Y-11345960D01*
X16059150Y-11345960D02*
X15766000Y-11052810D01*
D30*
X16767175Y-9458325D02*
X16770350Y-9461500D01*
X15766000Y-9906000D02*
X15766000Y-9634000D01*
X15938500Y-9461500D02*
X15968980Y-9461500D01*
X15968980Y-9461500D02*
X16770350Y-9461500D01*
X15766000Y-9634000D02*
X15938500Y-9461500D01*
X16065500Y-11811000D02*
X16059150Y-11811000D01*
X16059150Y-11811000D02*
X11945112Y-11811000D01*
X11945112Y-11811000D02*
X10922000Y-11811000D01*
X17144914Y-10336444D02*
X17144914Y-11684086D01*
X17144914Y-11684086D02*
X17018000Y-11811000D01*
D29*
X17018000Y-11811000D02*
X16065500Y-11811000D01*
D30*
X16767175Y-9458325D02*
X16979265Y-9458325D01*
X17139920Y-9814560D02*
X17144914Y-9814560D01*
X17139920Y-9618980D02*
X17139920Y-9814560D01*
X16979265Y-9458325D02*
X17139920Y-9618980D01*
X17144914Y-10033000D02*
X17145000Y-10033000D01*
X17145000Y-10033000D02*
X17144914Y-10033000D01*
X17144914Y-9779086D02*
X17144914Y-9814560D01*
X17144914Y-9814560D02*
X17144914Y-10033000D01*
X17144914Y-10033000D02*
X17144914Y-10336444D01*
D29*
X9398000Y-10541000D02*
X9374632Y-10541000D01*
X9374632Y-10541000D02*
X9074912Y-10840720D01*
X9074912Y-10840720D02*
X9074912Y-11276584D01*
X9074912Y-11276584D02*
X8553196Y-11798300D01*
X8553196Y-11798300D02*
X8420100Y-11798300D01*
X8420100Y-11544300D02*
X8533384Y-11544300D01*
X8901684Y-10783316D02*
X9398000Y-10287000D01*
X8901684Y-11176000D02*
X8901684Y-10783316D01*
X8533384Y-11544300D02*
X8901684Y-11176000D01*
D30*
X7387370Y-11300460D02*
X7062470Y-11300460D01*
X6303010Y-10541000D02*
X6303010Y-9983470D01*
X7062470Y-11300460D02*
X6303010Y-10541000D01*
X6682520Y-10152380D02*
X6471920Y-10152380D01*
X6303010Y-9180610D02*
X6869210Y-8614410D01*
X6303010Y-9983470D02*
X6303010Y-9180610D01*
X6471920Y-10152380D02*
X6303010Y-9983470D01*
X7366212Y-13792286D02*
X9597304Y-13792286D01*
X9597304Y-13792286D02*
X9823450Y-13566140D01*
X7592060Y-6531390D02*
X7038120Y-6531390D01*
X6869210Y-8256050D02*
X6869210Y-8614410D01*
X6658610Y-8045450D02*
X6869210Y-8256050D01*
X6658610Y-6910900D02*
X6658610Y-8045450D01*
X7038120Y-6531390D02*
X6658610Y-6910900D01*
D29*
X8458200Y-6535200D02*
X7595870Y-6535200D01*
X7595870Y-6535200D02*
X7592060Y-6531390D01*
D30*
X8458200Y-6535200D02*
X8458200Y-6263640D01*
X8458200Y-6263640D02*
X8874760Y-5847080D01*
X16276320Y-6632702D02*
X16081248Y-6632702D01*
X16002000Y-7188420D02*
X16585980Y-7772400D01*
X16002000Y-6711950D02*
X16002000Y-7188420D01*
X16081248Y-6632702D02*
X16002000Y-6711950D01*
D29*
X11939347Y-14800116D02*
X11057426Y-14800116D01*
X9823450Y-13566140D02*
X9823450Y-12557760D01*
X11057426Y-14800116D02*
X9823450Y-13566140D01*
X11140440Y-6431060D02*
X11224480Y-6431060D01*
X11224480Y-6431060D02*
X11808460Y-5847080D01*
D30*
X14649670Y-8427720D02*
X15260320Y-8427720D01*
X15260320Y-8427720D02*
X15915640Y-7772400D01*
X16550640Y-11956000D02*
X16550640Y-12529820D01*
X16550640Y-12529820D02*
X16578580Y-12557760D01*
X16875980Y-7772400D02*
X17078960Y-7772400D01*
X9525000Y-12410440D02*
X9525000Y-12065000D01*
X9672320Y-12557760D02*
X9525000Y-12410440D01*
X17089120Y-12557760D02*
X16578580Y-12557760D01*
X16578580Y-12557760D02*
X9823450Y-12557760D01*
X9823450Y-12557760D02*
X9672320Y-12557760D01*
X17312640Y-12090400D02*
X17089120Y-12557760D01*
X17312640Y-8249920D02*
X17312640Y-12090400D01*
X17078960Y-7772400D02*
X17312640Y-8249920D01*
X16585980Y-7772400D02*
X15915640Y-7772400D01*
X13990320Y-5847080D02*
X11808460Y-5847080D01*
X11808460Y-5847080D02*
X8874760Y-5847080D01*
X15915640Y-7772400D02*
X13990320Y-5847080D01*
X16873434Y-7772400D02*
X16875980Y-7772400D01*
X10922000Y-9017000D02*
X11881900Y-9017000D01*
X9398000Y-10033000D02*
X8644890Y-10033000D01*
X8294370Y-10383520D02*
X7844790Y-10383520D01*
X8644890Y-10033000D02*
X8294370Y-10383520D01*
X7844790Y-10383520D02*
X7823200Y-10405110D01*
X8030210Y-7654290D02*
X8030210Y-7967980D01*
X9079230Y-9017000D02*
X9398000Y-9017000D01*
X8030210Y-7967980D02*
X9079230Y-9017000D01*
X10232500Y-8382000D02*
X10232500Y-10532000D01*
X9969500Y-10795000D02*
X9398000Y-10795000D01*
X10232500Y-10532000D02*
X9969500Y-10795000D01*
D29*
X10541000Y-7874000D02*
X10541000Y-9334500D01*
X10541000Y-9334500D02*
X10731500Y-9525000D01*
X10731500Y-9525000D02*
X10922000Y-9525000D01*
D30*
X10287000Y-7620000D02*
X10287000Y-7366000D01*
X10795000Y-9271000D02*
X10922000Y-9271000D01*
X10668000Y-9144000D02*
X10795000Y-9271000D01*
X10668000Y-8953500D02*
X10668000Y-9144000D01*
X11112500Y-8509000D02*
X10668000Y-8953500D01*
X11112500Y-7493000D02*
X11112500Y-8509000D01*
X10858500Y-7239000D02*
X11112500Y-7493000D01*
X10414000Y-7239000D02*
X10858500Y-7239000D01*
X10287000Y-7366000D02*
X10414000Y-7239000D01*
D29*
X10287000Y-7874000D02*
X10287000Y-8001000D01*
X10668000Y-9779000D02*
X10922000Y-9779000D01*
X10414000Y-9525000D02*
X10668000Y-9779000D01*
X10414000Y-8128000D02*
X10414000Y-9525000D01*
X10287000Y-8001000D02*
X10414000Y-8128000D01*
X10033000Y-7620000D02*
X10033000Y-7446264D01*
X9639300Y-9271000D02*
X9398000Y-9271000D01*
X9745980Y-9164320D02*
X9639300Y-9271000D01*
X9745980Y-8773668D02*
X9745980Y-9164320D01*
X9270492Y-8298180D02*
X9745980Y-8773668D01*
X9270492Y-7264400D02*
X9270492Y-8298180D01*
X9320784Y-7214108D02*
X9270492Y-7264400D01*
X9516364Y-7214108D02*
X9320784Y-7214108D01*
X9733756Y-7431500D02*
X9516364Y-7214108D01*
X10018236Y-7431500D02*
X9733756Y-7431500D01*
X10033000Y-7446264D02*
X10018236Y-7431500D01*
D30*
X10033000Y-7874000D02*
X10033000Y-9271000D01*
X9779000Y-9525000D02*
X9398000Y-9525000D01*
X10033000Y-9271000D02*
X9779000Y-9525000D01*
D29*
X7812024Y-9683716D02*
X7336756Y-9683716D01*
X7336756Y-9683716D02*
X7331456Y-9678416D01*
X9398000Y-9779000D02*
X8858030Y-9779000D01*
X8858030Y-9779000D02*
X8850630Y-9771600D01*
X14033500Y-11003500D02*
X12083000Y-11003500D01*
D30*
X11366500Y-10287000D02*
X10922000Y-10287000D01*
X12083000Y-11003500D02*
X11366500Y-10287000D01*
X14631924Y-10953500D02*
X14083500Y-10953500D01*
X14083500Y-10953500D02*
X14033500Y-11003500D01*
X13843000Y-10051000D02*
X14454924Y-10051000D01*
X14454924Y-10051000D02*
X14504924Y-10001000D01*
X13843000Y-10051000D02*
X10940000Y-10051000D01*
X10940000Y-10051000D02*
X10922000Y-10033000D01*
D29*
X10419080Y-6581360D02*
X10042940Y-6581360D01*
X9126000Y-6333710D02*
X9126000Y-7556500D01*
X9245600Y-6214110D02*
X9126000Y-6333710D01*
X9675690Y-6214110D02*
X9245600Y-6214110D01*
X10042940Y-6581360D02*
X9675690Y-6214110D01*
X13557250Y-6703060D02*
X13557250Y-6214110D01*
X11358660Y-6581360D02*
X10419080Y-6581360D01*
X11765280Y-6174740D02*
X11358660Y-6581360D01*
X13517880Y-6174740D02*
X11765280Y-6174740D01*
X13557250Y-6214110D02*
X13517880Y-6174740D01*
D30*
X9115010Y-7545510D02*
X9126000Y-7556500D01*
D29*
X14504924Y-9485630D02*
X14504924Y-6992874D01*
D30*
X14215110Y-6703060D02*
X13557250Y-6703060D01*
X14504924Y-6992874D02*
X14215110Y-6703060D01*
X14504924Y-9811000D02*
X14504924Y-9485630D01*
X14504924Y-9485630D02*
X14504924Y-9482836D01*
X14504924Y-9482836D02*
X14518640Y-9469120D01*
X15113000Y-9761000D02*
X15113000Y-9537700D01*
X14134880Y-9469120D02*
X13843000Y-9761000D01*
X15044420Y-9469120D02*
X14518640Y-9469120D01*
X14518640Y-9469120D02*
X14134880Y-9469120D01*
X15113000Y-9537700D02*
X15044420Y-9469120D01*
X14631924Y-10763500D02*
X14631924Y-10615676D01*
X15113000Y-10134600D02*
X15113000Y-10046000D01*
X14631924Y-10615676D02*
X15113000Y-10134600D01*
X15113000Y-10046000D02*
X15113000Y-10051000D01*
X14033500Y-10713500D02*
X14581924Y-10713500D01*
X14581924Y-10713500D02*
X14631924Y-10763500D01*
X12847320Y-10858280D02*
X13449520Y-10858280D01*
X13594300Y-10713500D02*
X14033500Y-10713500D01*
X13449520Y-10858280D02*
X13594300Y-10713500D01*
X10922000Y-11049000D02*
X11366500Y-11049000D01*
X11465780Y-11148280D02*
X12847320Y-11148280D01*
X11366500Y-11049000D02*
X11465780Y-11148280D01*
X7366212Y-13538286D02*
X8464684Y-13538286D01*
X8464684Y-13538286D02*
X8522970Y-13480000D01*
X12171900Y-9017000D02*
X12986800Y-9017000D01*
D29*
X8420100Y-12052300D02*
X7853900Y-12052300D01*
X7853900Y-12052300D02*
X7841200Y-12065000D01*
D30*
X7823200Y-10659110D02*
X7257000Y-10659110D01*
X7257000Y-10659110D02*
X7248110Y-10668000D01*
D29*
X6958110Y-10668000D02*
X6958110Y-10890030D01*
X7536180Y-11079480D02*
X7536180Y-12049980D01*
X7440930Y-10984230D02*
X7536180Y-11079480D01*
X7052310Y-10984230D02*
X7440930Y-10984230D01*
X6958110Y-10890030D02*
X7052310Y-10984230D01*
X7536180Y-12049980D02*
X7551200Y-12065000D01*
X6587270Y-9410700D02*
X6587270Y-9599202D01*
X6822948Y-10532838D02*
X6958110Y-10668000D01*
X6822948Y-9834880D02*
X6822948Y-10532838D01*
X6587270Y-9599202D02*
X6822948Y-9834880D01*
D30*
X7551200Y-12065000D02*
X7551200Y-12896098D01*
X7551200Y-12896098D02*
X7366212Y-13081086D01*
D29*
X7014210Y-7654290D02*
X7014210Y-8906002D01*
X6577364Y-9147268D02*
X6577364Y-9382252D01*
X6638544Y-9086088D02*
X6577364Y-9147268D01*
X6834124Y-9086088D02*
X6638544Y-9086088D01*
X7014210Y-8906002D02*
X6834124Y-9086088D01*
X10419080Y-6291360D02*
X9980710Y-6291360D01*
X7014210Y-6934200D02*
X7014210Y-7654290D01*
X7272020Y-6676390D02*
X7014210Y-6934200D01*
X8667750Y-6676390D02*
X7272020Y-6676390D01*
X8854440Y-6489700D02*
X8667750Y-6676390D01*
X8854440Y-6267450D02*
X8854440Y-6489700D01*
X9067800Y-6054090D02*
X8854440Y-6267450D01*
X9743440Y-6054090D02*
X9067800Y-6054090D01*
X9980710Y-6291360D02*
X9743440Y-6054090D01*
X6877270Y-9410700D02*
X7317740Y-9410700D01*
X7317740Y-9410700D02*
X7331456Y-9424416D01*
X6909528Y-9424416D02*
X6867364Y-9382252D01*
X15476000Y-9906000D02*
X15476000Y-10054370D01*
X16291560Y-10214610D02*
X16291560Y-10382504D01*
X16211550Y-10134600D02*
X16291560Y-10214610D01*
X15556230Y-10134600D02*
X16211550Y-10134600D01*
X15476000Y-10054370D02*
X15556230Y-10134600D01*
X15476000Y-9906000D02*
X14704822Y-9906000D01*
X15476000Y-11052810D02*
X15476000Y-10896566D01*
X16545560Y-10793730D02*
X16545560Y-10382504D01*
X16437102Y-10902188D02*
X16545560Y-10793730D01*
X16006826Y-10902188D02*
X16437102Y-10902188D01*
X15934182Y-10829544D02*
X16006826Y-10902188D01*
X15543022Y-10829544D02*
X15934182Y-10829544D01*
X15476000Y-10896566D02*
X15543022Y-10829544D01*
D30*
X14831822Y-10858500D02*
X15041880Y-10858500D01*
X15236190Y-11052810D02*
X15476000Y-11052810D01*
X15041880Y-10858500D02*
X15236190Y-11052810D01*
X13246100Y-7482620D02*
X13246100Y-6709410D01*
X13246100Y-6709410D02*
X13239750Y-6703060D01*
X9398000Y-11811000D02*
X9385300Y-11811000D01*
X9385300Y-11811000D02*
X8953500Y-12242800D01*
X8953500Y-12242800D02*
X8953500Y-13131800D01*
X8953500Y-13131800D02*
X8750214Y-13335086D01*
D29*
X8750214Y-13335086D02*
X7366212Y-13335086D01*
X8522970Y-13190000D02*
X8522970Y-12466320D01*
X9210040Y-11557000D02*
X9398000Y-11557000D01*
X8854440Y-11912600D02*
X9210040Y-11557000D01*
X8854440Y-12134850D02*
X8854440Y-11912600D01*
X8522970Y-12466320D02*
X8854440Y-12134850D01*
D30*
X9385300Y-11569700D02*
X9398000Y-11557000D01*
X10541000Y-7620000D02*
X10795000Y-7620000D01*
X10795000Y-8382000D02*
X10722500Y-8382000D01*
X10922000Y-8255000D02*
X10795000Y-8382000D01*
X10922000Y-7747000D02*
X10922000Y-8255000D01*
X10795000Y-7620000D02*
X10922000Y-7747000D01*
X9779000Y-7874000D02*
X9416000Y-7874000D01*
X9779000Y-7620000D02*
X9652000Y-7620000D01*
X9588500Y-7556500D02*
X9416000Y-7556500D01*
X9652000Y-7620000D02*
X9588500Y-7556500D01*
X8420100Y-11290300D02*
X7730964Y-11290300D01*
X7730964Y-11290300D02*
X7722328Y-11298936D01*
X6972520Y-10152380D02*
X7821930Y-10152380D01*
X7821930Y-10152380D02*
X7823200Y-10151110D01*
X7815580Y-10143490D02*
X7823200Y-10151110D01*
D29*
X16799560Y-10382504D02*
X16799560Y-11106912D01*
X16550640Y-11355832D02*
X16550640Y-11666000D01*
X16799560Y-11106912D02*
X16550640Y-11355832D01*
D30*
X16573500Y-11643140D02*
X16550640Y-11666000D01*
X7592060Y-6821390D02*
X7592060Y-7200900D01*
X7522210Y-7270750D02*
X7522210Y-7654290D01*
X7592060Y-7200900D02*
X7522210Y-7270750D01*
X9126000Y-7874000D02*
X8801608Y-7874000D01*
X8458200Y-7530592D02*
X8458200Y-6825200D01*
X8801608Y-7874000D02*
X8458200Y-7530592D01*
D29*
X8850630Y-9481600D02*
X8385840Y-9481600D01*
X8385840Y-9481600D02*
X8375904Y-9471664D01*
X7159210Y-8614410D02*
X7965440Y-8614410D01*
X8375904Y-9024874D02*
X8375904Y-9281664D01*
X7965440Y-8614410D02*
X8375904Y-9024874D01*
X8176006Y-9376664D02*
X7829076Y-9376664D01*
X7829076Y-9376664D02*
X7812024Y-9393716D01*
D30*
X13344140Y-8445246D02*
X13344140Y-8949660D01*
X13344140Y-8949660D02*
X13276800Y-9017000D01*
X13534140Y-8445246D02*
X14347398Y-8445246D01*
X14347398Y-8445246D02*
X14364924Y-8427720D01*
X14364924Y-8427720D02*
X14359670Y-8427720D01*
X13246100Y-7772620D02*
X13246100Y-8052308D01*
X13246100Y-8052308D02*
X13439140Y-8245348D01*
X13244576Y-7774144D02*
X13246100Y-7772620D01*
D29*
X16037560Y-10382504D02*
X16037560Y-10622788D01*
X16171960Y-10757188D02*
X16269462Y-10757188D01*
X16037560Y-10622788D02*
X16171960Y-10757188D01*
X9931400Y-7150100D02*
X10069830Y-7150100D01*
X14013180Y-9083040D02*
X14343160Y-9083040D01*
X13601700Y-9494520D02*
X14013180Y-9083040D01*
X12259310Y-9494520D02*
X13601700Y-9494520D01*
X12028170Y-9263380D02*
X12259310Y-9494520D01*
X12028170Y-7805420D02*
X12028170Y-9263380D01*
X11165840Y-6943090D02*
X12028170Y-7805420D01*
X10276840Y-6943090D02*
X11165840Y-6943090D01*
X10069830Y-7150100D02*
X10276840Y-6943090D01*
X9441596Y-6566374D02*
X9827734Y-6566374D01*
X11053030Y-6808470D02*
X11140440Y-6721060D01*
X10069830Y-6808470D02*
X11053030Y-6808470D01*
X9827734Y-6566374D02*
X10069830Y-6808470D01*
X11965940Y-14038580D02*
X11965940Y-12961840D01*
X11965940Y-12961840D02*
X12225020Y-12702760D01*
M02*
