M48
;DRILL file {KiCad 4.0.1-stable} date Wednesday, December 14, 2016 'PMt' 06:44:48 PM
;FORMAT={-:-/ absolute / metric / decimal}
FMAT,2
METRIC,TZ
T1C0.813
T2C1.001
T3C1.016
T4C2.301
%
G90
G05
M71
T1
X188.57Y-60.79
X188.57Y-62.789
T2
X97.65Y-122.905
X97.65Y-125.445
X97.65Y-127.477
X97.65Y-130.017
X158.697Y-61.404
X166.296Y-61.404
T3
X96.431Y-70.828
X98.971Y-70.828
X99.604Y-88.529
X99.604Y-91.069
X101.511Y-70.828
X104.051Y-70.828
X104.521Y-95.796
X104.521Y-98.336
X104.521Y-100.876
X106.591Y-70.828
X110.556Y-107.198
X110.556Y-109.738
X110.556Y-112.278
X110.556Y-114.818
X120.269Y-84.455
X120.269Y-86.995
X120.269Y-89.535
X120.269Y-92.075
X120.269Y-94.615
X120.269Y-97.155
X120.269Y-99.695
X120.269Y-102.235
X120.269Y-104.775
X120.269Y-107.315
X120.269Y-109.855
X120.269Y-112.395
X121.41Y-137.738
X121.539Y-114.935
X122.867Y-135.657
X124.079Y-114.935
X124.206Y-70.599
X124.206Y-73.139
X124.324Y-133.576
X125.781Y-131.496
X126.619Y-114.935
X126.746Y-70.599
X126.746Y-73.139
X129.159Y-114.935
X129.286Y-70.599
X129.286Y-73.139
X131.699Y-114.935
X131.826Y-70.599
X131.826Y-73.139
X134.239Y-114.935
X135.509Y-84.455
X135.509Y-86.995
X135.509Y-89.535
X135.509Y-92.075
X135.509Y-94.615
X135.509Y-97.155
X135.509Y-99.695
X135.509Y-102.235
X135.509Y-104.775
X135.509Y-107.315
X135.509Y-109.855
X135.509Y-112.395
X142.539Y-54.918
X142.76Y-57.449
X142.981Y-59.979
X143.203Y-62.509
X186.665Y-98.11
X189.205Y-98.11
X191.745Y-98.11
X194.285Y-98.11
T4
X94.983Y-119.857
X94.983Y-133.573
X181.3Y-58.09
X193.299Y-58.09
T0
M30
