<?xml version="1.0" standalone="no"?>
 <!DOCTYPE svg PUBLIC "-//W3C//DTD SVG 1.1//EN" 
 "http://www.w3.org/Graphics/SVG/1.1/DTD/svg11.dtd"> 
<svg xmlns="http://www.w3.org/2000/svg" version="1.1" 
    width="29.7002cm" height="21.0007cm" viewBox="0 0 116930 82680 ">
<title>SVG Picture created as vest-F.SilkS.svg date 2016/12/13 19:04:19 </title>
  <desc>Picture generated by PCBNEW </desc>
<g style="fill:#000000; fill-opacity:1;stroke:#000000; stroke-opacity:1;
stroke-linecap:round; stroke-linejoin:round; "
 transform="translate(0 0) scale(1 1)">
</g>
<g style="fill:#000000; fill-opacity:0.0; 
stroke:#000000; stroke-width:-0.000393701; stroke-opacity:1; 
stroke-linecap:round; stroke-linejoin:round;">
</g>
<g style="fill:#000000; fill-opacity:0.0; 
stroke:#000000; stroke-width:39.3701; stroke-opacity:1; 
stroke-linecap:round; stroke-linejoin:round;">
</g>
<g style="fill:#000000; fill-opacity:0.0; 
stroke:#000000; stroke-width:59.0551; stroke-opacity:1; 
stroke-linecap:round; stroke-linejoin:round;">
<rect x="69685.9" y="65357.2" width="42519.7" height="12598.4" rx="0" />
</g>
<g style="fill:#000000; fill-opacity:0.0; 
stroke:#000000; stroke-width:39.3701; stroke-opacity:1; 
stroke-linecap:round; stroke-linejoin:round;">
</g>
<g style="fill:#000000; fill-opacity:0.0; 
stroke:#000000; stroke-width:59.0551; stroke-opacity:1; 
stroke-linecap:round; stroke-linejoin:round;">
<rect x="3937.01" y="3937.01" width="109056" height="74806" rx="0" />
</g>
<g style="fill:#000000; fill-opacity:0.0; 
stroke:#000000; stroke-width:39.3701; stroke-opacity:1; 
stroke-linecap:round; stroke-linejoin:round;">
</g>
<g style="fill:#000000; fill-opacity:0.0; 
stroke:#000000; stroke-width:59.0551; stroke-opacity:1; 
stroke-linecap:round; stroke-linejoin:round;">
<rect x="4724.41" y="4724.41" width="107481" height="73231.2" rx="0" />
</g>
<g style="fill:#000000; fill-opacity:0.0; 
stroke:#000000; stroke-width:39.3701; stroke-opacity:1; 
stroke-linecap:round; stroke-linejoin:round;">
</g>
<g style="fill:#000000; fill-opacity:0.0; 
stroke:#000000; stroke-width:59.0551; stroke-opacity:1; 
stroke-linecap:round; stroke-linejoin:round;">
<path d="M23622 4724
L23622 3937
" />
</g>
<g style="fill:#000000; fill-opacity:0.0; 
stroke:#000000; stroke-width:39.3701; stroke-opacity:1; 
stroke-linecap:round; stroke-linejoin:round;">
</g>
<g style="fill:#000000; fill-opacity:0.0; 
stroke:#000000; stroke-width:59.0551; stroke-opacity:1; 
stroke-linecap:round; stroke-linejoin:round;">
<path d="M43307 4724
L43307 3937
" />
</g>
<g style="fill:#000000; fill-opacity:0.0; 
stroke:#000000; stroke-width:39.3701; stroke-opacity:1; 
stroke-linecap:round; stroke-linejoin:round;">
</g>
<g style="fill:#000000; fill-opacity:0.0; 
stroke:#000000; stroke-width:59.0551; stroke-opacity:1; 
stroke-linecap:round; stroke-linejoin:round;">
<path d="M62992 4724
L62992 3937
" />
</g>
<g style="fill:#000000; fill-opacity:0.0; 
stroke:#000000; stroke-width:39.3701; stroke-opacity:1; 
stroke-linecap:round; stroke-linejoin:round;">
</g>
<g style="fill:#000000; fill-opacity:0.0; 
stroke:#000000; stroke-width:59.0551; stroke-opacity:1; 
stroke-linecap:round; stroke-linejoin:round;">
<path d="M82677 4724
L82677 3937
" />
</g>
<g style="fill:#000000; fill-opacity:0.0; 
stroke:#000000; stroke-width:39.3701; stroke-opacity:1; 
stroke-linecap:round; stroke-linejoin:round;">
</g>
<g style="fill:#000000; fill-opacity:0.0; 
stroke:#000000; stroke-width:59.0551; stroke-opacity:1; 
stroke-linecap:round; stroke-linejoin:round;">
<path d="M102362 4724
L102362 3937
" />
</g>
<g style="fill:#000000; fill-opacity:0.0; 
stroke:#000000; stroke-width:39.3701; stroke-opacity:1; 
stroke-linecap:round; stroke-linejoin:round;">
</g>
<g style="fill:#000000; fill-opacity:0.0; 
stroke:#000000; stroke-width:59.0551; stroke-opacity:1; 
stroke-linecap:round; stroke-linejoin:round;">
<path d="M14169 4562
L13877 4562
" />
<path d="M14023 4562
L14023 4050
L13974 4123
L13925 4172
L13877 4196
" />
</g>
<g style="fill:#000000; fill-opacity:0.0; 
stroke:#000000; stroke-width:39.3701; stroke-opacity:1; 
stroke-linecap:round; stroke-linejoin:round;">
</g>
<g style="fill:#000000; fill-opacity:0.0; 
stroke:#000000; stroke-width:59.0551; stroke-opacity:1; 
stroke-linecap:round; stroke-linejoin:round;">
<path d="M33562 4099
L33586 4074
L33635 4050
L33757 4050
L33805 4074
L33830 4099
L33854 4147
L33854 4196
L33830 4269
L33537 4562
L33854 4562
" />
</g>
<g style="fill:#000000; fill-opacity:0.0; 
stroke:#000000; stroke-width:39.3701; stroke-opacity:1; 
stroke-linecap:round; stroke-linejoin:round;">
</g>
<g style="fill:#000000; fill-opacity:0.0; 
stroke:#000000; stroke-width:59.0551; stroke-opacity:1; 
stroke-linecap:round; stroke-linejoin:round;">
<path d="M53222 4050
L53539 4050
L53368 4245
L53442 4245
L53490 4269
L53515 4294
L53539 4342
L53539 4464
L53515 4513
L53490 4537
L53442 4562
L53295 4562
L53247 4537
L53222 4513
" />
</g>
<g style="fill:#000000; fill-opacity:0.0; 
stroke:#000000; stroke-width:39.3701; stroke-opacity:1; 
stroke-linecap:round; stroke-linejoin:round;">
</g>
<g style="fill:#000000; fill-opacity:0.0; 
stroke:#000000; stroke-width:59.0551; stroke-opacity:1; 
stroke-linecap:round; stroke-linejoin:round;">
<path d="M73175 4221
L73175 4562
" />
<path d="M73053 4026
L72932 4391
L73248 4391
" />
</g>
<g style="fill:#000000; fill-opacity:0.0; 
stroke:#000000; stroke-width:39.3701; stroke-opacity:1; 
stroke-linecap:round; stroke-linejoin:round;">
</g>
<g style="fill:#000000; fill-opacity:0.0; 
stroke:#000000; stroke-width:59.0551; stroke-opacity:1; 
stroke-linecap:round; stroke-linejoin:round;">
<path d="M92885 4050
L92641 4050
L92617 4294
L92641 4269
L92690 4245
L92812 4245
L92860 4269
L92885 4294
L92909 4342
L92909 4464
L92885 4513
L92860 4537
L92812 4562
L92690 4562
L92641 4537
L92617 4513
" />
</g>
<g style="fill:#000000; fill-opacity:0.0; 
stroke:#000000; stroke-width:39.3701; stroke-opacity:1; 
stroke-linecap:round; stroke-linejoin:round;">
</g>
<g style="fill:#000000; fill-opacity:0.0; 
stroke:#000000; stroke-width:59.0551; stroke-opacity:1; 
stroke-linecap:round; stroke-linejoin:round;">
<path d="M112545 4050
L112448 4050
L112399 4074
L112375 4099
L112326 4172
L112302 4269
L112302 4464
L112326 4513
L112350 4537
L112399 4562
L112497 4562
L112545 4537
L112570 4513
L112594 4464
L112594 4342
L112570 4294
L112545 4269
L112497 4245
L112399 4245
L112350 4269
L112326 4294
L112302 4342
" />
</g>
<g style="fill:#000000; fill-opacity:0.0; 
stroke:#000000; stroke-width:39.3701; stroke-opacity:1; 
stroke-linecap:round; stroke-linejoin:round;">
</g>
<g style="fill:#000000; fill-opacity:0.0; 
stroke:#000000; stroke-width:59.0551; stroke-opacity:1; 
stroke-linecap:round; stroke-linejoin:round;">
<path d="M23622 77955
L23622 78742
" />
</g>
<g style="fill:#000000; fill-opacity:0.0; 
stroke:#000000; stroke-width:39.3701; stroke-opacity:1; 
stroke-linecap:round; stroke-linejoin:round;">
</g>
<g style="fill:#000000; fill-opacity:0.0; 
stroke:#000000; stroke-width:59.0551; stroke-opacity:1; 
stroke-linecap:round; stroke-linejoin:round;">
<path d="M43307 77955
L43307 78742
" />
</g>
<g style="fill:#000000; fill-opacity:0.0; 
stroke:#000000; stroke-width:39.3701; stroke-opacity:1; 
stroke-linecap:round; stroke-linejoin:round;">
</g>
<g style="fill:#000000; fill-opacity:0.0; 
stroke:#000000; stroke-width:59.0551; stroke-opacity:1; 
stroke-linecap:round; stroke-linejoin:round;">
<path d="M62992 77955
L62992 78742
" />
</g>
<g style="fill:#000000; fill-opacity:0.0; 
stroke:#000000; stroke-width:39.3701; stroke-opacity:1; 
stroke-linecap:round; stroke-linejoin:round;">
</g>
<g style="fill:#000000; fill-opacity:0.0; 
stroke:#000000; stroke-width:59.0551; stroke-opacity:1; 
stroke-linecap:round; stroke-linejoin:round;">
<path d="M82677 77955
L82677 78742
" />
</g>
<g style="fill:#000000; fill-opacity:0.0; 
stroke:#000000; stroke-width:39.3701; stroke-opacity:1; 
stroke-linecap:round; stroke-linejoin:round;">
</g>
<g style="fill:#000000; fill-opacity:0.0; 
stroke:#000000; stroke-width:59.0551; stroke-opacity:1; 
stroke-linecap:round; stroke-linejoin:round;">
<path d="M102362 77955
L102362 78742
" />
</g>
<g style="fill:#000000; fill-opacity:0.0; 
stroke:#000000; stroke-width:39.3701; stroke-opacity:1; 
stroke-linecap:round; stroke-linejoin:round;">
</g>
<g style="fill:#000000; fill-opacity:0.0; 
stroke:#000000; stroke-width:59.0551; stroke-opacity:1; 
stroke-linecap:round; stroke-linejoin:round;">
<path d="M14169 78580
L13877 78580
" />
<path d="M14023 78580
L14023 78069
L13974 78142
L13925 78190
L13877 78215
" />
</g>
<g style="fill:#000000; fill-opacity:0.0; 
stroke:#000000; stroke-width:39.3701; stroke-opacity:1; 
stroke-linecap:round; stroke-linejoin:round;">
</g>
<g style="fill:#000000; fill-opacity:0.0; 
stroke:#000000; stroke-width:59.0551; stroke-opacity:1; 
stroke-linecap:round; stroke-linejoin:round;">
<path d="M33562 78117
L33586 78093
L33635 78069
L33757 78069
L33805 78093
L33830 78117
L33854 78166
L33854 78215
L33830 78288
L33537 78580
L33854 78580
" />
</g>
<g style="fill:#000000; fill-opacity:0.0; 
stroke:#000000; stroke-width:39.3701; stroke-opacity:1; 
stroke-linecap:round; stroke-linejoin:round;">
</g>
<g style="fill:#000000; fill-opacity:0.0; 
stroke:#000000; stroke-width:59.0551; stroke-opacity:1; 
stroke-linecap:round; stroke-linejoin:round;">
<path d="M53222 78069
L53539 78069
L53368 78263
L53442 78263
L53490 78288
L53515 78312
L53539 78361
L53539 78483
L53515 78532
L53490 78556
L53442 78580
L53295 78580
L53247 78556
L53222 78532
" />
</g>
<g style="fill:#000000; fill-opacity:0.0; 
stroke:#000000; stroke-width:39.3701; stroke-opacity:1; 
stroke-linecap:round; stroke-linejoin:round;">
</g>
<g style="fill:#000000; fill-opacity:0.0; 
stroke:#000000; stroke-width:59.0551; stroke-opacity:1; 
stroke-linecap:round; stroke-linejoin:round;">
<path d="M73175 78239
L73175 78580
" />
<path d="M73053 78044
L72932 78410
L73248 78410
" />
</g>
<g style="fill:#000000; fill-opacity:0.0; 
stroke:#000000; stroke-width:39.3701; stroke-opacity:1; 
stroke-linecap:round; stroke-linejoin:round;">
</g>
<g style="fill:#000000; fill-opacity:0.0; 
stroke:#000000; stroke-width:59.0551; stroke-opacity:1; 
stroke-linecap:round; stroke-linejoin:round;">
<path d="M92885 78069
L92641 78069
L92617 78312
L92641 78288
L92690 78263
L92812 78263
L92860 78288
L92885 78312
L92909 78361
L92909 78483
L92885 78532
L92860 78556
L92812 78580
L92690 78580
L92641 78556
L92617 78532
" />
</g>
<g style="fill:#000000; fill-opacity:0.0; 
stroke:#000000; stroke-width:39.3701; stroke-opacity:1; 
stroke-linecap:round; stroke-linejoin:round;">
</g>
<g style="fill:#000000; fill-opacity:0.0; 
stroke:#000000; stroke-width:59.0551; stroke-opacity:1; 
stroke-linecap:round; stroke-linejoin:round;">
<path d="M112545 78069
L112448 78069
L112399 78093
L112375 78117
L112326 78190
L112302 78288
L112302 78483
L112326 78532
L112350 78556
L112399 78580
L112497 78580
L112545 78556
L112570 78532
L112594 78483
L112594 78361
L112570 78312
L112545 78288
L112497 78263
L112399 78263
L112350 78288
L112326 78312
L112302 78361
" />
</g>
<g style="fill:#000000; fill-opacity:0.0; 
stroke:#000000; stroke-width:39.3701; stroke-opacity:1; 
stroke-linecap:round; stroke-linejoin:round;">
</g>
<g style="fill:#000000; fill-opacity:0.0; 
stroke:#000000; stroke-width:59.0551; stroke-opacity:1; 
stroke-linecap:round; stroke-linejoin:round;">
<path d="M3937 23622
L4724 23622
" />
</g>
<g style="fill:#000000; fill-opacity:0.0; 
stroke:#000000; stroke-width:39.3701; stroke-opacity:1; 
stroke-linecap:round; stroke-linejoin:round;">
</g>
<g style="fill:#000000; fill-opacity:0.0; 
stroke:#000000; stroke-width:59.0551; stroke-opacity:1; 
stroke-linecap:round; stroke-linejoin:round;">
<path d="M3937 43307
L4724 43307
" />
</g>
<g style="fill:#000000; fill-opacity:0.0; 
stroke:#000000; stroke-width:39.3701; stroke-opacity:1; 
stroke-linecap:round; stroke-linejoin:round;">
</g>
<g style="fill:#000000; fill-opacity:0.0; 
stroke:#000000; stroke-width:59.0551; stroke-opacity:1; 
stroke-linecap:round; stroke-linejoin:round;">
<path d="M3937 62992
L4724 62992
" />
</g>
<g style="fill:#000000; fill-opacity:0.0; 
stroke:#000000; stroke-width:39.3701; stroke-opacity:1; 
stroke-linecap:round; stroke-linejoin:round;">
</g>
<g style="fill:#000000; fill-opacity:0.0; 
stroke:#000000; stroke-width:59.0551; stroke-opacity:1; 
stroke-linecap:round; stroke-linejoin:round;">
<path d="M4208 13864
L4452 13864
" />
<path d="M4160 14011
L4330 13499
L4501 14011
" />
</g>
<g style="fill:#000000; fill-opacity:0.0; 
stroke:#000000; stroke-width:39.3701; stroke-opacity:1; 
stroke-linecap:round; stroke-linejoin:round;">
</g>
<g style="fill:#000000; fill-opacity:0.0; 
stroke:#000000; stroke-width:59.0551; stroke-opacity:1; 
stroke-linecap:round; stroke-linejoin:round;">
<path d="M4367 33428
L4440 33452
L4464 33476
L4489 33525
L4489 33598
L4464 33647
L4440 33671
L4391 33696
L4196 33696
L4196 33184
L4367 33184
L4416 33208
L4440 33233
L4464 33281
L4464 33330
L4440 33379
L4416 33403
L4367 33428
L4196 33428
" />
</g>
<g style="fill:#000000; fill-opacity:0.0; 
stroke:#000000; stroke-width:39.3701; stroke-opacity:1; 
stroke-linecap:round; stroke-linejoin:round;">
</g>
<g style="fill:#000000; fill-opacity:0.0; 
stroke:#000000; stroke-width:59.0551; stroke-opacity:1; 
stroke-linecap:round; stroke-linejoin:round;">
<path d="M4489 53332
L4464 53356
L4391 53381
L4342 53381
L4269 53356
L4221 53308
L4196 53259
L4172 53161
L4172 53088
L4196 52991
L4221 52942
L4269 52893
L4342 52869
L4391 52869
L4464 52893
L4489 52918
" />
</g>
<g style="fill:#000000; fill-opacity:0.0; 
stroke:#000000; stroke-width:39.3701; stroke-opacity:1; 
stroke-linecap:round; stroke-linejoin:round;">
</g>
<g style="fill:#000000; fill-opacity:0.0; 
stroke:#000000; stroke-width:59.0551; stroke-opacity:1; 
stroke-linecap:round; stroke-linejoin:round;">
<path d="M4196 73066
L4196 72554
L4318 72554
L4391 72578
L4440 72627
L4464 72676
L4489 72773
L4489 72846
L4464 72944
L4440 72993
L4391 73041
L4318 73066
L4196 73066
" />
</g>
<g style="fill:#000000; fill-opacity:0.0; 
stroke:#000000; stroke-width:39.3701; stroke-opacity:1; 
stroke-linecap:round; stroke-linejoin:round;">
</g>
<g style="fill:#000000; fill-opacity:0.0; 
stroke:#000000; stroke-width:59.0551; stroke-opacity:1; 
stroke-linecap:round; stroke-linejoin:round;">
<path d="M112992 23622
L112205 23622
" />
</g>
<g style="fill:#000000; fill-opacity:0.0; 
stroke:#000000; stroke-width:39.3701; stroke-opacity:1; 
stroke-linecap:round; stroke-linejoin:round;">
</g>
<g style="fill:#000000; fill-opacity:0.0; 
stroke:#000000; stroke-width:59.0551; stroke-opacity:1; 
stroke-linecap:round; stroke-linejoin:round;">
<path d="M112992 43307
L112205 43307
" />
</g>
<g style="fill:#000000; fill-opacity:0.0; 
stroke:#000000; stroke-width:39.3701; stroke-opacity:1; 
stroke-linecap:round; stroke-linejoin:round;">
</g>
<g style="fill:#000000; fill-opacity:0.0; 
stroke:#000000; stroke-width:59.0551; stroke-opacity:1; 
stroke-linecap:round; stroke-linejoin:round;">
<path d="M112992 62992
L112205 62992
" />
</g>
<g style="fill:#000000; fill-opacity:0.0; 
stroke:#000000; stroke-width:39.3701; stroke-opacity:1; 
stroke-linecap:round; stroke-linejoin:round;">
</g>
<g style="fill:#000000; fill-opacity:0.0; 
stroke:#000000; stroke-width:59.0551; stroke-opacity:1; 
stroke-linecap:round; stroke-linejoin:round;">
<path d="M112477 13864
L112721 13864
" />
<path d="M112428 14011
L112599 13499
L112769 14011
" />
</g>
<g style="fill:#000000; fill-opacity:0.0; 
stroke:#000000; stroke-width:39.3701; stroke-opacity:1; 
stroke-linecap:round; stroke-linejoin:round;">
</g>
<g style="fill:#000000; fill-opacity:0.0; 
stroke:#000000; stroke-width:59.0551; stroke-opacity:1; 
stroke-linecap:round; stroke-linejoin:round;">
<path d="M112635 33428
L112708 33452
L112733 33476
L112757 33525
L112757 33598
L112733 33647
L112708 33671
L112660 33696
L112465 33696
L112465 33184
L112635 33184
L112684 33208
L112708 33233
L112733 33281
L112733 33330
L112708 33379
L112684 33403
L112635 33428
L112465 33428
" />
</g>
<g style="fill:#000000; fill-opacity:0.0; 
stroke:#000000; stroke-width:39.3701; stroke-opacity:1; 
stroke-linecap:round; stroke-linejoin:round;">
</g>
<g style="fill:#000000; fill-opacity:0.0; 
stroke:#000000; stroke-width:59.0551; stroke-opacity:1; 
stroke-linecap:round; stroke-linejoin:round;">
<path d="M112757 53332
L112733 53356
L112660 53381
L112611 53381
L112538 53356
L112489 53308
L112465 53259
L112440 53161
L112440 53088
L112465 52991
L112489 52942
L112538 52893
L112611 52869
L112660 52869
L112733 52893
L112757 52918
" />
</g>
<g style="fill:#000000; fill-opacity:0.0; 
stroke:#000000; stroke-width:39.3701; stroke-opacity:1; 
stroke-linecap:round; stroke-linejoin:round;">
</g>
<g style="fill:#000000; fill-opacity:0.0; 
stroke:#000000; stroke-width:59.0551; stroke-opacity:1; 
stroke-linecap:round; stroke-linejoin:round;">
<path d="M112465 73066
L112465 72554
L112587 72554
L112660 72578
L112708 72627
L112733 72676
L112757 72773
L112757 72846
L112733 72944
L112708 72993
L112660 73041
L112587 73066
L112465 73066
" />
</g>
<g style="fill:#000000; fill-opacity:0.0; 
stroke:#000000; stroke-width:39.3701; stroke-opacity:1; 
stroke-linecap:round; stroke-linejoin:round;">
</g>
<g style="fill:#000000; fill-opacity:0.0; 
stroke:#000000; stroke-width:59.0551; stroke-opacity:1; 
stroke-linecap:round; stroke-linejoin:round;">
<path d="M78881 76293
L78881 75703
L79022 75703
L79106 75731
L79162 75787
L79190 75843
L79219 75956
L79219 76040
L79190 76153
L79162 76209
L79106 76265
L79022 76293
L78881 76293
" />
<path d="M79725 76293
L79725 75984
L79697 75928
L79640 75899
L79528 75899
L79472 75928
" />
<path d="M79725 76265
L79669 76293
L79528 76293
L79472 76265
L79444 76209
L79444 76153
L79472 76096
L79528 76068
L79669 76068
L79725 76040
" />
<path d="M79922 75899
L80147 75899
" />
<path d="M80006 75703
L80006 76209
L80034 76265
L80090 76293
L80147 76293
" />
<path d="M80568 76265
L80512 76293
L80400 76293
L80343 76265
L80315 76209
L80315 75984
L80343 75928
L80400 75899
L80512 75899
L80568 75928
L80597 75984
L80597 76040
L80315 76096
" />
<path d="M80850 76237
L80878 76265
L80850 76293
L80822 76265
L80850 76237
L80850 76293
" />
<path d="M80850 75928
L80878 75956
L80850 75984
L80822 75956
L80850 75928
L80850 75984
" />
</g>
<g style="fill:#000000; fill-opacity:0.0; 
stroke:#000000; stroke-width:39.3701; stroke-opacity:1; 
stroke-linecap:round; stroke-linejoin:round;">
</g>
<g style="fill:#000000; fill-opacity:0.0; 
stroke:#000000; stroke-width:59.0551; stroke-opacity:1; 
stroke-linecap:round; stroke-linejoin:round;">
<path d="M69685 76577
L112205 76577
" />
</g>
<g style="fill:#000000; fill-opacity:0.0; 
stroke:#000000; stroke-width:39.3701; stroke-opacity:1; 
stroke-linecap:round; stroke-linejoin:round;">
</g>
<g style="fill:#000000; fill-opacity:0.0; 
stroke:#000000; stroke-width:59.0551; stroke-opacity:1; 
stroke-linecap:round; stroke-linejoin:round;">
<path d="M70220 77395
L70220 76805
" />
<path d="M70557 77395
L70304 77058
" />
<path d="M70557 76805
L70220 77142
" />
<path d="M70810 77395
L70810 77002
" />
<path d="M70810 76805
L70782 76833
L70810 76861
L70838 76833
L70810 76805
L70810 76861
" />
<path d="M71429 77339
L71401 77367
L71316 77395
L71260 77395
L71176 77367
L71120 77311
L71091 77255
L71063 77142
L71063 77058
L71091 76946
L71120 76889
L71176 76833
L71260 76805
L71316 76805
L71401 76833
L71429 76861
" />
<path d="M71935 77395
L71935 77086
L71907 77030
L71851 77002
L71738 77002
L71682 77030
" />
<path d="M71935 77367
L71879 77395
L71738 77395
L71682 77367
L71654 77311
L71654 77255
L71682 77199
L71738 77171
L71879 77171
L71935 77142
" />
<path d="M72469 77395
L72469 76805
" />
<path d="M72469 77367
L72413 77395
L72301 77395
L72244 77367
L72216 77339
L72188 77283
L72188 77114
L72216 77058
L72244 77030
L72301 77002
L72413 77002
L72469 77030
" />
<path d="M73201 77086
L73397 77086
" />
<path d="M73482 77395
L73201 77395
L73201 76805
L73482 76805
" />
<path d="M73735 77339
L73763 77367
L73735 77395
L73707 77367
L73735 77339
L73735 77395
" />
<path d="M74016 77395
L74016 76805
L74157 76805
L74241 76833
L74297 76889
L74325 76946
L74354 77058
L74354 77142
L74325 77255
L74297 77311
L74241 77367
L74157 77395
L74016 77395
" />
<path d="M74607 77339
L74635 77367
L74607 77395
L74579 77367
L74607 77339
L74607 77395
" />
<path d="M74860 77227
L75141 77227
" />
<path d="M74804 77395
L75000 76805
L75197 77395
" />
<path d="M75394 77339
L75422 77367
L75394 77395
L75366 77367
L75394 77339
L75394 77395
" />
<path d="M76575 77395
L76575 76805
" />
<path d="M76631 77171
L76800 77395
" />
<path d="M76800 77002
L76575 77227
" />
<path d="M77053 77395
L77053 77002
" />
<path d="M77053 76805
L77025 76833
L77053 76861
L77081 76833
L77053 76805
L77053 76861
" />
<path d="M77588 77367
L77531 77395
L77419 77395
L77363 77367
L77334 77339
L77306 77283
L77306 77114
L77334 77058
L77363 77030
L77419 77002
L77531 77002
L77588 77030
" />
<path d="M78094 77395
L78094 77086
L78066 77030
L78009 77002
L77897 77002
L77841 77030
" />
<path d="M78094 77367
L78037 77395
L77897 77395
L77841 77367
L77813 77311
L77813 77255
L77841 77199
L77897 77171
L78037 77171
L78094 77142
" />
<path d="M78628 77395
L78628 76805
" />
<path d="M78628 77367
L78572 77395
L78459 77395
L78403 77367
L78375 77339
L78347 77283
L78347 77114
L78375 77058
L78403 77030
L78459 77002
L78572 77002
L78628 77030
" />
<path d="M79612 77002
L79612 77395
" />
<path d="M79472 76777
L79331 77199
L79697 77199
" />
<path d="M79922 77339
L79950 77367
L79922 77395
L79894 77367
L79922 77339
L79922 77395
" />
<path d="M80315 76805
L80372 76805
L80428 76833
L80456 76861
L80484 76917
L80512 77030
L80512 77171
L80484 77283
L80456 77339
L80428 77367
L80372 77395
L80315 77395
L80259 77367
L80231 77339
L80203 77283
L80175 77171
L80175 77030
L80203 76917
L80231 76861
L80259 76833
L80315 76805
" />
<path d="M80765 77339
L80793 77367
L80765 77395
L80737 77367
L80765 77339
L80765 77395
" />
<path d="M81356 77395
L81018 77395
" />
<path d="M81187 77395
L81187 76805
L81131 76889
L81075 76946
L81018 76974
" />
<path d="M81609 77171
L82059 77171
" />
<path d="M82312 77367
L82368 77395
L82481 77395
L82537 77367
L82565 77311
L82565 77283
L82537 77227
L82481 77199
L82396 77199
L82340 77171
L82312 77114
L82312 77086
L82340 77030
L82396 77002
L82481 77002
L82537 77030
" />
<path d="M82734 77002
L82959 77002
" />
<path d="M82818 76805
L82818 77311
L82846 77367
L82903 77395
L82959 77395
" />
<path d="M83409 77395
L83409 77086
L83381 77030
L83324 77002
L83212 77002
L83156 77030
" />
<path d="M83409 77367
L83352 77395
L83212 77395
L83156 77367
L83127 77311
L83127 77255
L83156 77199
L83212 77171
L83352 77171
L83409 77142
" />
<path d="M83690 77395
L83690 76805
" />
<path d="M83690 77030
L83746 77002
L83859 77002
L83915 77030
L83943 77058
L83971 77114
L83971 77283
L83943 77339
L83915 77367
L83859 77395
L83746 77395
L83690 77367
" />
<path d="M84309 77395
L84252 77367
L84224 77311
L84224 76805
" />
<path d="M84759 77367
L84702 77395
L84590 77395
L84534 77367
L84505 77311
L84505 77086
L84534 77030
L84590 77002
L84702 77002
L84759 77030
L84787 77086
L84787 77142
L84505 77199
" />
</g>
<g style="fill:#000000; fill-opacity:0.0; 
stroke:#000000; stroke-width:39.3701; stroke-opacity:1; 
stroke-linecap:round; stroke-linejoin:round;">
</g>
<g style="fill:#000000; fill-opacity:0.0; 
stroke:#000000; stroke-width:59.0551; stroke-opacity:1; 
stroke-linecap:round; stroke-linejoin:round;">
<path d="M69685 75396
L112205 75396
" />
</g>
<g style="fill:#000000; fill-opacity:0.0; 
stroke:#000000; stroke-width:39.3701; stroke-opacity:1; 
stroke-linecap:round; stroke-linejoin:round;">
</g>
<g style="fill:#000000; fill-opacity:0.0; 
stroke:#000000; stroke-width:118.11; stroke-opacity:1; 
stroke-linecap:round; stroke-linejoin:round;">
<path d="M104022 76293
L103825 76012
" />
<path d="M103684 76293
L103684 75703
L103909 75703
L103965 75731
L103994 75759
L104022 75815
L104022 75899
L103994 75956
L103965 75984
L103909 76012
L103684 76012
" />
<path d="M104500 76265
L104444 76293
L104331 76293
L104275 76265
L104247 76209
L104247 75984
L104275 75928
L104331 75899
L104444 75899
L104500 75928
L104528 75984
L104528 76040
L104247 76096
" />
<path d="M104725 75899
L104865 76293
L105006 75899
" />
<path d="M105231 76237
L105259 76265
L105231 76293
L105203 76265
L105231 76237
L105231 76293
" />
<path d="M105231 75928
L105259 75956
L105231 75984
L105203 75956
L105231 75928
L105231 75984
" />
</g>
<g style="fill:#000000; fill-opacity:0.0; 
stroke:#000000; stroke-width:39.3701; stroke-opacity:1; 
stroke-linecap:round; stroke-linejoin:round;">
</g>
<g style="fill:#000000; fill-opacity:0.0; 
stroke:#000000; stroke-width:59.0551; stroke-opacity:1; 
stroke-linecap:round; stroke-linejoin:round;">
<path d="M70192 76265
L70276 76293
L70417 76293
L70473 76265
L70501 76237
L70529 76181
L70529 76124
L70501 76068
L70473 76040
L70417 76012
L70304 75984
L70248 75956
L70220 75928
L70192 75871
L70192 75815
L70220 75759
L70248 75731
L70304 75703
L70445 75703
L70529 75731
" />
<path d="M70782 76293
L70782 75899
" />
<path d="M70782 75703
L70754 75731
L70782 75759
L70810 75731
L70782 75703
L70782 75759
" />
<path d="M71007 75899
L71316 75899
L71007 76293
L71316 76293
" />
<path d="M71766 76265
L71710 76293
L71598 76293
L71541 76265
L71513 76209
L71513 75984
L71541 75928
L71598 75899
L71710 75899
L71766 75928
L71795 75984
L71795 76040
L71513 76096
" />
<path d="M72048 76237
L72076 76265
L72048 76293
L72019 76265
L72048 76237
L72048 76293
" />
<path d="M72048 75928
L72076 75956
L72048 75984
L72019 75956
L72048 75928
L72048 75984
" />
<path d="M72751 76124
L73032 76124
" />
<path d="M72694 76293
L72891 75703
L73088 76293
" />
<path d="M73538 75899
L73538 76293
" />
<path d="M73397 75674
L73257 76096
L73622 76096
" />
</g>
<g style="fill:#000000; fill-opacity:0.0; 
stroke:#000000; stroke-width:39.3701; stroke-opacity:1; 
stroke-linecap:round; stroke-linejoin:round;">
</g>
<g style="fill:#000000; fill-opacity:0.0; 
stroke:#000000; stroke-width:59.0551; stroke-opacity:1; 
stroke-linecap:round; stroke-linejoin:round;">
<path d="M103684 77395
L103684 76805
" />
<path d="M104219 77395
L104219 76805
" />
<path d="M104219 77367
L104162 77395
L104050 77395
L103994 77367
L103965 77339
L103937 77283
L103937 77114
L103965 77058
L103994 77030
L104050 77002
L104162 77002
L104219 77030
" />
<path d="M104500 77339
L104528 77367
L104500 77395
L104472 77367
L104500 77339
L104500 77395
" />
<path d="M104500 77030
L104528 77058
L104500 77086
L104472 77058
L104500 77030
L104500 77086
" />
<path d="M105540 77395
L105203 77395
" />
<path d="M105372 77395
L105372 76805
L105315 76889
L105259 76946
L105203 76974
" />
<path d="M106215 76777
L105709 77536
" />
<path d="M106721 77395
L106384 77395
" />
<path d="M106553 77395
L106553 76805
L106496 76889
L106440 76946
L106384 76974
" />
</g>
<g style="fill:#000000; fill-opacity:0.0; 
stroke:#000000; stroke-width:39.3701; stroke-opacity:1; 
stroke-linecap:round; stroke-linejoin:round;">
</g>
<g style="fill:#000000; fill-opacity:0.0; 
stroke:#000000; stroke-width:59.0551; stroke-opacity:1; 
stroke-linecap:round; stroke-linejoin:round;">
<path d="M69685 73821
L112205 73821
" />
</g>
<g style="fill:#000000; fill-opacity:0.0; 
stroke:#000000; stroke-width:39.3701; stroke-opacity:1; 
stroke-linecap:round; stroke-linejoin:round;">
</g>
<g style="fill:#000000; fill-opacity:0.0; 
stroke:#000000; stroke-width:157.48; stroke-opacity:1; 
stroke-linecap:round; stroke-linejoin:round;">
<path d="M70257 74099
L70707 74099
" />
<path d="M70384 74886
L70482 74099
" />
<path d="M70871 74886
L70937 74361
" />
<path d="M70970 74099
L70927 74136
L70960 74174
L71002 74136
L70970 74099
L70960 74174
" />
<path d="M71199 74361
L71499 74361
" />
<path d="M71345 74099
L71260 74774
L71288 74849
L71359 74886
L71434 74886
" />
<path d="M71809 74886
L71738 74849
L71710 74774
L71795 74099
" />
<path d="M72413 74849
L72334 74886
L72184 74886
L72113 74849
L72085 74774
L72123 74474
L72169 74399
L72249 74361
L72399 74361
L72469 74399
L72498 74474
L72488 74549
L72104 74624
" />
<path d="M72793 74811
L72826 74849
L72783 74886
L72751 74849
L72793 74811
L72783 74886
" />
<path d="M72844 74399
L72877 74436
L72835 74474
L72802 74436
L72844 74399
L72835 74474
" />
</g>
<g style="fill:#000000; fill-opacity:0.0; 
stroke:#000000; stroke-width:39.3701; stroke-opacity:1; 
stroke-linecap:round; stroke-linejoin:round;">
</g>
<g style="fill:#000000; fill-opacity:0.0; 
stroke:#000000; stroke-width:59.0551; stroke-opacity:1; 
stroke-linecap:round; stroke-linejoin:round;">
<path d="M70417 73070
L70220 73070
" />
<path d="M70220 73380
L70220 72789
L70501 72789
" />
<path d="M70726 73380
L70726 72986
" />
<path d="M70726 72789
L70698 72817
L70726 72845
L70754 72817
L70726 72789
L70726 72845
" />
<path d="M71091 73380
L71035 73352
L71007 73295
L71007 72789
" />
<path d="M71541 73352
L71485 73380
L71373 73380
L71316 73352
L71288 73295
L71288 73070
L71316 73014
L71373 72986
L71485 72986
L71541 73014
L71570 73070
L71570 73127
L71288 73183
" />
<path d="M71823 73323
L71851 73352
L71823 73380
L71795 73352
L71823 73323
L71823 73380
" />
<path d="M71823 73014
L71851 73042
L71823 73070
L71795 73042
L71823 73014
L71823 73070
" />
<path d="M72498 72986
L72638 73380
L72779 72986
" />
<path d="M73229 73352
L73172 73380
L73060 73380
L73004 73352
L72976 73295
L72976 73070
L73004 73014
L73060 72986
L73172 72986
L73229 73014
L73257 73070
L73257 73127
L72976 73183
" />
<path d="M73482 73352
L73538 73380
L73651 73380
L73707 73352
L73735 73295
L73735 73267
L73707 73211
L73651 73183
L73566 73183
L73510 73155
L73482 73099
L73482 73070
L73510 73014
L73566 72986
L73651 72986
L73707 73014
" />
<path d="M73904 72986
L74129 72986
" />
<path d="M73988 72789
L73988 73295
L74016 73352
L74072 73380
L74129 73380
" />
<path d="M74325 73323
L74354 73352
L74325 73380
L74297 73352
L74325 73323
L74325 73380
" />
<path d="M74607 73380
L74607 72789
" />
<path d="M74663 73155
L74832 73380
" />
<path d="M74832 72986
L74607 73211
" />
<path d="M75085 73380
L75085 72986
" />
<path d="M75085 72789
L75057 72817
L75085 72845
L75113 72817
L75085 72789
L75085 72845
" />
<path d="M75619 73352
L75563 73380
L75450 73380
L75394 73352
L75366 73323
L75338 73267
L75338 73099
L75366 73042
L75394 73014
L75450 72986
L75563 72986
L75619 73014
" />
<path d="M76125 73380
L76125 73070
L76097 73014
L76041 72986
L75928 72986
L75872 73014
" />
<path d="M76125 73352
L76069 73380
L75928 73380
L75872 73352
L75844 73295
L75844 73239
L75872 73183
L75928 73155
L76069 73155
L76125 73127
" />
<path d="M76660 73380
L76660 72789
" />
<path d="M76660 73352
L76603 73380
L76491 73380
L76435 73352
L76406 73323
L76378 73267
L76378 73099
L76406 73042
L76435 73014
L76491 72986
L76603 72986
L76660 73014
" />
<path d="M76800 73436
L77250 73436
" />
<path d="M77391 72986
L77391 73577
" />
<path d="M77391 73014
L77447 72986
L77559 72986
L77616 73014
L77644 73042
L77672 73099
L77672 73267
L77644 73323
L77616 73352
L77559 73380
L77447 73380
L77391 73352
" />
<path d="M78178 73352
L78122 73380
L78009 73380
L77953 73352
L77925 73323
L77897 73267
L77897 73099
L77925 73042
L77953 73014
L78009 72986
L78122 72986
L78178 73014
" />
<path d="M78431 73380
L78431 72789
" />
<path d="M78431 73014
L78487 72986
L78600 72986
L78656 73014
L78684 73042
L78712 73099
L78712 73267
L78684 73323
L78656 73352
L78600 73380
L78487 73380
L78431 73352
" />
</g>
<g style="fill:#000000; fill-opacity:0.0; 
stroke:#000000; stroke-width:39.3701; stroke-opacity:1; 
stroke-linecap:round; stroke-linejoin:round;">
</g>
<g style="fill:#000000; fill-opacity:0.0; 
stroke:#000000; stroke-width:59.0551; stroke-opacity:1; 
stroke-linecap:round; stroke-linejoin:round;">
<path d="M69685 71459
L112205 71459
" />
</g>
<g style="fill:#000000; fill-opacity:0.0; 
stroke:#000000; stroke-width:39.3701; stroke-opacity:1; 
stroke-linecap:round; stroke-linejoin:round;">
</g>
<g style="fill:#000000; fill-opacity:0.0; 
stroke:#000000; stroke-width:59.0551; stroke-opacity:1; 
stroke-linecap:round; stroke-linejoin:round;">
<path d="M70192 72289
L70276 72317
L70417 72317
L70473 72289
L70501 72260
L70529 72204
L70529 72148
L70501 72092
L70473 72064
L70417 72036
L70304 72007
L70248 71979
L70220 71951
L70192 71895
L70192 71839
L70220 71782
L70248 71754
L70304 71726
L70445 71726
L70529 71754
" />
<path d="M70782 72317
L70782 71726
" />
<path d="M71035 72317
L71035 72007
L71007 71951
L70951 71923
L70867 71923
L70810 71951
L70782 71979
" />
<path d="M71541 72289
L71485 72317
L71373 72317
L71316 72289
L71288 72232
L71288 72007
L71316 71951
L71373 71923
L71485 71923
L71541 71951
L71570 72007
L71570 72064
L71288 72120
" />
<path d="M72048 72289
L71991 72317
L71879 72317
L71823 72289
L71795 72232
L71795 72007
L71823 71951
L71879 71923
L71991 71923
L72048 71951
L72076 72007
L72076 72064
L71795 72120
" />
<path d="M72244 71923
L72469 71923
" />
<path d="M72329 71726
L72329 72232
L72357 72289
L72413 72317
L72469 72317
" />
<path d="M72666 72260
L72694 72289
L72666 72317
L72638 72289
L72666 72260
L72666 72317
" />
<path d="M72666 71951
L72694 71979
L72666 72007
L72638 71979
L72666 71951
L72666 72007
" />
</g>
<g style="fill:#000000; fill-opacity:0.0; 
stroke:#000000; stroke-width:39.3701; stroke-opacity:1; 
stroke-linecap:round; stroke-linejoin:round;">
</g>
<g style="fill:#000000; fill-opacity:0.0; 
stroke:#000000; stroke-width:59.0551; stroke-opacity:1; 
stroke-linecap:round; stroke-linejoin:round;">
<path d="M77559 75396
L77559 76577
" />
</g>
<g style="fill:#000000; fill-opacity:0.0; 
stroke:#000000; stroke-width:39.3701; stroke-opacity:1; 
stroke-linecap:round; stroke-linejoin:round;">
</g>
<g style="fill:#000000; fill-opacity:0.0; 
stroke:#000000; stroke-width:59.0551; stroke-opacity:1; 
stroke-linecap:round; stroke-linejoin:round;">
<path d="M102756 75396
L102756 77955
" />
</g>
<g style="fill:#C2C200; fill-opacity:0.0; 
stroke:#C2C200; stroke-width:59.0551; stroke-opacity:1; 
stroke-linecap:round; stroke-linejoin:round;">
<path d="M10000 61000
L10000 21000
" />
<path d="M70000 61000
L10000 61000
" />
<path d="M70000 21000
L70000 61000
" />
<path d="M10000 21000
L70000 21000
" />
<path d="M21956 51979
L22012 51998
L22031 52017
L22050 52054
L22050 52110
L22031 52148
L22012 52167
L21975 52185
L21825 52185
L21825 51792
L21956 51792
L21993 51811
L22012 51829
L22031 51867
L22031 51904
L22012 51942
L21993 51961
L21956 51979
L21825 51979
" />
<path d="M22368 52167
L22331 52185
L22256 52185
L22218 52167
L22200 52129
L22200 51979
L22218 51942
L22256 51923
L22331 51923
L22368 51942
L22387 51979
L22387 52017
L22200 52054
" />
<path d="M22612 52185
L22574 52167
L22556 52129
L22556 51792
" />
<path d="M22706 51923
L22856 51923
" />
<path d="M22762 51792
L22762 52129
L22781 52167
L22818 52185
L22856 52185
" />
<path d="M23193 52185
L22968 52185
" />
<path d="M23081 52185
L23081 51792
L23043 51848
L23006 51886
L22968 51904
" />
<path d="M22115 45685
L22115 45292
" />
<path d="M22528 45685
L22396 45498
" />
<path d="M22303 45685
L22303 45292
L22453 45292
L22490 45311
L22509 45329
L22528 45367
L22528 45423
L22509 45461
L22490 45479
L22453 45498
L22303 45498
" />
<path d="M22903 45685
L22678 45685
" />
<path d="M22790 45685
L22790 45292
L22753 45348
L22715 45386
L22678 45404
" />
<path d="M61310 41475
L61310 41663
L60916 41663
" />
<path d="M61104 41344
L61104 41213
" />
<path d="M61310 41157
L61310 41344
L60916 41344
L60916 41157
" />
<path d="M61310 40988
L60916 40988
L60916 40894
L60935 40838
L60972 40801
L61010 40782
L61085 40763
L61141 40763
L61216 40782
L61253 40801
L61291 40838
L61310 40894
L61310 40988
" />
<path d="M61291 40613
L61310 40576
L61310 40501
L61291 40463
L61253 40444
L61235 40444
L61197 40463
L61178 40501
L61178 40557
L61160 40594
L61122 40613
L61104 40613
L61066 40594
L61047 40557
L61047 40501
L61066 40463
" />
<path d="M61310 40069
L61310 40294
" />
<path d="M61310 40182
L60916 40182
L60972 40219
L61010 40257
L61029 40294
" />
<path d="M36670 32199
L36276 32199
L36670 31974
L36276 31974
" />
<path d="M36670 31562
L36482 31693
" />
<path d="M36670 31787
L36276 31787
L36276 31637
L36295 31599
L36314 31581
L36351 31562
L36407 31562
L36445 31581
L36464 31599
L36482 31637
L36482 31787
" />
<path d="M36464 31262
L36464 31393
" />
<path d="M36670 31393
L36276 31393
L36276 31206
" />
<path d="M36314 31074
L36295 31056
L36276 31018
L36276 30925
L36295 30887
L36314 30868
L36351 30850
L36389 30850
L36445 30868
L36670 31093
L36670 30850
" />
<path d="M36407 30512
L36670 30512
" />
<path d="M36257 30606
L36538 30700
L36538 30456
" />
<path d="M36670 30118
L36670 30306
L36276 30306
" />
<path d="M36670 29781
L36670 30006
" />
<path d="M36670 29893
L36276 29893
L36332 29931
L36370 29968
L36389 30006
" />
<path d="M16103 55290
L15709 55290
L15709 55140
L15728 55103
L15747 55084
L15784 55065
L15840 55065
L15878 55084
L15897 55103
L15915 55140
L15915 55290
" />
<path d="M16103 54690
L16103 54915
" />
<path d="M16103 54803
L15709 54803
L15765 54840
L15803 54878
L15822 54915
" />
<path d="M65589 27263
L65589 26869
L65739 26869
L65776 26888
L65795 26907
L65814 26944
L65814 27000
L65795 27038
L65776 27057
L65739 27075
L65589 27075
" />
<path d="M65964 26907
L65983 26888
L66020 26869
L66114 26869
L66151 26888
L66170 26907
L66189 26944
L66189 26982
L66170 27038
L65945 27263
L66189 27263
" />
<path d="M26083 38234
L25896 38365
" />
<path d="M26083 38459
L25689 38459
L25689 38309
L25708 38271
L25727 38253
L25764 38234
L25821 38234
L25858 38253
L25877 38271
L25896 38309
L25896 38459
" />
<path d="M26064 37896
L26083 37934
L26083 38009
L26064 38046
L26046 38065
L26008 38084
L25896 38084
L25858 38065
L25839 38046
L25821 38009
L25821 37934
L25839 37896
" />
<path d="M26083 37521
L26083 37746
" />
<path d="M26083 37634
L25689 37634
L25746 37671
L25783 37709
L25802 37746
" />
<path d="M51422 30264
L51235 30395
" />
<path d="M51422 30489
L51028 30489
L51028 30339
L51047 30301
L51066 30283
L51103 30264
L51160 30264
L51197 30283
L51216 30301
L51235 30339
L51235 30489
" />
<path d="M51403 29926
L51422 29964
L51422 30039
L51403 30076
L51385 30095
L51347 30114
L51235 30114
L51197 30095
L51178 30076
L51160 30039
L51160 29964
L51178 29926
" />
<path d="M51066 29776
L51047 29758
L51028 29720
L51028 29626
L51047 29589
L51066 29570
L51103 29551
L51141 29551
L51197 29570
L51422 29795
L51422 29551
" />
<path d="M32280 36757
L32149 36570
" />
<path d="M32055 36757
L32055 36363
L32205 36363
L32243 36382
L32261 36401
L32280 36438
L32280 36495
L32261 36532
L32243 36551
L32205 36570
L32055 36570
" />
<path d="M32599 36738
L32561 36757
L32486 36757
L32449 36738
L32430 36701
L32430 36551
L32449 36513
L32486 36495
L32561 36495
L32599 36513
L32618 36551
L32618 36588
L32430 36626
" />
<path d="M32993 36757
L32768 36757
" />
<path d="M32880 36757
L32880 36363
L32843 36420
L32805 36457
L32768 36476
" />
<path d="M51465 34772
L51334 34585
" />
<path d="M51240 34772
L51240 34378
L51390 34378
L51428 34397
L51446 34416
L51465 34453
L51465 34510
L51446 34547
L51428 34566
L51390 34585
L51240 34585
" />
<path d="M51784 34753
L51746 34772
L51671 34772
L51634 34753
L51615 34716
L51615 34566
L51634 34528
L51671 34510
L51746 34510
L51784 34528
L51803 34566
L51803 34603
L51615 34641
" />
<path d="M51953 34416
L51971 34397
L52009 34378
L52103 34378
L52140 34397
L52159 34416
L52178 34453
L52178 34491
L52159 34547
L51934 34772
L52178 34772
" />
<path d="M21909 40292
L22040 40685
L22171 40292
" />
<path d="M22303 40685
L22303 40423
" />
<path d="M22303 40292
L22284 40311
L22303 40329
L22321 40311
L22303 40292
L22303 40329
" />
<path d="M22490 40685
L22490 40292
" />
<path d="M22490 40442
L22528 40423
L22603 40423
L22640 40442
L22659 40461
L22678 40498
L22678 40610
L22659 40648
L22640 40667
L22603 40685
L22528 40685
L22490 40667
" />
<path d="M23053 40685
L22828 40685
" />
<path d="M22940 40685
L22940 40292
L22903 40348
L22865 40386
L22828 40404
" />
<path d="M58772 39065
L58585 39196
" />
<path d="M58772 39290
L58378 39290
L58378 39140
L58397 39103
L58416 39084
L58453 39065
L58510 39065
L58547 39084
L58566 39103
L58585 39140
L58585 39290
" />
<path d="M58772 38690
L58772 38915
" />
<path d="M58772 38803
L58378 38803
L58435 38840
L58472 38878
L58491 38915
" />
<path d="M56333 42815
L56146 42946
" />
<path d="M56333 43040
L55939 43040
L55939 42890
L55958 42853
L55977 42834
L56014 42815
L56071 42815
L56108 42834
L56127 42853
L56146 42890
L56146 43040
" />
<path d="M55977 42665
L55958 42646
L55939 42609
L55939 42515
L55958 42478
L55977 42459
L56014 42440
L56052 42440
L56108 42459
L56333 42684
L56333 42440
" />
<path d="M61434 44598
L61303 44411
" />
<path d="M61209 44598
L61209 44204
L61359 44204
L61396 44223
L61415 44242
L61434 44279
L61434 44336
L61415 44373
L61396 44392
L61359 44411
L61209 44411
" />
<path d="M61565 44204
L61809 44204
L61678 44354
L61734 44354
L61771 44373
L61790 44392
L61809 44429
L61809 44523
L61790 44561
L61771 44579
L61734 44598
L61621 44598
L61584 44579
L61565 44561
" />
<path d="M20132 56065
L19945 56196
" />
<path d="M20132 56290
L19738 56290
L19738 56140
L19757 56103
L19776 56084
L19813 56065
L19870 56065
L19907 56084
L19926 56103
L19945 56140
L19945 56290
" />
<path d="M19738 55821
L19738 55784
L19757 55746
L19776 55728
L19813 55709
L19888 55690
L19982 55690
L20057 55709
L20095 55728
L20113 55746
L20132 55784
L20132 55821
L20113 55859
L20095 55878
L20057 55896
L19982 55915
L19888 55915
L19813 55896
L19776 55878
L19757 55859
L19738 55821
" />
<path d="M51663 43385
L51476 43516
" />
<path d="M51663 43610
L51269 43610
L51269 43460
L51288 43423
L51307 43404
L51344 43385
L51401 43385
L51438 43404
L51457 43423
L51476 43460
L51476 43610
" />
<path d="M51269 43048
L51269 43123
L51288 43160
L51307 43179
L51363 43216
L51438 43235
L51588 43235
L51626 43216
L51644 43198
L51663 43160
L51663 43085
L51644 43048
L51626 43029
L51588 43010
L51494 43010
L51457 43029
L51438 43048
L51419 43085
L51419 43160
L51438 43198
L51457 43216
L51494 43235
" />
<path d="M47284 36583
L47153 36396
" />
<path d="M47059 36583
L47059 36189
L47209 36189
L47246 36208
L47265 36227
L47284 36264
L47284 36321
L47265 36358
L47246 36377
L47209 36396
L47059 36396
" />
<path d="M47509 36358
L47471 36339
L47453 36321
L47434 36283
L47434 36264
L47453 36227
L47471 36208
L47509 36189
L47584 36189
L47621 36208
L47640 36227
L47659 36264
L47659 36283
L47640 36321
L47621 36339
L47584 36358
L47509 36358
L47471 36377
L47453 36396
L47434 36433
L47434 36508
L47453 36546
L47471 36564
L47509 36583
L47584 36583
L47621 36564
L47640 36546
L47659 36508
L47659 36433
L47640 36396
L47621 36377
L47584 36358
" />
<path d="M18451 38568
L18320 38381
" />
<path d="M18226 38568
L18226 38174
L18376 38174
L18414 38193
L18433 38212
L18451 38249
L18451 38306
L18433 38343
L18414 38362
L18376 38381
L18226 38381
" />
<path d="M18826 38568
L18601 38568
" />
<path d="M18714 38568
L18714 38174
L18676 38231
L18639 38268
L18601 38287
" />
<path d="M19051 38343
L19014 38324
L18995 38306
L18976 38268
L18976 38249
L18995 38212
L19014 38193
L19051 38174
L19126 38174
L19164 38193
L19183 38212
L19201 38249
L19201 38268
L19183 38306
L19164 38324
L19126 38343
L19051 38343
L19014 38362
L18995 38381
L18976 38418
L18976 38493
L18995 38531
L19014 38549
L19051 38568
L19126 38568
L19164 38549
L19183 38531
L19201 38493
L19201 38418
L19183 38381
L19164 38362
L19126 38343
" />
<path d="M42103 25593
L41916 25724
" />
<path d="M42103 25818
L41709 25818
L41709 25668
L41728 25630
L41747 25611
L41784 25593
L41841 25593
L41878 25611
L41897 25630
L41916 25668
L41916 25818
" />
<path d="M42103 25218
L42103 25443
" />
<path d="M42103 25330
L41709 25330
L41766 25368
L41803 25405
L41822 25443
" />
<path d="M42103 25030
L42103 24955
L42084 24918
L42066 24899
L42009 24861
L41934 24843
L41784 24843
L41747 24861
L41728 24880
L41709 24918
L41709 24993
L41728 25030
L41747 25049
L41784 25068
L41878 25068
L41916 25049
L41934 25030
L41953 24993
L41953 24918
L41934 24880
L41916 24861
L41878 24843
" />
<path d="M18451 42792
L18320 42605
" />
<path d="M18226 42792
L18226 42398
L18376 42398
L18414 42417
L18433 42436
L18451 42473
L18451 42530
L18433 42567
L18414 42586
L18376 42605
L18226 42605
" />
<path d="M18601 42436
L18620 42417
L18658 42398
L18751 42398
L18789 42417
L18808 42436
L18826 42473
L18826 42511
L18808 42567
L18583 42792
L18826 42792
" />
<path d="M19070 42398
L19108 42398
L19145 42417
L19164 42436
L19183 42473
L19201 42548
L19201 42642
L19183 42717
L19164 42755
L19145 42773
L19108 42792
L19070 42792
L19033 42773
L19014 42755
L18995 42717
L18976 42642
L18976 42548
L18995 42473
L19014 42436
L19033 42417
L19070 42398
" />
<path d="M18446 49322
L18315 49135
" />
<path d="M18221 49322
L18221 48928
L18371 48928
L18409 48947
L18428 48966
L18446 49003
L18446 49060
L18428 49097
L18409 49116
L18371 49135
L18221 49135
" />
<path d="M18596 48966
L18615 48947
L18653 48928
L18746 48928
L18784 48947
L18803 48966
L18821 49003
L18821 49041
L18803 49097
L18578 49322
L18821 49322
" />
<path d="M19196 49322
L18971 49322
" />
<path d="M19084 49322
L19084 48928
L19046 48985
L19009 49022
L18971 49041
" />
<path d="M55583 39253
L55396 39384
" />
<path d="M55583 39478
L55189 39478
L55189 39328
L55208 39290
L55227 39271
L55264 39253
L55321 39253
L55358 39271
L55377 39290
L55396 39328
L55396 39478
" />
<path d="M55227 39103
L55208 39084
L55189 39046
L55189 38953
L55208 38915
L55227 38896
L55264 38878
L55302 38878
L55358 38896
L55583 39121
L55583 38878
" />
<path d="M55321 38540
L55583 38540
" />
<path d="M55171 38634
L55452 38728
L55452 38484
" />
<path d="M61246 40083
L61115 39896
" />
<path d="M61021 40083
L61021 39689
L61171 39689
L61209 39708
L61228 39727
L61246 39764
L61246 39821
L61228 39858
L61209 39877
L61171 39896
L61021 39896
" />
<path d="M61396 39727
L61415 39708
L61453 39689
L61546 39689
L61584 39708
L61603 39727
L61621 39764
L61621 39802
L61603 39858
L61378 40083
L61621 40083
" />
<path d="M61978 39689
L61790 39689
L61771 39877
L61790 39858
L61828 39839
L61921 39839
L61959 39858
L61978 39877
L61996 39914
L61996 40008
L61978 40046
L61959 40064
L61921 40083
L61828 40083
L61790 40064
L61771 40046
" />
<path d="M58563 40068
L58563 40256
L58170 40256
" />
<path d="M58357 39806
L58357 39937
" />
<path d="M58563 39937
L58170 39937
L58170 39749
" />
<path d="M58601 39693
L58601 39393
" />
<path d="M58563 39299
L58170 39299
L58170 39206
L58188 39149
L58226 39112
L58263 39093
L58338 39074
L58395 39074
L58470 39093
L58507 39112
L58545 39149
L58563 39206
L58563 39299
" />
<path d="M58451 38925
L58451 38737
" />
<path d="M58563 38962
L58170 38831
L58563 38700
" />
<path d="M58170 38625
L58170 38400
" />
<path d="M58563 38512
L58170 38512
" />
<path d="M58451 38287
L58451 38100
" />
<path d="M58563 38325
L58170 38193
L58563 38062
" />
<path d="M58563 37725
L58563 37950
" />
<path d="M58563 37837
L58170 37837
L58226 37875
L58263 37912
L58282 37950
" />
<path d="M59063 43706
L59063 43893
L58670 43893
" />
<path d="M59045 43593
L59063 43537
L59063 43443
L59045 43406
L59026 43387
L58988 43368
L58951 43368
L58913 43387
L58895 43406
L58876 43443
L58857 43518
L58838 43556
L58820 43574
L58782 43593
L58745 43593
L58707 43574
L58688 43556
L58670 43518
L58670 43424
L58688 43368
" />
<path d="M59101 43293
L59101 42993
" />
<path d="M59026 42675
L59045 42693
L59063 42749
L59063 42787
L59045 42843
L59007 42881
L58970 42899
L58895 42918
L58838 42918
L58763 42899
L58726 42881
L58688 42843
L58670 42787
L58670 42749
L58688 42693
L58707 42675
" />
<path d="M59063 42318
L59063 42506
L58670 42506
" />
<path d="M59063 42187
L58670 42187
" />
<path d="M59063 41962
L58838 42131
" />
<path d="M58670 41962
L58895 42187
" />
<path d="M59063 41587
L59063 41812
" />
<path d="M59063 41700
L58670 41700
L58726 41737
L58763 41775
L58782 41812
" />
<path d="M52278 28518
L52334 28537
L52428 28537
L52465 28518
L52484 28499
L52503 28462
L52503 28424
L52484 28387
L52465 28368
L52428 28349
L52353 28330
L52315 28312
L52296 28293
L52278 28255
L52278 28218
L52296 28180
L52315 28162
L52353 28143
L52446 28143
L52503 28162
" />
<path d="M52671 28537
L52671 28143
L52821 28143
L52859 28162
L52878 28180
L52896 28218
L52896 28274
L52878 28312
L52859 28330
L52821 28349
L52671 28349
" />
<path d="M53271 28537
L53046 28537
" />
<path d="M53159 28537
L53159 28143
L53121 28199
L53084 28237
L53046 28255
" />
<path d="M41184 32115
L41053 31927
" />
<path d="M40959 32115
L40959 31721
L41109 31721
L41146 31740
L41165 31758
L41184 31796
L41184 31852
L41165 31890
L41146 31908
L41109 31927
L40959 31927
" />
<path d="M41540 31721
L41353 31721
L41334 31908
L41353 31890
L41390 31871
L41484 31871
L41521 31890
L41540 31908
L41559 31946
L41559 32040
L41540 32077
L41521 32096
L41484 32115
L41390 32115
L41353 32096
L41334 32077
" />
<path d="M36434 32083
L36303 31896
" />
<path d="M36209 32083
L36209 31689
L36359 31689
L36396 31708
L36415 31727
L36434 31764
L36434 31821
L36415 31858
L36396 31877
L36359 31896
L36209 31896
" />
<path d="M36565 31689
L36828 31689
L36659 32083
" />
<path d="M36434 29022
L36303 28835
" />
<path d="M36209 29022
L36209 28628
L36359 28628
L36396 28647
L36415 28666
L36434 28703
L36434 28760
L36415 28797
L36396 28816
L36359 28835
L36209 28835
" />
<path d="M36621 29022
L36696 29022
L36734 29003
L36753 28985
L36790 28928
L36809 28853
L36809 28703
L36790 28666
L36771 28647
L36734 28628
L36659 28628
L36621 28647
L36603 28666
L36584 28703
L36584 28797
L36603 28835
L36621 28853
L36659 28872
L36734 28872
L36771 28853
L36790 28835
L36809 28797
" />
<path d="M19877 26355
L19690 26486
" />
<path d="M19877 26580
L19483 26580
L19483 26430
L19502 26393
L19521 26374
L19558 26355
L19615 26355
L19652 26374
L19671 26393
L19690 26430
L19690 26580
" />
<path d="M19615 26018
L19877 26018
" />
<path d="M19465 26111
L19746 26205
L19746 25961
" />
<path d="M65616 31683
L65485 31496
" />
<path d="M65391 31683
L65391 31289
L65541 31289
L65579 31308
L65598 31327
L65616 31364
L65616 31421
L65598 31458
L65579 31477
L65541 31496
L65391 31496
" />
<path d="M65991 31683
L65766 31683
" />
<path d="M65879 31683
L65879 31289
L65841 31346
L65804 31383
L65766 31402
" />
<path d="M66235 31289
L66273 31289
L66310 31308
L66329 31327
L66348 31364
L66366 31439
L66366 31533
L66348 31608
L66329 31646
L66310 31664
L66273 31683
L66235 31683
L66198 31664
L66179 31646
L66160 31608
L66141 31533
L66141 31439
L66160 31364
L66179 31327
L66198 31308
L66235 31289
" />
<path d="M66243 46753
L66056 46884
" />
<path d="M66243 46978
L65849 46978
L65849 46828
L65868 46790
L65887 46771
L65924 46753
L65981 46753
L66018 46771
L66037 46790
L66056 46828
L66056 46978
" />
<path d="M66243 46378
L66243 46603
" />
<path d="M66243 46490
L65849 46490
L65906 46528
L65943 46565
L65962 46603
" />
<path d="M66243 46003
L66243 46228
" />
<path d="M66243 46115
L65849 46115
L65906 46153
L65943 46190
L65962 46228
" />
<path d="M17876 42463
L17745 42276
" />
<path d="M17651 42463
L17651 42069
L17801 42069
L17839 42088
L17858 42107
L17876 42144
L17876 42201
L17858 42238
L17839 42257
L17801 42276
L17651 42276
" />
<path d="M18251 42463
L18026 42463
" />
<path d="M18139 42463
L18139 42069
L18101 42126
L18064 42163
L18026 42182
" />
<path d="M18401 42107
L18420 42088
L18458 42069
L18551 42069
L18589 42088
L18608 42107
L18626 42144
L18626 42182
L18608 42238
L18383 42463
L18626 42463
" />
<path d="M29972 26553
L29785 26684
" />
<path d="M29972 26778
L29578 26778
L29578 26628
L29597 26590
L29616 26571
L29653 26553
L29710 26553
L29747 26571
L29766 26590
L29785 26628
L29785 26778
" />
<path d="M29972 26178
L29972 26403
" />
<path d="M29972 26290
L29578 26290
L29635 26328
L29672 26365
L29691 26403
" />
<path d="M29578 26046
L29578 25803
L29728 25934
L29728 25878
L29747 25840
L29766 25821
L29803 25803
L29897 25803
L29935 25821
L29953 25840
L29972 25878
L29972 25990
L29953 26028
L29935 26046
" />
<path d="M17881 48093
L17750 47906
" />
<path d="M17656 48093
L17656 47699
L17806 47699
L17844 47718
L17863 47737
L17881 47774
L17881 47831
L17863 47868
L17844 47887
L17806 47906
L17656 47906
" />
<path d="M18256 48093
L18031 48093
" />
<path d="M18144 48093
L18144 47699
L18106 47756
L18069 47793
L18031 47812
" />
<path d="M18594 47831
L18594 48093
" />
<path d="M18500 47681
L18406 47962
L18650 47962
" />
<path d="M17831 34452
L17700 34265
" />
<path d="M17606 34452
L17606 34058
L17756 34058
L17794 34077
L17813 34096
L17831 34133
L17831 34190
L17813 34227
L17794 34246
L17756 34265
L17606 34265
" />
<path d="M18206 34452
L17981 34452
" />
<path d="M18094 34452
L18094 34058
L18056 34115
L18019 34152
L17981 34171
" />
<path d="M18563 34058
L18375 34058
L18356 34246
L18375 34227
L18413 34208
L18506 34208
L18544 34227
L18563 34246
L18581 34283
L18581 34377
L18563 34415
L18544 34433
L18506 34452
L18413 34452
L18375 34433
L18356 34415
" />
<path d="M56851 34263
L56720 34076
" />
<path d="M56626 34263
L56626 33869
L56776 33869
L56814 33888
L56833 33907
L56851 33944
L56851 34001
L56833 34038
L56814 34057
L56776 34076
L56626 34076
" />
<path d="M57226 34263
L57001 34263
" />
<path d="M57114 34263
L57114 33869
L57076 33926
L57039 33963
L57001 33982
" />
<path d="M57564 33869
L57489 33869
L57451 33888
L57433 33907
L57395 33963
L57376 34038
L57376 34188
L57395 34226
L57414 34244
L57451 34263
L57526 34263
L57564 34244
L57583 34226
L57601 34188
L57601 34094
L57583 34057
L57564 34038
L57526 34019
L57451 34019
L57414 34038
L57395 34057
L57376 34094
" />
<path d="M28059 37502
L28041 37539
L28003 37577
L27947 37633
L27928 37671
L27928 37708
" />
<path d="M28022 37689
L28003 37727
L27966 37764
L27891 37783
L27759 37783
L27684 37764
L27647 37727
L27628 37689
L27628 37614
L27647 37577
L27684 37539
L27759 37521
L27891 37521
L27966 37539
L28003 37577
L28022 37614
L28022 37689
" />
<path d="M28022 37146
L28022 37371
" />
<path d="M28022 37258
L27628 37258
L27684 37296
L27722 37333
L27741 37371
" />
<path d="M52872 32184
L52835 32166
L52797 32128
L52741 32072
L52703 32053
L52666 32053
" />
<path d="M52685 32147
L52647 32128
L52610 32091
L52591 32016
L52591 31884
L52610 31809
L52647 31772
L52685 31753
L52760 31753
L52797 31772
L52835 31809
L52853 31884
L52853 32016
L52835 32091
L52797 32128
L52760 32147
L52685 32147
" />
<path d="M53003 31791
L53022 31772
L53059 31753
L53153 31753
L53191 31772
L53209 31791
L53228 31828
L53228 31866
L53209 31922
L52984 32147
L53228 32147
" />
<path d="M65136 43175
L64949 43306
" />
<path d="M65136 43400
L64742 43400
L64742 43250
L64761 43212
L64780 43193
L64817 43175
L64874 43175
L64911 43193
L64930 43212
L64949 43250
L64949 43400
" />
<path d="M65136 42800
L65136 43025
" />
<path d="M65136 42912
L64742 42912
L64799 42950
L64836 42987
L64855 43025
" />
<path d="M64742 42668
L64742 42406
L65136 42575
" />
<path d="M40045 30210
L39901 30330
L39648 30029
" />
<path d="M40013 29967
L40114 29883
" />
<path d="M40289 30005
L40146 30125
L39893 29824
L40036 29703
" />
<path d="M40418 29896
L40165 29595
L40237 29535
L40292 29513
L40345 29517
L40384 29534
L40446 29579
L40482 29622
L40516 29692
L40526 29733
L40521 29786
L40490 29836
L40418 29896
" />
<path d="M40694 29641
L40734 29631
L40792 29583
L40809 29545
L40799 29504
L40787 29489
L40748 29473
L40707 29483
L40664 29519
L40624 29528
L40585 29512
L40573 29497
L40563 29457
L40580 29418
L40623 29382
L40664 29372
" />
<path d="M40721 29178
L40723 29151
L40740 29113
L40812 29052
L40852 29043
L40879 29045
L40917 29062
L40941 29090
L40963 29146
L40935 29463
L41122 29306
" />
<path d="M46574 53420
L46386 53413
L46400 53020
" />
<path d="M46712 53218
L46843 53223
" />
<path d="M46892 53431
L46705 53424
L46719 53031
L46906 53038
" />
<path d="M47061 53437
L47075 53043
L47168 53047
L47224 53067
L47260 53106
L47278 53144
L47294 53220
L47292 53276
L47270 53350
L47250 53387
L47211 53423
L47155 53440
L47061 53437
" />
<path d="M47436 53431
L47473 53451
L47548 53454
L47586 53437
L47606 53400
L47607 53381
L47589 53343
L47553 53323
L47496 53321
L47460 53301
L47442 53263
L47443 53244
L47463 53207
L47501 53190
L47557 53192
L47594 53212
" />
<path d="M47749 53067
L47993 53076
L47856 53221
L47913 53223
L47949 53243
L47967 53262
L47985 53300
L47982 53394
L47962 53431
L47942 53449
L47904 53466
L47792 53462
L47755 53442
L47737 53423
" />
<path d="M56786 35032
L56655 34845
" />
<path d="M56561 35032
L56561 34638
L56711 34638
L56749 34657
L56768 34676
L56786 34713
L56786 34770
L56768 34807
L56749 34826
L56711 34845
L56561 34845
" />
<path d="M56936 34676
L56955 34657
L56993 34638
L57086 34638
L57124 34657
L57143 34676
L57161 34713
L57161 34751
L57143 34807
L56918 35032
L57161 35032
" />
<path d="M57293 34638
L57536 34638
L57405 34788
L57461 34788
L57499 34807
L57518 34826
L57536 34863
L57536 34957
L57518 34995
L57499 35013
L57461 35032
L57349 35032
L57311 35013
L57293 34995
" />
<path d="M47402 49693
L47215 49824
" />
<path d="M47402 49918
L47008 49918
L47008 49768
L47027 49730
L47046 49711
L47083 49693
L47140 49693
L47177 49711
L47196 49730
L47215 49768
L47215 49918
" />
<path d="M47046 49543
L47027 49524
L47008 49486
L47008 49393
L47027 49355
L47046 49336
L47083 49318
L47121 49318
L47177 49336
L47402 49561
L47402 49318
" />
<path d="M47008 49186
L47008 48924
L47402 49093
" />
<path d="M43132 26143
L42945 26274
" />
<path d="M43132 26368
L42738 26368
L42738 26218
L42757 26180
L42776 26161
L42813 26143
L42870 26143
L42907 26161
L42926 26180
L42945 26218
L42945 26368
" />
<path d="M42776 25993
L42757 25974
L42738 25936
L42738 25843
L42757 25805
L42776 25786
L42813 25768
L42851 25768
L42907 25786
L43132 26011
L43132 25768
" />
<path d="M42738 25430
L42738 25505
L42757 25543
L42776 25561
L42832 25599
L42907 25618
L43057 25618
L43095 25599
L43113 25580
L43132 25543
L43132 25468
L43113 25430
L43095 25411
L43057 25393
L42963 25393
L42926 25411
L42907 25430
L42888 25468
L42888 25543
L42907 25580
L42926 25599
L42963 25618
" />
</g>
<g style="fill:#008484; fill-opacity:0.0; 
stroke:#008484; stroke-width:59.0551; stroke-opacity:1; 
stroke-linecap:round; stroke-linejoin:round;">
<path d="M23000 49500
L23000 46500
" />
<path d="M22000 49500
L22000 46500
" />
<path d="M21889 50610
L21889 50000
" />
<path d="M23000 46500
L22000 46500
" />
<path d="M22000 49500
L23000 49500
" />
<path d="M23110 50000
L23110 50610
" />
<path d="M23110 50610
L21889 50610
" />
<path d="M23000 43000
L23000 41000
" />
<path d="M23000 41000
L22000 41000
" />
<path d="M22000 41000
L22000 43000
" />
<path d="M21889 44110
L21889 43500
" />
<path d="M22000 43000
L23000 43000
" />
<path d="M23110 43500
L23110 44110
" />
<path d="M23110 44110
L21889 44110
" />
<path d="M63640 41376
L66640 41376
" />
<path d="M63640 40376
L66640 40376
" />
<path d="M62529 40265
L63140 40265
" />
<path d="M66640 41376
L66640 40376
" />
<path d="M63640 40376
L63640 41376
" />
<path d="M63140 41486
L62529 41486
" />
<path d="M62529 41486
L62529 40265
" />
<path d="M39000 31500
L42000 31500
" />
<path d="M42000 31500
L42000 29500
" />
<path d="M42000 29500
L38000 29500
" />
<path d="M38000 29500
L38000 30500
" />
<path d="M37889 31000
L37889 31610
" />
<path d="M38000 30500
L39000 30500
" />
<path d="M39000 30500
L39000 31500
" />
<path d="M37889 31610
L38500 31610
" />
<path d="M15450 59350
L9900 59350
" />
<path d="M9900 53450
L15450 53450
" />
<path d="M15450 59350
L15450 53450
" />
<path d="M9900 59350
L9900 53450
" />
<path d="M61529 26610
L61529 21060
" />
<path d="M67429 21060
L67429 26610
" />
<path d="M61529 26610
L67429 26610
" />
<path d="M61529 21060
L67429 21060
" />
<path d="M24576 38393
L24576 37606
" />
<path d="M25423 37606
L25423 38393
" />
<path d="M52573 29636
L52573 30423
" />
<path d="M51726 30423
L51726 29636
" />
<path d="M32908 37908
L32121 37908
" />
<path d="M32121 37061
L32908 37061
" />
<path d="M52093 35923
L51306 35923
" />
<path d="M51306 35076
L52093 35076
" />
<path d="M22000 38000
L22000 37000
" />
<path d="M21889 39110
L21889 38500
" />
<path d="M22000 38000
L23000 38000
" />
<path d="M23110 38500
L23110 39110
" />
<path d="M23110 39110
L21889 39110
" />
<path d="M23000 38000
L23000 37000
" />
<path d="M23000 37000
L22000 37000
" />
<path d="M59923 38606
L59923 39393
" />
<path d="M59076 39393
L59076 38606
" />
<path d="M54826 43143
L54826 42356
" />
<path d="M55673 42356
L55673 43143
" />
<path d="M61106 43091
L61893 43091
" />
<path d="M61893 43938
L61106 43938
" />
<path d="M21283 55606
L21283 56393
" />
<path d="M20436 56393
L20436 55606
" />
<path d="M50156 43713
L50156 42926
" />
<path d="M51003 42926
L51003 43713
" />
<path d="M46956 35076
L47743 35076
" />
<path d="M47743 35923
L46956 35923
" />
<path d="M18311 37061
L19098 37061
" />
<path d="M19098 37908
L18311 37908
" />
<path d="M40596 25733
L40596 24946
" />
<path d="M41443 24946
L41443 25733
" />
<path d="M19098 43943
L18311 43943
" />
<path d="M18311 43096
L19098 43096
" />
<path d="M19093 50473
L18306 50473
" />
<path d="M18306 49626
L19093 49626
" />
<path d="M54076 39393
L54076 38606
" />
<path d="M54923 38606
L54923 39393
" />
<path d="M61106 38576
L61893 38576
" />
<path d="M61893 39423
L61106 39423
" />
<path d="M57756 39511
L57756 39492
" />
<path d="M57480 38409
L57756 38409
" />
<path d="M57756 38409
L57756 38507
" />
<path d="M57756 39511
L57756 39590
" />
<path d="M57756 39590
L57480 39590
" />
<path d="M58256 43261
L58256 43242
" />
<path d="M57980 42159
L58256 42159
" />
<path d="M58256 42159
L58256 42257
" />
<path d="M58256 43261
L58256 43340
" />
<path d="M58256 43340
L57980 43340
" />
<path d="M52283 25701
L51889 25701
" />
<path d="M52086 25898
L52086 25504
" />
<path d="M52499 26114
L52539 26075
" />
<path d="M52539 26075
L52618 26036
" />
<path d="M52618 26036
L52736 25996
" />
<path d="M52736 25996
L52814 25996
" />
<path d="M52814 25996
L52932 26036
" />
<path d="M52932 26036
L53011 26075
" />
<path d="M52539 26705
L52618 26744
" />
<path d="M52618 26744
L52736 26784
" />
<path d="M52736 26784
L52814 26784
" />
<path d="M52814 26784
L52932 26744
" />
<path d="M52932 26744
L53011 26705
" />
<circle cx="52775" cy="26390" r="1299" /> 
<path d="M42017 33580
L40482 33580
" />
<path d="M40482 32419
L42017 32419
" />
<path d="M36106 30576
L36893 30576
" />
<path d="M36893 31423
L36106 31423
" />
<path d="M36893 30173
L36106 30173
" />
<path d="M36106 29326
L36893 29326
" />
<path d="M21028 25896
L21028 26683
" />
<path d="M20181 26683
L20181 25896
" />
<path d="M65476 30176
L66263 30176
" />
<path d="M66263 31023
L65476 31023
" />
<path d="M64736 46893
L64736 46106
" />
<path d="M65583 46106
L65583 46893
" />
<path d="M17736 40956
L18523 40956
" />
<path d="M18523 41803
L17736 41803
" />
<path d="M31123 25906
L31123 26693
" />
<path d="M30276 26693
L30276 25906
" />
<path d="M17741 46586
L18528 46586
" />
<path d="M18528 47433
L17741 47433
" />
<path d="M18478 35603
L17691 35603
" />
<path d="M17691 34756
L18478 34756
" />
<path d="M56711 32756
L57498 32756
" />
<path d="M57498 33603
L56711 33603
" />
<path d="M28474 36953
L28474 36972
" />
<path d="M28750 38055
L28474 38055
" />
<path d="M28474 38055
L28474 37957
" />
<path d="M28474 36953
L28474 36874
" />
<path d="M28474 36874
L28750 36874
" />
<path d="M53421 32599
L53402 32599
" />
<path d="M52319 32875
L52319 32599
" />
<path d="M52319 32599
L52417 32599
" />
<path d="M53421 32599
L53500 32599
" />
<path d="M53500 32599
L53500 32875
" />
<path d="M63629 43315
L63629 42528
" />
<path d="M64476 42528
L64476 43315
" />
<path d="M39161 27445
L37233 25147
" />
<path d="M38395 28088
L36467 25790
" />
<path d="M39024 29009
L38632 28542
" />
<path d="M37233 25147
L36467 25790
" />
<path d="M38395 28088
L39161 27445
" />
<path d="M39567 27757
L39959 28225
" />
<path d="M39959 28225
L39024 29009
" />
<path d="M46592 55752
L46488 58750
" />
<path d="M47592 55787
L47487 58785
" />
<path d="M47741 54681
L47719 55291
" />
<path d="M46488 58750
L47487 58785
" />
<path d="M47592 55787
L46592 55752
" />
<path d="M46500 55248
L46521 54638
" />
<path d="M46521 54638
L47741 54681
" />
<path d="M57433 36183
L56646 36183
" />
<path d="M56646 35336
L57433 35336
" />
<path d="M48553 49046
L48553 49833
" />
<path d="M47706 49833
L47706 49046
" />
<path d="M44283 25496
L44283 26283
" />
<path d="M43436 26283
L43436 25496
" />
</g>
<g style="fill:#840000; fill-opacity:0.0; 
stroke:#840000; stroke-width:59.0551; stroke-opacity:1; 
stroke-linecap:round; stroke-linejoin:round;">
</g>
<g style="fill:#840000; fill-opacity:0.0; 
stroke:#840000; stroke-width:0; stroke-opacity:1; 
stroke-linecap:round; stroke-linejoin:round;">
</g>
<g style="fill:#840000; fill-opacity:1.0; 
stroke:#840000; stroke-width:0; stroke-opacity:1; 
stroke-linecap:round; stroke-linejoin:round;">
<polyline style="fill-rule:evenodd;"
points="22900,49660
22900,50340
22100,50340
22100,49660
22900,49660
" /> 
</g>
<g style="fill:#840000; fill-opacity:1.0; 
stroke:#840000; stroke-width:680; stroke-opacity:1; 
stroke-linecap:round; stroke-linejoin:round;">
</g>
<g style="fill:#840000; fill-opacity:0.0; 
stroke:#840000; stroke-width:680; stroke-opacity:1; 
stroke-linecap:round; stroke-linejoin:round;">
<path d="M22560 49000
L22440 49000
" />
<path d="M22560 48000
L22440 48000
" />
<path d="M22560 47000
L22440 47000
" />
</g>
<g style="fill:#840000; fill-opacity:0.0; 
stroke:#840000; stroke-width:0; stroke-opacity:1; 
stroke-linecap:round; stroke-linejoin:round;">
</g>
<g style="fill:#840000; fill-opacity:1.0; 
stroke:#840000; stroke-width:0; stroke-opacity:1; 
stroke-linecap:round; stroke-linejoin:round;">
<polyline style="fill-rule:evenodd;"
points="22900,43160
22900,43840
22100,43840
22100,43160
22900,43160
" /> 
</g>
<g style="fill:#840000; fill-opacity:1.0; 
stroke:#840000; stroke-width:680; stroke-opacity:1; 
stroke-linecap:round; stroke-linejoin:round;">
</g>
<g style="fill:#840000; fill-opacity:0.0; 
stroke:#840000; stroke-width:680; stroke-opacity:1; 
stroke-linecap:round; stroke-linejoin:round;">
<path d="M22560 42500
L22440 42500
" />
<path d="M22560 41500
L22440 41500
" />
</g>
<g style="fill:#840000; fill-opacity:0.0; 
stroke:#840000; stroke-width:0; stroke-opacity:1; 
stroke-linecap:round; stroke-linejoin:round;">
</g>
<g style="fill:#840000; fill-opacity:1.0; 
stroke:#840000; stroke-width:0; stroke-opacity:1; 
stroke-linecap:round; stroke-linejoin:round;">
<polyline style="fill-rule:evenodd;"
points="63480,41276
62800,41276
62800,40476
63480,40476
63480,41276
" /> 
</g>
<g style="fill:#840000; fill-opacity:1.0; 
stroke:#840000; stroke-width:680; stroke-opacity:1; 
stroke-linecap:round; stroke-linejoin:round;">
</g>
<g style="fill:#840000; fill-opacity:0.0; 
stroke:#840000; stroke-width:680; stroke-opacity:1; 
stroke-linecap:round; stroke-linejoin:round;">
<path d="M64140 40936
L64140 40816
" />
<path d="M65140 40936
L65140 40816
" />
<path d="M66140 40936
L66140 40816
" />
</g>
<g style="fill:#840000; fill-opacity:0.0; 
stroke:#840000; stroke-width:0; stroke-opacity:1; 
stroke-linecap:round; stroke-linejoin:round;">
</g>
<g style="fill:#840000; fill-opacity:1.0; 
stroke:#840000; stroke-width:0; stroke-opacity:1; 
stroke-linecap:round; stroke-linejoin:round;">
<polyline style="fill-rule:evenodd;"
points="38840,31340
38160,31340
38160,30660
38840,30660
38840,31340
" /> 
</g>
<g style="fill:#840000; fill-opacity:1.0; 
stroke:#840000; stroke-width:680; stroke-opacity:1; 
stroke-linecap:round; stroke-linejoin:round;">
</g>
<g style="fill:#840000; fill-opacity:0.0; 
stroke:#840000; stroke-width:680; stroke-opacity:1; 
stroke-linecap:round; stroke-linejoin:round;">
<path d="M38500 30000
L38500 30000
" />
<path d="M39500 31000
L39500 31000
" />
<path d="M39500 30000
L39500 30000
" />
<path d="M40500 31000
L40500 31000
" />
<path d="M40500 30000
L40500 30000
" />
<path d="M41500 31000
L41500 31000
" />
<path d="M41500 30000
L41500 30000
" />
</g>
<g style="fill:#840000; fill-opacity:1.0; 
stroke:#840000; stroke-width:0; stroke-opacity:1; 
stroke-linecap:round; stroke-linejoin:round;">
<circle cx="15000.8" cy="57800.3" r="295.5" /> 
</g>
<g style="fill:#840000; fill-opacity:1.0; 
stroke:#840000; stroke-width:39.3701; stroke-opacity:1; 
stroke-linecap:round; stroke-linejoin:round;">
</g>
<g style="fill:#840000; fill-opacity:1.0; 
stroke:#840000; stroke-width:0; stroke-opacity:1; 
stroke-linecap:round; stroke-linejoin:round;">
<circle cx="15000.8" cy="56800.3" r="295.5" /> 
</g>
<g style="fill:#840000; fill-opacity:1.0; 
stroke:#840000; stroke-width:39.3701; stroke-opacity:1; 
stroke-linecap:round; stroke-linejoin:round;">
</g>
<g style="fill:#840000; fill-opacity:1.0; 
stroke:#840000; stroke-width:0; stroke-opacity:1; 
stroke-linecap:round; stroke-linejoin:round;">
<circle cx="15000.8" cy="56000.3" r="295.5" /> 
</g>
<g style="fill:#840000; fill-opacity:1.0; 
stroke:#840000; stroke-width:39.3701; stroke-opacity:1; 
stroke-linecap:round; stroke-linejoin:round;">
</g>
<g style="fill:#840000; fill-opacity:1.0; 
stroke:#840000; stroke-width:0; stroke-opacity:1; 
stroke-linecap:round; stroke-linejoin:round;">
<circle cx="15000.8" cy="55000.3" r="295.5" /> 
</g>
<g style="fill:#840000; fill-opacity:1.0; 
stroke:#840000; stroke-width:39.3701; stroke-opacity:1; 
stroke-linecap:round; stroke-linejoin:round;">
</g>
<g style="fill:#840000; fill-opacity:1.0; 
stroke:#840000; stroke-width:0; stroke-opacity:1; 
stroke-linecap:round; stroke-linejoin:round;">
<circle cx="13950.8" cy="59000.3" r="590.5" /> 
</g>
<g style="fill:#840000; fill-opacity:1.0; 
stroke:#840000; stroke-width:39.3701; stroke-opacity:1; 
stroke-linecap:round; stroke-linejoin:round;">
</g>
<g style="fill:#840000; fill-opacity:1.0; 
stroke:#840000; stroke-width:0; stroke-opacity:1; 
stroke-linecap:round; stroke-linejoin:round;">
<circle cx="13950.8" cy="53600.3" r="590.5" /> 
</g>
<g style="fill:#840000; fill-opacity:1.0; 
stroke:#840000; stroke-width:39.3701; stroke-opacity:1; 
stroke-linecap:round; stroke-linejoin:round;">
</g>
<g style="fill:#840000; fill-opacity:1.0; 
stroke:#840000; stroke-width:0; stroke-opacity:1; 
stroke-linecap:round; stroke-linejoin:round;">
<circle cx="63079.7" cy="26160.8" r="295.5" /> 
</g>
<g style="fill:#840000; fill-opacity:1.0; 
stroke:#840000; stroke-width:39.3701; stroke-opacity:1; 
stroke-linecap:round; stroke-linejoin:round;">
</g>
<g style="fill:#840000; fill-opacity:1.0; 
stroke:#840000; stroke-width:0; stroke-opacity:1; 
stroke-linecap:round; stroke-linejoin:round;">
<circle cx="64079.7" cy="26160.8" r="295.5" /> 
</g>
<g style="fill:#840000; fill-opacity:1.0; 
stroke:#840000; stroke-width:39.3701; stroke-opacity:1; 
stroke-linecap:round; stroke-linejoin:round;">
</g>
<g style="fill:#840000; fill-opacity:1.0; 
stroke:#840000; stroke-width:0; stroke-opacity:1; 
stroke-linecap:round; stroke-linejoin:round;">
<circle cx="64879.7" cy="26160.8" r="295.5" /> 
</g>
<g style="fill:#840000; fill-opacity:1.0; 
stroke:#840000; stroke-width:39.3701; stroke-opacity:1; 
stroke-linecap:round; stroke-linejoin:round;">
</g>
<g style="fill:#840000; fill-opacity:1.0; 
stroke:#840000; stroke-width:0; stroke-opacity:1; 
stroke-linecap:round; stroke-linejoin:round;">
<circle cx="65879.7" cy="26160.8" r="295.5" /> 
</g>
<g style="fill:#840000; fill-opacity:1.0; 
stroke:#840000; stroke-width:39.3701; stroke-opacity:1; 
stroke-linecap:round; stroke-linejoin:round;">
</g>
<g style="fill:#840000; fill-opacity:1.0; 
stroke:#840000; stroke-width:0; stroke-opacity:1; 
stroke-linecap:round; stroke-linejoin:round;">
<circle cx="61879.7" cy="25110.8" r="590.5" /> 
</g>
<g style="fill:#840000; fill-opacity:1.0; 
stroke:#840000; stroke-width:39.3701; stroke-opacity:1; 
stroke-linecap:round; stroke-linejoin:round;">
</g>
<g style="fill:#840000; fill-opacity:1.0; 
stroke:#840000; stroke-width:0; stroke-opacity:1; 
stroke-linecap:round; stroke-linejoin:round;">
<circle cx="67279.7" cy="25110.8" r="590.5" /> 
</g>
<g style="fill:#840000; fill-opacity:1.0; 
stroke:#840000; stroke-width:39.3701; stroke-opacity:1; 
stroke-linecap:round; stroke-linejoin:round;">
</g>
<g style="fill:#840000; fill-opacity:1.0; 
stroke:#840000; stroke-width:0; stroke-opacity:1; 
stroke-linecap:round; stroke-linejoin:round;">
<polyline style="fill-rule:evenodd;"
points="22900,38100
22900,38900
22100,38900
22100,38100
22900,38100
" /> 
</g>
<g style="fill:#840000; fill-opacity:1.0; 
stroke:#840000; stroke-width:800; stroke-opacity:1; 
stroke-linecap:round; stroke-linejoin:round;">
</g>
<g style="fill:#840000; fill-opacity:0.0; 
stroke:#840000; stroke-width:800; stroke-opacity:1; 
stroke-linecap:round; stroke-linejoin:round;">
<path d="M22500 37500
L22500 37500
" />
</g>
<g style="fill:#840000; fill-opacity:1.0; 
stroke:#840000; stroke-width:0; stroke-opacity:1; 
stroke-linecap:round; stroke-linejoin:round;">
<circle cx="53375" cy="26390" r="315" /> 
</g>
<g style="fill:#840000; fill-opacity:1.0; 
stroke:#840000; stroke-width:39.3701; stroke-opacity:1; 
stroke-linecap:round; stroke-linejoin:round;">
</g>
<g style="fill:#840000; fill-opacity:1.0; 
stroke:#840000; stroke-width:0; stroke-opacity:1; 
stroke-linecap:round; stroke-linejoin:round;">
<circle cx="52125" cy="26390" r="315" /> 
</g>
<g style="fill:#840000; fill-opacity:1.0; 
stroke:#840000; stroke-width:39.3701; stroke-opacity:1; 
stroke-linecap:round; stroke-linejoin:round;">
</g>
<g style="fill:#840000; fill-opacity:1.0; 
stroke:#840000; stroke-width:0; stroke-opacity:1; 
stroke-linecap:round; stroke-linejoin:round;">
<polyline style="fill-rule:evenodd;"
points="39187,27632
39624,28153
39012,28667
38575,28146
39187,27632
" /> 
</g>
<g style="fill:#840000; fill-opacity:1.0; 
stroke:#840000; stroke-width:680; stroke-opacity:1; 
stroke-linecap:round; stroke-linejoin:round;">
</g>
<g style="fill:#840000; fill-opacity:0.0; 
stroke:#840000; stroke-width:680; stroke-opacity:1; 
stroke-linecap:round; stroke-linejoin:round;">
<path d="M38503 27345
L38411 27422
" />
<path d="M37860 26579
L37768 26656
" />
<path d="M37217 25813
L37125 25890
" />
</g>
<g style="fill:#840000; fill-opacity:0.0; 
stroke:#840000; stroke-width:0; stroke-opacity:1; 
stroke-linecap:round; stroke-linejoin:round;">
</g>
<g style="fill:#840000; fill-opacity:1.0; 
stroke:#840000; stroke-width:0; stroke-opacity:1; 
stroke-linecap:round; stroke-linejoin:round;">
<polyline style="fill-rule:evenodd;"
points="46698,55595
46722,54916
47521,54944
47497,55623
46698,55595
" /> 
</g>
<g style="fill:#840000; fill-opacity:1.0; 
stroke:#840000; stroke-width:680; stroke-opacity:1; 
stroke-linecap:round; stroke-linejoin:round;">
</g>
<g style="fill:#840000; fill-opacity:0.0; 
stroke:#840000; stroke-width:680; stroke-opacity:1; 
stroke-linecap:round; stroke-linejoin:round;">
<path d="M47015 56267
L47135 56271
" />
<path d="M46980 57266
L47100 57270
" />
<path d="M46945 58266
L47065 58270
" />
</g> 
</svg>
