M48
;DRILL file {KiCad 4.0.1-stable} date Wednesday, December 14, 2016 'AMt' 12:06:06 AM
;FORMAT={-:-/ absolute / metric / decimal}
FMAT,2
METRIC,TZ
T1C0.813
T2C1.001
T3C1.016
T4C2.301
%
G90
G05
M71
T1
X162.763Y-66.327
X162.763Y-68.326
X165.303Y-66.327
X165.303Y-68.326
T2
X73.662Y-130.811
X73.662Y-133.351
X73.662Y-135.383
X73.662Y-137.923
X132.398Y-67.031
X135.572Y-67.031
T3
X70.142Y-76.543
X72.682Y-76.543
X73.315Y-94.244
X73.315Y-96.784
X75.222Y-76.543
X77.762Y-76.543
X78.232Y-101.511
X78.232Y-104.051
X78.232Y-106.591
X80.302Y-76.543
X84.201Y-112.903
X84.201Y-115.443
X84.201Y-117.983
X84.201Y-120.523
X93.98Y-90.17
X93.98Y-92.71
X93.98Y-95.25
X93.98Y-97.79
X93.98Y-100.33
X93.98Y-102.87
X93.98Y-105.41
X93.98Y-107.95
X93.98Y-110.49
X93.98Y-113.03
X93.98Y-115.57
X93.98Y-118.11
X94.416Y-65.664
X95.25Y-120.65
X96.049Y-67.609
X97.681Y-69.555
X97.79Y-76.2
X97.79Y-78.74
X97.79Y-120.65
X99.314Y-71.501
X100.33Y-76.2
X100.33Y-78.74
X100.33Y-120.65
X102.87Y-76.2
X102.87Y-78.74
X102.87Y-120.65
X105.41Y-76.2
X105.41Y-78.74
X105.41Y-120.65
X107.95Y-120.65
X109.22Y-90.17
X109.22Y-92.71
X109.22Y-95.25
X109.22Y-97.79
X109.22Y-100.33
X109.22Y-102.87
X109.22Y-105.41
X109.22Y-107.95
X109.22Y-110.49
X109.22Y-113.03
X109.22Y-115.57
X109.22Y-118.11
X119.393Y-148.001
X119.482Y-145.463
X119.571Y-142.924
X119.659Y-140.386
X160.376Y-103.825
X162.916Y-103.825
X165.456Y-103.825
X167.996Y-103.825
T4
X70.995Y-127.255
X70.995Y-140.971
X158.034Y-63.627
X170.033Y-63.627
T0
M30
