M48
;DRILL file {KiCad 4.0.1-stable} date Tuesday, December 13, 2016 'PMt' 02:36:29 PM
;FORMAT={-:-/ absolute / metric / decimal}
FMAT,2
METRIC,TZ
T1C0.762
T2C1.001
T3C1.016
T4C2.301
%
G90
G05
M71
T1
X93.98Y-90.17
X93.98Y-92.71
X93.98Y-95.25
X93.98Y-97.79
X93.98Y-100.33
X93.98Y-102.87
X93.98Y-105.41
X93.98Y-107.95
X93.98Y-110.49
X93.98Y-113.03
X93.98Y-115.57
X93.98Y-118.11
X95.25Y-120.65
X97.79Y-120.65
X100.33Y-120.65
X102.87Y-120.65
X105.41Y-120.65
X107.95Y-120.65
X109.22Y-90.17
X109.22Y-92.71
X109.22Y-95.25
X109.22Y-97.79
X109.22Y-100.33
X109.22Y-102.87
X109.22Y-105.41
X109.22Y-107.95
X109.22Y-110.49
X109.22Y-113.03
X109.22Y-115.57
X109.22Y-118.11
T2
X38.102Y-139.701
X38.102Y-142.241
X38.102Y-144.273
X38.102Y-146.813
X132.398Y-67.031
X135.572Y-67.031
X160.222Y-66.449
X162.762Y-66.449
X164.794Y-66.449
X167.334Y-66.449
T3
X45.961Y-76.365
X48.501Y-76.365
X51.041Y-76.365
X53.581Y-76.365
X56.121Y-76.365
X57.15Y-95.25
X57.15Y-97.79
X57.15Y-105.41
X57.15Y-107.95
X57.15Y-110.49
X57.15Y-119.38
X57.15Y-121.92
X57.15Y-124.46
X57.15Y-127.
X97.79Y-76.2
X97.79Y-78.74
X100.33Y-76.2
X100.33Y-78.74
X102.87Y-76.2
X102.87Y-78.74
X105.41Y-76.2
X105.41Y-78.74
X165.735Y-100.33
X165.735Y-102.87
X165.735Y-105.41
X165.735Y-107.95
T4
X35.435Y-136.145
X35.435Y-149.861
X157.174Y-63.782
X170.89Y-63.782
T0
M30
