M48
;DRILL file {KiCad 4.0.1-stable} date Monday, December 12, 2016 'AMt' 11:11:47 AM
;FORMAT={-:-/ absolute / metric / decimal}
FMAT,2
METRIC,TZ
T1C0.600
T2C0.762
T3C0.800
T4C1.001
T5C1.016
T6C2.301
%
G90
G05
M71
T1
X106.299Y-108.712
X106.299Y-111.252
T2
X93.98Y-92.075
X93.98Y-94.615
X93.98Y-97.155
X93.98Y-99.695
X93.98Y-102.235
X93.98Y-104.775
X93.98Y-107.315
X93.98Y-109.855
X93.98Y-112.395
X93.98Y-114.935
X93.98Y-117.475
X93.98Y-120.015
X95.25Y-122.555
X97.79Y-122.555
X100.33Y-122.555
X102.87Y-122.555
X105.41Y-122.555
X107.95Y-122.555
X109.22Y-92.075
X109.22Y-94.615
X109.22Y-97.155
X109.22Y-99.695
X109.22Y-102.235
X109.22Y-104.775
X109.22Y-107.315
X109.22Y-109.855
X109.22Y-112.395
X109.22Y-114.935
X109.22Y-117.475
X109.22Y-120.015
T3
X63.5Y-83.82
X63.5Y-86.36
X63.5Y-88.9
X128.27Y-88.9
X128.27Y-91.44
X128.27Y-93.98
X130.81Y-111.76
X130.81Y-114.3
X130.81Y-116.84
X134.62Y-104.14
X134.62Y-106.68
X134.62Y-109.22
X138.43Y-96.52
X138.43Y-99.06
X138.43Y-101.6
T4
X38.102Y-139.701
X38.102Y-142.241
X38.102Y-144.273
X38.102Y-146.813
X164.337Y-68.582
X166.877Y-68.582
X168.909Y-68.582
X171.449Y-68.582
T5
X57.15Y-95.25
X57.15Y-97.79
X57.15Y-105.41
X57.15Y-107.95
X57.15Y-110.49
X57.15Y-119.38
X57.15Y-121.92
X57.15Y-124.46
X57.15Y-127.
X58.42Y-69.85
X60.96Y-69.85
X63.5Y-69.85
X66.04Y-69.85
X68.58Y-69.85
X106.68Y-80.01
X106.68Y-82.55
X109.22Y-80.01
X109.22Y-82.55
X111.76Y-80.01
X111.76Y-82.55
X114.3Y-80.01
X114.3Y-82.55
X140.97Y-90.17
X143.51Y-90.17
X148.59Y-100.33
X148.59Y-102.87
X148.59Y-105.41
X148.59Y-107.95
T6
X35.435Y-136.145
X35.435Y-149.861
X161.289Y-65.915
X175.005Y-65.915
T0
M30
