G04 #@! TF.FileFunction,Copper,L1,Top,Signal*
%FSLAX46Y46*%
G04 Gerber Fmt 4.6, Leading zero omitted, Abs format (unit mm)*
G04 Created by KiCad (PCBNEW 4.0.4-stable) date 12/13/16 20:02:25*
%MOMM*%
%LPD*%
G01*
G04 APERTURE LIST*
%ADD10C,0.100000*%
%ADD11C,1.727200*%
%ADD12R,0.800000X1.500000*%
%ADD13C,72.000000*%
%ADD14C,0.600000*%
%ADD15C,0.900000*%
%ADD16C,0.300000*%
G04 APERTURE END LIST*
D10*
G36*
X138749766Y-142863227D02*
X139123601Y-141176968D01*
X141107434Y-141616773D01*
X140733599Y-143303032D01*
X138749766Y-142863227D01*
X138749766Y-142863227D01*
G37*
D11*
X139230055Y-144686807D02*
X139527631Y-144752777D01*
X138680299Y-147166599D02*
X138977875Y-147232569D01*
X138130542Y-149646391D02*
X138428118Y-149712361D01*
D10*
G36*
X128373145Y-143232332D02*
X129672183Y-143982332D01*
X129272183Y-144675152D01*
X127973145Y-143925152D01*
X128373145Y-143232332D01*
X128373145Y-143232332D01*
G37*
G36*
X129198145Y-141803390D02*
X130497183Y-142553390D01*
X130097183Y-143246210D01*
X128798145Y-142496210D01*
X129198145Y-141803390D01*
X129198145Y-141803390D01*
G37*
G36*
X130023145Y-140374448D02*
X131322183Y-141124448D01*
X130922183Y-141817268D01*
X129623145Y-141067268D01*
X130023145Y-140374448D01*
X130023145Y-140374448D01*
G37*
G36*
X125693017Y-137874448D02*
X126992055Y-138624448D01*
X126592055Y-139317268D01*
X125293017Y-138567268D01*
X125693017Y-137874448D01*
X125693017Y-137874448D01*
G37*
G36*
X124868017Y-139303390D02*
X126167055Y-140053390D01*
X125767055Y-140746210D01*
X124468017Y-139996210D01*
X124868017Y-139303390D01*
X124868017Y-139303390D01*
G37*
G36*
X124043017Y-140732332D02*
X125342055Y-141482332D01*
X124942055Y-142175152D01*
X123643017Y-141425152D01*
X124043017Y-140732332D01*
X124043017Y-140732332D01*
G37*
G36*
X117870923Y-135748063D02*
X118835104Y-136897129D01*
X118222269Y-137411359D01*
X117258088Y-136262293D01*
X117870923Y-135748063D01*
X117870923Y-135748063D01*
G37*
G36*
X119134896Y-134687463D02*
X120099077Y-135836529D01*
X119486242Y-136350759D01*
X118522061Y-135201693D01*
X119134896Y-134687463D01*
X119134896Y-134687463D01*
G37*
G36*
X120398869Y-133626864D02*
X121363050Y-134775930D01*
X120750215Y-135290160D01*
X119786034Y-134141094D01*
X120398869Y-133626864D01*
X120398869Y-133626864D01*
G37*
G36*
X117184931Y-129796641D02*
X118149112Y-130945707D01*
X117536277Y-131459937D01*
X116572096Y-130310871D01*
X117184931Y-129796641D01*
X117184931Y-129796641D01*
G37*
G36*
X115920958Y-130857241D02*
X116885139Y-132006307D01*
X116272304Y-132520537D01*
X115308123Y-131371471D01*
X115920958Y-130857241D01*
X115920958Y-130857241D01*
G37*
G36*
X114656985Y-131917840D02*
X115621166Y-133066906D01*
X115008331Y-133581136D01*
X114044150Y-132432070D01*
X114656985Y-131917840D01*
X114656985Y-131917840D01*
G37*
G36*
X110350697Y-125151912D02*
X110984625Y-126511374D01*
X110259579Y-126849468D01*
X109625651Y-125490006D01*
X110350697Y-125151912D01*
X110350697Y-125151912D01*
G37*
G36*
X111846105Y-124454591D02*
X112480033Y-125814053D01*
X111754987Y-126152147D01*
X111121059Y-124792685D01*
X111846105Y-124454591D01*
X111846105Y-124454591D01*
G37*
G36*
X113341513Y-123757271D02*
X113975441Y-125116733D01*
X113250395Y-125454827D01*
X112616467Y-124095365D01*
X113341513Y-123757271D01*
X113341513Y-123757271D01*
G37*
G36*
X111228421Y-119225732D02*
X111862349Y-120585194D01*
X111137303Y-120923288D01*
X110503375Y-119563826D01*
X111228421Y-119225732D01*
X111228421Y-119225732D01*
G37*
G36*
X109733013Y-119923053D02*
X110366941Y-121282515D01*
X109641895Y-121620609D01*
X109007967Y-120261147D01*
X109733013Y-119923053D01*
X109733013Y-119923053D01*
G37*
G36*
X108237605Y-120620373D02*
X108871533Y-121979835D01*
X108146487Y-122317929D01*
X107512559Y-120958467D01*
X108237605Y-120620373D01*
X108237605Y-120620373D01*
G37*
G36*
X106095279Y-113104286D02*
X106226013Y-114598578D01*
X105429057Y-114668302D01*
X105298323Y-113174010D01*
X106095279Y-113104286D01*
X106095279Y-113104286D01*
G37*
G36*
X107739000Y-112960479D02*
X107869734Y-114454771D01*
X107072778Y-114524495D01*
X106942044Y-113030203D01*
X107739000Y-112960479D01*
X107739000Y-112960479D01*
G37*
G36*
X109382722Y-112816672D02*
X109513456Y-114310964D01*
X108716500Y-114380688D01*
X108585766Y-112886396D01*
X109382722Y-112816672D01*
X109382722Y-112816672D01*
G37*
G36*
X108946943Y-107835698D02*
X109077677Y-109329990D01*
X108280721Y-109399714D01*
X108149987Y-107905422D01*
X108946943Y-107835698D01*
X108946943Y-107835698D01*
G37*
G36*
X107303222Y-107979505D02*
X107433956Y-109473797D01*
X106637000Y-109543521D01*
X106506266Y-108049229D01*
X107303222Y-107979505D01*
X107303222Y-107979505D01*
G37*
G36*
X105659500Y-108123312D02*
X105790234Y-109617604D01*
X104993278Y-109687328D01*
X104862544Y-108193036D01*
X105659500Y-108123312D01*
X105659500Y-108123312D01*
G37*
G36*
X105526106Y-100185353D02*
X105265634Y-101662565D01*
X104477788Y-101523647D01*
X104738260Y-100046435D01*
X105526106Y-100185353D01*
X105526106Y-100185353D01*
G37*
G36*
X107151039Y-100471872D02*
X106890567Y-101949084D01*
X106102721Y-101810166D01*
X106363193Y-100332954D01*
X107151039Y-100471872D01*
X107151039Y-100471872D01*
G37*
G36*
X108775971Y-100758392D02*
X108515499Y-102235604D01*
X107727653Y-102096686D01*
X107988125Y-100619474D01*
X108775971Y-100758392D01*
X108775971Y-100758392D01*
G37*
G36*
X109644212Y-95834353D02*
X109383740Y-97311565D01*
X108595894Y-97172647D01*
X108856366Y-95695435D01*
X109644212Y-95834353D01*
X109644212Y-95834353D01*
G37*
G36*
X108019279Y-95547834D02*
X107758807Y-97025046D01*
X106970961Y-96886128D01*
X107231433Y-95408916D01*
X108019279Y-95547834D01*
X108019279Y-95547834D01*
G37*
G36*
X106394347Y-95261314D02*
X106133875Y-96738526D01*
X105346029Y-96599608D01*
X105606501Y-95122396D01*
X106394347Y-95261314D01*
X106394347Y-95261314D01*
G37*
G36*
X108922333Y-87747965D02*
X108288405Y-89107427D01*
X107563359Y-88769333D01*
X108197287Y-87409871D01*
X108922333Y-87747965D01*
X108922333Y-87747965D01*
G37*
G36*
X110417741Y-88445285D02*
X109783813Y-89804747D01*
X109058767Y-89466653D01*
X109692695Y-88107191D01*
X110417741Y-88445285D01*
X110417741Y-88445285D01*
G37*
G36*
X111913149Y-89142606D02*
X111279221Y-90502068D01*
X110554175Y-90163974D01*
X111188103Y-88804512D01*
X111913149Y-89142606D01*
X111913149Y-89142606D01*
G37*
G36*
X114026241Y-84611067D02*
X113392313Y-85970529D01*
X112667267Y-85632435D01*
X113301195Y-84272973D01*
X114026241Y-84611067D01*
X114026241Y-84611067D01*
G37*
G36*
X112530833Y-83913747D02*
X111896905Y-85273209D01*
X111171859Y-84935115D01*
X111805787Y-83575653D01*
X112530833Y-83913747D01*
X112530833Y-83913747D01*
G37*
G36*
X111035425Y-83216426D02*
X110401497Y-84575888D01*
X109676451Y-84237794D01*
X110310379Y-82878332D01*
X111035425Y-83216426D01*
X111035425Y-83216426D01*
G37*
G36*
X115683880Y-76959954D02*
X114623220Y-78020614D01*
X114057534Y-77454928D01*
X115118194Y-76394268D01*
X115683880Y-76959954D01*
X115683880Y-76959954D01*
G37*
G36*
X116850606Y-78126680D02*
X115789946Y-79187340D01*
X115224260Y-78621654D01*
X116284920Y-77560994D01*
X116850606Y-78126680D01*
X116850606Y-78126680D01*
G37*
G36*
X118017332Y-79293406D02*
X116956672Y-80354066D01*
X116390986Y-79788380D01*
X117451646Y-78727720D01*
X118017332Y-79293406D01*
X118017332Y-79293406D01*
G37*
G36*
X121552866Y-75757872D02*
X120492206Y-76818532D01*
X119926520Y-76252846D01*
X120987180Y-75192186D01*
X121552866Y-75757872D01*
X121552866Y-75757872D01*
G37*
G36*
X120386140Y-74591146D02*
X119325480Y-75651806D01*
X118759794Y-75086120D01*
X119820454Y-74025460D01*
X120386140Y-74591146D01*
X120386140Y-74591146D01*
G37*
G36*
X119219414Y-73424420D02*
X118158754Y-74485080D01*
X117593068Y-73919394D01*
X118653728Y-72858734D01*
X119219414Y-73424420D01*
X119219414Y-73424420D01*
G37*
G36*
X125240455Y-68575668D02*
X123941417Y-69325668D01*
X123541417Y-68632848D01*
X124840455Y-67882848D01*
X125240455Y-68575668D01*
X125240455Y-68575668D01*
G37*
G36*
X126065455Y-70004610D02*
X124766417Y-70754610D01*
X124366417Y-70061790D01*
X125665455Y-69311790D01*
X126065455Y-70004610D01*
X126065455Y-70004610D01*
G37*
G36*
X126890455Y-71433552D02*
X125591417Y-72183552D01*
X125191417Y-71490732D01*
X126490455Y-70740732D01*
X126890455Y-71433552D01*
X126890455Y-71433552D01*
G37*
G36*
X131220583Y-68933552D02*
X129921545Y-69683552D01*
X129521545Y-68990732D01*
X130820583Y-68240732D01*
X131220583Y-68933552D01*
X131220583Y-68933552D01*
G37*
G36*
X130395583Y-67504610D02*
X129096545Y-68254610D01*
X128696545Y-67561790D01*
X129995583Y-66811790D01*
X130395583Y-67504610D01*
X130395583Y-67504610D01*
G37*
G36*
X129570583Y-66075668D02*
X128271545Y-66825668D01*
X127871545Y-66132848D01*
X129170583Y-65382848D01*
X129570583Y-66075668D01*
X129570583Y-66075668D01*
G37*
G36*
X136997526Y-63207875D02*
X135520314Y-63468347D01*
X135381396Y-62680501D01*
X136858608Y-62420029D01*
X136997526Y-63207875D01*
X136997526Y-63207875D01*
G37*
G36*
X137284046Y-64832807D02*
X135806834Y-65093279D01*
X135667916Y-64305433D01*
X137145128Y-64044961D01*
X137284046Y-64832807D01*
X137284046Y-64832807D01*
G37*
G36*
X137570565Y-66457740D02*
X136093353Y-66718212D01*
X135954435Y-65930366D01*
X137431647Y-65669894D01*
X137570565Y-66457740D01*
X137570565Y-66457740D01*
G37*
G36*
X142494604Y-65589499D02*
X141017392Y-65849971D01*
X140878474Y-65062125D01*
X142355686Y-64801653D01*
X142494604Y-65589499D01*
X142494604Y-65589499D01*
G37*
G36*
X142208084Y-63964567D02*
X140730872Y-64225039D01*
X140591954Y-63437193D01*
X142069166Y-63176721D01*
X142208084Y-63964567D01*
X142208084Y-63964567D01*
G37*
G36*
X141921565Y-62339634D02*
X140444353Y-62600106D01*
X140305435Y-61812260D01*
X141782647Y-61551788D01*
X141921565Y-62339634D01*
X141921565Y-62339634D01*
G37*
G36*
X150029004Y-61848234D02*
X148534712Y-61717500D01*
X148604436Y-60920544D01*
X150098728Y-61051278D01*
X150029004Y-61848234D01*
X150029004Y-61848234D01*
G37*
G36*
X149885197Y-63491956D02*
X148390905Y-63361222D01*
X148460629Y-62564266D01*
X149954921Y-62695000D01*
X149885197Y-63491956D01*
X149885197Y-63491956D01*
G37*
G36*
X149741390Y-65135677D02*
X148247098Y-65004943D01*
X148316822Y-64207987D01*
X149811114Y-64338721D01*
X149741390Y-65135677D01*
X149741390Y-65135677D01*
G37*
G36*
X154722364Y-65571456D02*
X153228072Y-65440722D01*
X153297796Y-64643766D01*
X154792088Y-64774500D01*
X154722364Y-65571456D01*
X154722364Y-65571456D01*
G37*
G36*
X154866171Y-63927734D02*
X153371879Y-63797000D01*
X153441603Y-63000044D01*
X154935895Y-63130778D01*
X154866171Y-63927734D01*
X154866171Y-63927734D01*
G37*
G36*
X155009978Y-62284013D02*
X153515686Y-62153279D01*
X153585410Y-61356323D01*
X155079702Y-61487057D01*
X155009978Y-62284013D01*
X155009978Y-62284013D01*
G37*
G36*
X162666165Y-64139254D02*
X161280346Y-63565229D01*
X161586493Y-62826126D01*
X162972312Y-63400151D01*
X162666165Y-64139254D01*
X162666165Y-64139254D01*
G37*
G36*
X162034737Y-65663655D02*
X160648918Y-65089630D01*
X160955065Y-64350527D01*
X162340884Y-64924552D01*
X162034737Y-65663655D01*
X162034737Y-65663655D01*
G37*
G36*
X161403310Y-67188057D02*
X160017491Y-66614032D01*
X160323638Y-65874929D01*
X161709457Y-66448954D01*
X161403310Y-67188057D01*
X161403310Y-67188057D01*
G37*
G36*
X166022707Y-69101474D02*
X164636888Y-68527449D01*
X164943035Y-67788346D01*
X166328854Y-68362371D01*
X166022707Y-69101474D01*
X166022707Y-69101474D01*
G37*
G36*
X166654135Y-67577073D02*
X165268316Y-67003048D01*
X165574463Y-66263945D01*
X166960282Y-66837970D01*
X166654135Y-67577073D01*
X166654135Y-67577073D01*
G37*
G36*
X167285562Y-66052671D02*
X165899743Y-65478646D01*
X166205890Y-64739543D01*
X167591709Y-65313568D01*
X167285562Y-66052671D01*
X167285562Y-66052671D01*
G37*
G36*
X174062506Y-70104366D02*
X172913440Y-69140185D01*
X173427670Y-68527350D01*
X174576736Y-69491531D01*
X174062506Y-70104366D01*
X174062506Y-70104366D01*
G37*
G36*
X173001907Y-71368339D02*
X171852841Y-70404158D01*
X172367071Y-69791323D01*
X173516137Y-70755504D01*
X173001907Y-71368339D01*
X173001907Y-71368339D01*
G37*
G36*
X171941307Y-72632312D02*
X170792241Y-71668131D01*
X171306471Y-71055296D01*
X172455537Y-72019477D01*
X171941307Y-72632312D01*
X171941307Y-72632312D01*
G37*
G36*
X175771530Y-75846250D02*
X174622464Y-74882069D01*
X175136694Y-74269234D01*
X176285760Y-75233415D01*
X175771530Y-75846250D01*
X175771530Y-75846250D01*
G37*
G36*
X176832129Y-74582277D02*
X175683063Y-73618096D01*
X176197293Y-73005261D01*
X177346359Y-73969442D01*
X176832129Y-74582277D01*
X176832129Y-74582277D01*
G37*
G36*
X177892729Y-73318304D02*
X176743663Y-72354123D01*
X177257893Y-71741288D01*
X178406959Y-72705469D01*
X177892729Y-73318304D01*
X177892729Y-73318304D01*
G37*
G36*
X183230382Y-79154914D02*
X182370017Y-77926186D01*
X183025338Y-77467324D01*
X183885703Y-78696052D01*
X183230382Y-79154914D01*
X183230382Y-79154914D01*
G37*
G36*
X181878781Y-80101315D02*
X181018416Y-78872587D01*
X181673737Y-78413725D01*
X182534102Y-79642453D01*
X181878781Y-80101315D01*
X181878781Y-80101315D01*
G37*
G36*
X180527180Y-81047716D02*
X179666815Y-79818988D01*
X180322136Y-79360126D01*
X181182501Y-80588854D01*
X180527180Y-81047716D01*
X180527180Y-81047716D01*
G37*
G36*
X183395062Y-85143476D02*
X182534697Y-83914748D01*
X183190018Y-83455886D01*
X184050383Y-84684614D01*
X183395062Y-85143476D01*
X183395062Y-85143476D01*
G37*
G36*
X184746663Y-84197075D02*
X183886298Y-82968347D01*
X184541619Y-82509485D01*
X185401984Y-83738213D01*
X184746663Y-84197075D01*
X184746663Y-84197075D01*
G37*
G36*
X186098264Y-83250674D02*
X185237899Y-82021946D01*
X185893220Y-81563084D01*
X186753585Y-82791812D01*
X186098264Y-83250674D01*
X186098264Y-83250674D01*
G37*
G36*
X189298674Y-90772306D02*
X188910445Y-89323417D01*
X189683186Y-89116362D01*
X190071415Y-90565251D01*
X189298674Y-90772306D01*
X189298674Y-90772306D01*
G37*
G36*
X187704896Y-91199357D02*
X187316667Y-89750468D01*
X188089408Y-89543413D01*
X188477637Y-90992302D01*
X187704896Y-91199357D01*
X187704896Y-91199357D01*
G37*
G36*
X186111119Y-91626409D02*
X185722890Y-90177520D01*
X186495631Y-89970465D01*
X186883860Y-91419354D01*
X186111119Y-91626409D01*
X186111119Y-91626409D01*
G37*
G36*
X187405214Y-96456038D02*
X187016985Y-95007149D01*
X187789726Y-94800094D01*
X188177955Y-96248983D01*
X187405214Y-96456038D01*
X187405214Y-96456038D01*
G37*
G36*
X188998992Y-96028987D02*
X188610763Y-94580098D01*
X189383504Y-94373043D01*
X189771733Y-95821932D01*
X188998992Y-96028987D01*
X188998992Y-96028987D01*
G37*
G36*
X190592769Y-95601935D02*
X190204540Y-94153046D01*
X190977281Y-93945991D01*
X191365510Y-95394880D01*
X190592769Y-95601935D01*
X190592769Y-95601935D01*
G37*
D12*
X192150000Y-102529000D03*
X190500000Y-102529000D03*
X188850000Y-102529000D03*
X188850000Y-107529000D03*
X190500000Y-107529000D03*
X192150000Y-107529000D03*
D10*
G36*
X190313381Y-116029477D02*
X190764440Y-114598902D01*
X191527413Y-114839467D01*
X191076354Y-116270042D01*
X190313381Y-116029477D01*
X190313381Y-116029477D01*
G37*
G36*
X188739748Y-115533313D02*
X189190807Y-114102738D01*
X189953780Y-114343303D01*
X189502721Y-115773878D01*
X188739748Y-115533313D01*
X188739748Y-115533313D01*
G37*
G36*
X187166116Y-115037148D02*
X187617175Y-113606573D01*
X188380148Y-113847138D01*
X187929089Y-115277713D01*
X187166116Y-115037148D01*
X187166116Y-115037148D01*
G37*
G36*
X185662587Y-119805733D02*
X186113646Y-118375158D01*
X186876619Y-118615723D01*
X186425560Y-120046298D01*
X185662587Y-119805733D01*
X185662587Y-119805733D01*
G37*
G36*
X187236220Y-120301897D02*
X187687279Y-118871322D01*
X188450252Y-119111887D01*
X187999193Y-120542462D01*
X187236220Y-120301897D01*
X187236220Y-120301897D01*
G37*
G36*
X188809852Y-120798062D02*
X189260911Y-119367487D01*
X190023884Y-119608052D01*
X189572825Y-121038627D01*
X188809852Y-120798062D01*
X188809852Y-120798062D01*
G37*
G36*
X185136299Y-127883654D02*
X185996664Y-126654926D01*
X186651985Y-127113788D01*
X185791620Y-128342516D01*
X185136299Y-127883654D01*
X185136299Y-127883654D01*
G37*
G36*
X183784698Y-126937253D02*
X184645063Y-125708525D01*
X185300384Y-126167387D01*
X184440019Y-127396115D01*
X183784698Y-126937253D01*
X183784698Y-126937253D01*
G37*
G36*
X182433097Y-125990852D02*
X183293462Y-124762124D01*
X183948783Y-125220986D01*
X183088418Y-126449714D01*
X182433097Y-125990852D01*
X182433097Y-125990852D01*
G37*
G36*
X179565215Y-130086612D02*
X180425580Y-128857884D01*
X181080901Y-129316746D01*
X180220536Y-130545474D01*
X179565215Y-130086612D01*
X179565215Y-130086612D01*
G37*
G36*
X180916816Y-131033013D02*
X181777181Y-129804285D01*
X182432502Y-130263147D01*
X181572137Y-131491875D01*
X180916816Y-131033013D01*
X180916816Y-131033013D01*
G37*
G36*
X182268417Y-131979414D02*
X183128782Y-130750686D01*
X183784103Y-131209548D01*
X182923738Y-132438276D01*
X182268417Y-131979414D01*
X182268417Y-131979414D01*
G37*
G36*
X176799720Y-137746759D02*
X177989750Y-136833617D01*
X178476760Y-137468299D01*
X177286730Y-138381441D01*
X176799720Y-137746759D01*
X176799720Y-137746759D01*
G37*
G36*
X175795263Y-136437726D02*
X176985293Y-135524584D01*
X177472303Y-136159266D01*
X176282273Y-137072408D01*
X175795263Y-136437726D01*
X175795263Y-136437726D01*
G37*
G36*
X174790807Y-135128693D02*
X175980837Y-134215551D01*
X176467847Y-134850233D01*
X175277817Y-135763375D01*
X174790807Y-135128693D01*
X174790807Y-135128693D01*
G37*
G36*
X170824040Y-138172501D02*
X172014070Y-137259359D01*
X172501080Y-137894041D01*
X171311050Y-138807183D01*
X170824040Y-138172501D01*
X170824040Y-138172501D01*
G37*
G36*
X171828497Y-139481534D02*
X173018527Y-138568392D01*
X173505537Y-139203074D01*
X172315507Y-140116216D01*
X171828497Y-139481534D01*
X171828497Y-139481534D01*
G37*
G36*
X172832953Y-140790567D02*
X174022983Y-139877425D01*
X174509993Y-140512107D01*
X173319963Y-141425249D01*
X172832953Y-140790567D01*
X172832953Y-140790567D01*
G37*
G36*
X165952787Y-144568680D02*
X167362326Y-144055650D01*
X167635943Y-144807404D01*
X166226404Y-145320434D01*
X165952787Y-144568680D01*
X165952787Y-144568680D01*
G37*
G36*
X165388454Y-143018188D02*
X166797993Y-142505158D01*
X167071610Y-143256912D01*
X165662071Y-143769942D01*
X165388454Y-143018188D01*
X165388454Y-143018188D01*
G37*
G36*
X164824120Y-141467695D02*
X166233659Y-140954665D01*
X166507276Y-141706419D01*
X165097737Y-142219449D01*
X164824120Y-141467695D01*
X164824120Y-141467695D01*
G37*
G36*
X160125657Y-143177796D02*
X161535196Y-142664766D01*
X161808813Y-143416520D01*
X160399274Y-143929550D01*
X160125657Y-143177796D01*
X160125657Y-143177796D01*
G37*
G36*
X160689990Y-144728288D02*
X162099529Y-144215258D01*
X162373146Y-144967012D01*
X160963607Y-145480042D01*
X160689990Y-144728288D01*
X160689990Y-144728288D01*
G37*
G36*
X161254324Y-146278781D02*
X162663863Y-145765751D01*
X162937480Y-146517505D01*
X161527941Y-147030535D01*
X161254324Y-146278781D01*
X161254324Y-146278781D01*
G37*
G36*
X153288459Y-147959076D02*
X154787031Y-147893647D01*
X154821927Y-148692886D01*
X153323355Y-148758315D01*
X153288459Y-147959076D01*
X153288459Y-147959076D01*
G37*
G36*
X153216487Y-146310647D02*
X154715059Y-146245218D01*
X154749955Y-147044457D01*
X153251383Y-147109886D01*
X153216487Y-146310647D01*
X153216487Y-146310647D01*
G37*
G36*
X153144515Y-144662217D02*
X154643087Y-144596788D01*
X154677983Y-145396027D01*
X153179411Y-145461456D01*
X153144515Y-144662217D01*
X153144515Y-144662217D01*
G37*
G36*
X148149273Y-144880314D02*
X149647845Y-144814885D01*
X149682741Y-145614124D01*
X148184169Y-145679553D01*
X148149273Y-144880314D01*
X148149273Y-144880314D01*
G37*
G36*
X148221245Y-146528743D02*
X149719817Y-146463314D01*
X149754713Y-147262553D01*
X148256141Y-147327982D01*
X148221245Y-146528743D01*
X148221245Y-146528743D01*
G37*
G36*
X148293217Y-148177173D02*
X149791789Y-148111744D01*
X149826685Y-148910983D01*
X148328113Y-148976412D01*
X148293217Y-148177173D01*
X148293217Y-148177173D01*
G37*
G36*
X105219213Y-92924297D02*
X103550866Y-92477265D01*
X104076787Y-90514503D01*
X105745134Y-90961535D01*
X105219213Y-92924297D01*
X105219213Y-92924297D01*
G37*
D11*
X107062008Y-92524007D02*
X107140896Y-92229593D01*
X109515459Y-93181408D02*
X109594347Y-92886994D01*
X111968911Y-93838808D02*
X112047799Y-93544394D01*
D10*
G36*
X189033932Y-84432564D02*
X190599307Y-83702618D01*
X191458068Y-85544236D01*
X189892693Y-86274182D01*
X189033932Y-84432564D01*
X189033932Y-84432564D01*
G37*
D11*
X187879571Y-85923729D02*
X188008385Y-86199971D01*
X185577549Y-86997180D02*
X185706363Y-87273422D01*
X183275528Y-88070630D02*
X183404342Y-88346872D01*
D13*
X148501100Y-105003600D03*
D14*
X153911249Y-145029122D02*
X155511498Y-141804120D01*
X165665698Y-141587057D02*
X167081200Y-137718800D01*
X175629327Y-134989463D02*
X175853563Y-130494093D01*
X183190940Y-125605919D02*
X182346600Y-121208800D01*
X187773132Y-114442143D02*
X185547000Y-110439200D01*
X188850000Y-102529000D02*
X185644533Y-99795463D01*
X185644533Y-99795463D02*
X185644533Y-99795456D01*
X186303375Y-90798437D02*
X183339935Y-88208751D01*
X180424658Y-80203921D02*
X175996600Y-79502000D01*
X171623889Y-71843804D02*
X167259000Y-72618600D01*
X160863474Y-66531493D02*
X156870400Y-68478400D01*
X149029106Y-64671832D02*
X145745200Y-67513200D01*
X136762500Y-66194053D02*
X134721600Y-70154800D01*
X126040936Y-71462142D02*
X125044200Y-75692000D01*
X117204159Y-79540893D02*
X116999646Y-84751969D01*
X111233662Y-89653290D02*
X112059155Y-93564601D01*
X108251812Y-101427539D02*
X111480600Y-99441000D01*
X109049611Y-113598680D02*
X111404400Y-110617000D01*
X113295954Y-124606049D02*
X114731800Y-121183400D01*
X120574542Y-134458512D02*
X120664915Y-130180078D01*
X120664915Y-130180078D02*
X120664915Y-130180077D01*
X130472664Y-141095858D02*
X129692400Y-137490200D01*
D15*
X112059155Y-93564601D02*
X111480600Y-99441000D01*
X112674400Y-116027200D02*
X111404400Y-110617000D01*
X111404400Y-110617000D02*
X110998000Y-105029000D01*
X110998000Y-105029000D02*
X111429800Y-99517200D01*
X111429800Y-99517200D02*
X111480600Y-99441000D01*
X114731800Y-121183400D02*
X112674400Y-116027200D01*
X117398800Y-126085600D02*
X114731800Y-121183400D01*
X120904000Y-130479800D02*
X120664915Y-130180077D01*
X120664915Y-130180077D02*
X117398800Y-126085600D01*
X125044200Y-134289800D02*
X120904000Y-130479800D01*
X129692400Y-137490200D02*
X125044200Y-134289800D01*
X134645400Y-139877800D02*
X129692400Y-137490200D01*
X138430000Y-141071600D02*
X134645400Y-139877800D01*
X138430000Y-141071600D02*
X140030200Y-142265400D01*
X112059155Y-93564601D02*
X114757200Y-88747600D01*
X114757200Y-88747600D02*
X116999646Y-84751969D01*
X116999646Y-84751969D02*
X117551200Y-83769200D01*
X117551200Y-83769200D02*
X120954800Y-79527400D01*
X120954800Y-79527400D02*
X125044200Y-75692000D01*
X125044200Y-75692000D02*
X129743200Y-72593200D01*
X129743200Y-72593200D02*
X134721600Y-70154800D01*
X134721600Y-70154800D02*
X140131800Y-68503800D01*
X140131800Y-68503800D02*
X145745200Y-67513200D01*
X145745200Y-67513200D02*
X151231600Y-67767200D01*
X151231600Y-67767200D02*
X156870400Y-68478400D01*
X156870400Y-68478400D02*
X162102800Y-70078600D01*
X162102800Y-70078600D02*
X167259000Y-72618600D01*
X167259000Y-72618600D02*
X171932600Y-75768200D01*
X171932600Y-75768200D02*
X175996600Y-79502000D01*
X175996600Y-79502000D02*
X179476400Y-83972400D01*
X179476400Y-83972400D02*
X183339935Y-88208751D01*
X183339935Y-88208751D02*
X184327800Y-93980000D01*
X145567400Y-142417800D02*
X140030200Y-142265400D01*
X151231600Y-142443200D02*
X145567400Y-142417800D01*
X156845000Y-141605000D02*
X155511498Y-141804120D01*
X155511498Y-141804120D02*
X151231600Y-142443200D01*
X162153600Y-139954000D02*
X156845000Y-141605000D01*
X167081200Y-137718800D02*
X162153600Y-139954000D01*
X171831000Y-134467600D02*
X167081200Y-137718800D01*
X175996600Y-130352800D02*
X175853563Y-130494093D01*
X175853563Y-130494093D02*
X171831000Y-134467600D01*
X179349400Y-126314200D02*
X175996600Y-130352800D01*
X182346600Y-121208800D02*
X179349400Y-126314200D01*
X184353200Y-115976400D02*
X182346600Y-121208800D01*
X185547000Y-110439200D02*
X184353200Y-115976400D01*
X185953400Y-104927400D02*
X185547000Y-110439200D01*
X185623200Y-99441000D02*
X185644533Y-99795456D01*
X185644533Y-99795456D02*
X185953400Y-104927400D01*
X184327800Y-93980000D02*
X185623200Y-99441000D01*
D14*
X129647664Y-142524800D02*
X134162800Y-144805400D01*
X134162800Y-144805400D02*
X139480443Y-144745192D01*
X128822664Y-143953742D02*
X133629400Y-146634200D01*
X133629400Y-146634200D02*
X138930687Y-147224984D01*
D15*
X142316200Y-150545800D02*
X138279330Y-149679376D01*
X151968200Y-151206200D02*
X142316200Y-150545800D01*
X122443607Y-143236894D02*
X131140200Y-148437600D01*
X131140200Y-148437600D02*
X138380930Y-149704776D01*
D14*
X148916007Y-145247219D02*
X144424400Y-145846800D01*
X144424400Y-145846800D02*
X142316200Y-150545800D01*
D15*
X102590600Y-98094800D02*
X104698800Y-91592400D01*
X104698800Y-91592400D02*
X106680000Y-84886800D01*
X106807000Y-125095000D02*
X104099618Y-118297117D01*
X104190800Y-118694200D02*
X102616000Y-111836200D01*
X104099618Y-118297117D02*
X104190800Y-118694200D01*
D16*
X126142536Y-138595858D02*
X127990600Y-140512800D01*
D15*
X119634000Y-141173200D02*
X114630200Y-136499600D01*
X122504200Y-143281400D02*
X122443607Y-143236894D01*
X122443607Y-143236894D02*
X119634000Y-141173200D01*
D16*
X126517400Y-143129000D02*
X122504200Y-143281400D01*
X127990600Y-140512800D02*
X126517400Y-143129000D01*
X148916007Y-145247219D02*
X151460200Y-145618200D01*
D15*
X158775400Y-150139400D02*
X165404800Y-148183600D01*
X151968200Y-151206200D02*
X158775400Y-150139400D01*
D16*
X151460200Y-145618200D02*
X151968200Y-151206200D01*
X160967235Y-143297158D02*
X163449000Y-142824200D01*
D15*
X171602400Y-145211800D02*
X177419000Y-141376400D01*
X165404800Y-148183600D02*
X171602400Y-145211800D01*
D16*
X163449000Y-142824200D02*
X165404800Y-148183600D01*
X171662560Y-138033271D02*
X173913800Y-136931400D01*
D15*
X182295800Y-136601200D02*
X186850678Y-131034128D01*
X177419000Y-141376400D02*
X182295800Y-136601200D01*
D16*
X173913800Y-136931400D02*
X177419000Y-141376400D01*
X180323058Y-129701679D02*
X182194200Y-127914400D01*
D15*
X190144400Y-125120400D02*
X192786000Y-118668800D01*
D16*
X186791600Y-131140200D02*
X186850678Y-131034128D01*
D15*
X186850678Y-131034128D02*
X190144400Y-125120400D01*
D16*
X182194200Y-127914400D02*
X186791600Y-131140200D01*
X186269603Y-119210728D02*
X187477400Y-116941600D01*
D15*
X194284600Y-111937800D02*
X194818000Y-105079800D01*
X192786000Y-118668800D02*
X194284600Y-111937800D01*
D16*
X187477400Y-116941600D02*
X192786000Y-118668800D01*
X188850000Y-107529000D02*
X189230000Y-105003600D01*
D15*
X194310000Y-98120200D02*
X192811400Y-91440000D01*
X194818000Y-105079800D02*
X194310000Y-98120200D01*
D16*
X189230000Y-105003600D02*
X194818000Y-105079800D01*
D15*
X190246000Y-84988400D02*
X186791600Y-78917800D01*
D16*
X187597470Y-95628066D02*
X187579000Y-93014800D01*
D15*
X192811400Y-91440000D02*
X190246000Y-84988400D01*
D16*
X187579000Y-93014800D02*
X192811400Y-91440000D01*
X183292540Y-84299681D02*
X182143400Y-81991200D01*
X182143400Y-81991200D02*
X186791600Y-78917800D01*
D15*
X182448200Y-73456800D02*
X177292000Y-68808600D01*
X186791600Y-78917800D02*
X182448200Y-73456800D01*
D16*
X175454112Y-75057742D02*
X173837600Y-73202800D01*
D15*
X171729400Y-64820800D02*
X165430200Y-61925200D01*
X177292000Y-68808600D02*
X171729400Y-64820800D01*
D16*
X173837600Y-73202800D02*
X177292000Y-68808600D01*
X165482871Y-68444910D02*
X163423600Y-67208400D01*
D15*
X158953200Y-59842400D02*
X151968200Y-58826400D01*
X165430200Y-61925200D02*
X158953200Y-59842400D01*
D16*
X163423600Y-67208400D02*
X165430200Y-61925200D01*
X154010080Y-65107611D02*
X151536400Y-64439800D01*
D15*
X144983200Y-58724800D02*
X138252200Y-59842400D01*
X151968200Y-58826400D02*
X144983200Y-58724800D01*
D16*
X151536400Y-64439800D02*
X151968200Y-58826400D01*
X125116492Y-65043539D02*
X125298200Y-64922400D01*
X141686539Y-65325812D02*
X139522200Y-65455800D01*
X139522200Y-65455800D02*
X138252200Y-59842400D01*
D15*
X138252200Y-59842400D02*
X131546600Y-61950600D01*
X131546600Y-61950600D02*
X125298200Y-64922400D01*
D16*
X130371064Y-68962142D02*
X128016000Y-69621400D01*
D15*
X119583200Y-68732400D02*
X114483556Y-73462122D01*
X125116492Y-65043539D02*
X119583200Y-68732400D01*
D16*
X128016000Y-69621400D02*
X125298200Y-64922400D01*
X113346754Y-85121751D02*
X111709200Y-87223600D01*
X118516400Y-77190600D02*
X120739693Y-76005359D01*
X114477800Y-73456800D02*
X114483556Y-73462122D01*
X114483556Y-73462122D02*
X118516400Y-77190600D01*
D15*
X110236000Y-78816200D02*
X114477800Y-73456800D01*
X106680000Y-84886800D02*
X110236000Y-78816200D01*
D16*
X111709200Y-87223600D02*
X106680000Y-84886800D01*
X109120053Y-96503500D02*
X108077000Y-98882200D01*
X108077000Y-98882200D02*
X102590600Y-98094800D01*
D15*
X102590600Y-98094800D02*
X102082600Y-104927400D01*
X102082600Y-104927400D02*
X102616000Y-111836200D01*
D16*
X108613832Y-108617706D02*
X108178600Y-111023400D01*
X108178600Y-111023400D02*
X102616000Y-111836200D01*
D15*
X114630200Y-136499600D02*
X110210600Y-131064000D01*
D16*
X111734600Y-122707400D02*
X111182862Y-120074510D01*
X106807000Y-125095000D02*
X111734600Y-122707400D01*
D15*
X110210600Y-131064000D02*
X106807000Y-125095000D01*
D16*
X118440200Y-132791200D02*
X117360604Y-130628289D01*
X114630200Y-136499600D02*
X118440200Y-132791200D01*
X125317536Y-140024800D02*
X119310569Y-135519111D01*
X124492536Y-141453742D02*
X118046596Y-136579711D01*
X116096631Y-131688889D02*
X111800546Y-125303369D01*
X114832658Y-132749488D02*
X110305138Y-126000690D01*
X109687454Y-120771831D02*
X107405889Y-113742487D01*
X108192046Y-121469151D02*
X105762168Y-113886294D01*
X106970111Y-108761513D02*
X106626880Y-101141019D01*
X105326389Y-108905320D02*
X105001947Y-100854500D01*
X111851346Y-84424431D02*
X116037433Y-78374167D01*
X110355938Y-83727110D02*
X114870707Y-77207441D01*
X119572967Y-74838633D02*
X125215936Y-70033200D01*
X118406241Y-73671907D02*
X124390936Y-68604258D01*
X129546064Y-67533200D02*
X136475981Y-64569120D01*
X128721064Y-66104258D02*
X136189461Y-62944188D01*
X141400019Y-63700880D02*
X149172913Y-63028111D01*
X141113500Y-62075947D02*
X149316720Y-61384389D01*
X154153887Y-63463889D02*
X161494901Y-65007091D01*
X154297694Y-61820168D02*
X162126329Y-63482690D01*
X166114299Y-66920509D02*
X172684489Y-70579831D01*
X166745726Y-65396107D02*
X173745088Y-69315858D01*
X176514711Y-73793769D02*
X181776259Y-79257520D01*
X177575311Y-72529796D02*
X183127860Y-78311119D01*
X189191248Y-95201015D02*
X190500000Y-102529000D01*
X190785025Y-94773963D02*
X192150000Y-102529000D01*
X190500000Y-107529000D02*
X189346764Y-114938308D01*
X192150000Y-107529000D02*
X190920397Y-115434472D01*
X187843236Y-119706892D02*
X184542541Y-126552320D01*
X189416868Y-120203057D02*
X185894142Y-127498721D01*
X181674659Y-130648080D02*
X176633783Y-136298496D01*
X183026260Y-131594481D02*
X177638240Y-137607529D01*
X172667017Y-139342304D02*
X166230032Y-143137550D01*
X173671473Y-140651337D02*
X166794365Y-144688042D01*
X161531568Y-144847650D02*
X153983221Y-146677552D01*
X162095902Y-146398143D02*
X154055193Y-148325981D01*
D14*
X109554903Y-93034201D02*
X109016800Y-90932000D01*
X109016800Y-90932000D02*
X109738254Y-88955969D01*
X107495120Y-96216981D02*
X107772200Y-94615000D01*
X107772200Y-94615000D02*
X109554903Y-93034201D01*
X187897152Y-90371385D02*
X187553600Y-88544400D01*
X187553600Y-88544400D02*
X185641956Y-87135301D01*
X184644141Y-83353280D02*
X185724800Y-84937600D01*
X185724800Y-84937600D02*
X185641956Y-87135301D01*
X107101452Y-92376800D02*
X106857800Y-90093800D01*
X106857800Y-90093800D02*
X108242846Y-88258649D01*
X105870188Y-95930461D02*
X105943400Y-93929200D01*
X105943400Y-93929200D02*
X107101452Y-92376800D01*
D16*
X108242846Y-88258649D02*
X107871850Y-88258649D01*
D14*
X189490930Y-89944334D02*
X189306200Y-87884000D01*
X189306200Y-87884000D02*
X187943978Y-86061850D01*
X185995742Y-82406879D02*
X187248800Y-84124800D01*
X187248800Y-84124800D02*
X187943978Y-86061850D01*
M02*
