G04 #@! TF.FileFunction,Copper,L1,Top,Signal*
%FSLAX46Y46*%
G04 Gerber Fmt 4.6, Leading zero omitted, Abs format (unit mm)*
G04 Created by KiCad (PCBNEW 4.0.1-stable) date 12/13/2016 5:42:41 PM*
%MOMM*%
G01*
G04 APERTURE LIST*
%ADD10C,0.100000*%
%ADD11C,1.727200*%
%ADD12R,1.727200X2.032000*%
%ADD13O,1.727200X2.032000*%
%ADD14R,2.032000X1.727200*%
%ADD15O,2.032000X1.727200*%
%ADD16R,1.700000X0.900000*%
%ADD17C,0.300000*%
%ADD18C,0.600000*%
G04 APERTURE END LIST*
D10*
G36*
X150943082Y-87009100D02*
X151806682Y-88504900D01*
X150046918Y-89520900D01*
X149183318Y-88025100D01*
X150943082Y-87009100D01*
X150943082Y-87009100D01*
G37*
D11*
X149356982Y-85989095D02*
X149093018Y-86141495D01*
X148086982Y-83789391D02*
X147823018Y-83941791D01*
D12*
X139700000Y-96520000D03*
D13*
X142240000Y-96520000D03*
X144780000Y-96520000D03*
D14*
X142240000Y-86360000D03*
D15*
X142240000Y-88900000D03*
X142240000Y-91440000D03*
D10*
G36*
X134578318Y-84059900D02*
X135441918Y-82564100D01*
X137201682Y-83580100D01*
X136338082Y-85075900D01*
X134578318Y-84059900D01*
X134578318Y-84059900D01*
G37*
D11*
X134488018Y-85943505D02*
X134751982Y-86095905D01*
X133218018Y-88143209D02*
X133481982Y-88295609D01*
D10*
G36*
X145249552Y-92242122D02*
X146099552Y-90769878D01*
X146878974Y-91219878D01*
X146028974Y-92692122D01*
X145249552Y-92242122D01*
X145249552Y-92242122D01*
G37*
G36*
X147761026Y-93692122D02*
X148611026Y-92219878D01*
X149390448Y-92669878D01*
X148540448Y-94142122D01*
X147761026Y-93692122D01*
X147761026Y-93692122D01*
G37*
D16*
X145796000Y-89080000D03*
X145796000Y-86180000D03*
D17*
X142240000Y-96520000D02*
X143256000Y-94488000D01*
X148336000Y-90678000D02*
X148082000Y-87630000D01*
X146304000Y-94234000D02*
X148336000Y-90678000D01*
X143256000Y-94488000D02*
X146304000Y-94234000D01*
X142240000Y-88900000D02*
X143764000Y-88392000D01*
X148082000Y-87630000D02*
X149225000Y-86065295D01*
X144272000Y-87630000D02*
X148082000Y-87630000D01*
X143764000Y-88392000D02*
X144272000Y-87630000D01*
D18*
X134620000Y-86019705D02*
X142240000Y-88900000D01*
D17*
X144780000Y-96520000D02*
X147574000Y-95758000D01*
X147574000Y-95758000D02*
X148575737Y-93181000D01*
X145796000Y-89080000D02*
X145238880Y-91668194D01*
X146064263Y-91731000D02*
X145238880Y-91668194D01*
X145238880Y-91668194D02*
X142240000Y-91440000D01*
X145796000Y-86180000D02*
X146304000Y-84582000D01*
X146304000Y-84582000D02*
X147955000Y-83865591D01*
D18*
X133350000Y-88219409D02*
X142240000Y-91440000D01*
X139700000Y-96520000D02*
X138321143Y-99277714D01*
X135890000Y-83820000D02*
X142240000Y-86360000D01*
X150495000Y-88265000D02*
X153268149Y-88410955D01*
X153268149Y-88410955D02*
X153268149Y-88410957D01*
X135890000Y-83820000D02*
X138176000Y-79756000D01*
X138176000Y-79756000D02*
X140208000Y-78740000D01*
X140208000Y-78740000D02*
X141732000Y-78232000D01*
X141732000Y-78232000D02*
X143256000Y-78232000D01*
X143256000Y-78232000D02*
X144780000Y-78232000D01*
X144780000Y-78232000D02*
X146812000Y-78740000D01*
X146812000Y-78740000D02*
X148844000Y-79756000D01*
X148844000Y-79756000D02*
X150368000Y-81280000D01*
X150368000Y-81280000D02*
X151892000Y-82804000D01*
X151892000Y-82804000D02*
X153416000Y-85344000D01*
X153416000Y-85344000D02*
X153416000Y-87376000D01*
X153416000Y-87376000D02*
X153268149Y-88410957D01*
X153268149Y-88410957D02*
X152908000Y-90932000D01*
X152908000Y-90932000D02*
X151892000Y-92964000D01*
X151892000Y-92964000D02*
X150876000Y-94996000D01*
X150876000Y-94996000D02*
X148336000Y-97536000D01*
X148336000Y-97536000D02*
X146304000Y-99568000D01*
X146304000Y-99568000D02*
X143256000Y-100076000D01*
X143256000Y-100076000D02*
X140716000Y-100076000D01*
X140716000Y-100076000D02*
X138321143Y-99277714D01*
X138321143Y-99277714D02*
X137668000Y-99060000D01*
X137668000Y-99060000D02*
X134620000Y-97028000D01*
X134620000Y-97028000D02*
X132588000Y-93980000D01*
X132588000Y-93980000D02*
X131572000Y-91440000D01*
X131572000Y-91440000D02*
X130556000Y-88900000D01*
X130556000Y-88900000D02*
X131064000Y-86360000D01*
X131064000Y-86360000D02*
X133096000Y-82296000D01*
X133096000Y-82296000D02*
X135128000Y-80264000D01*
X135128000Y-80264000D02*
X138176000Y-79756000D01*
M02*
